%TF.GenerationSoftware,KiCad,Pcbnew,(5.1.2-1)-1*%
%TF.CreationDate,2020-09-09T12:05:02+02:00*%
%TF.ProjectId,N64 RGB AMP v1,4e363420-5247-4422-9041-4d502076312e,2.21*%
%TF.SameCoordinates,Original*%
%TF.FileFunction,Profile,NP*%
%FSLAX46Y46*%
G04 Gerber Fmt 4.6, Leading zero omitted, Abs format (unit mm)*
G04 Created by KiCad (PCBNEW (5.1.2-1)-1) date 2020-09-09 12:05:02*
%MOMM*%
%LPD*%
G04 APERTURE LIST*
%ADD10C,0.010000*%
G04 APERTURE END LIST*
D10*
X129730000Y-167370000D02*
G75*
G02X128740000Y-166380000I0J990000D01*
G01*
X120030000Y-148480000D02*
G75*
G02X121030000Y-147480000I1000000J0D01*
G01*
X137650000Y-147480000D02*
G75*
G02X138650000Y-148480000I0J-1000000D01*
G01*
X124180000Y-155130000D02*
G75*
G02X125180000Y-156130000I0J-1000000D01*
G01*
X138650000Y-165870000D02*
X138650000Y-148480000D01*
X122030000Y-146480000D02*
G75*
G02X123030000Y-145480000I1000000J0D01*
G01*
X127740000Y-163140000D02*
G75*
G02X128740000Y-164140000I0J-1000000D01*
G01*
X126170000Y-163140000D02*
X127740000Y-163140000D01*
X125180000Y-162150000D02*
X125180000Y-156130000D01*
X122030000Y-146480000D02*
G75*
G02X121030000Y-147480000I-1000000J0D01*
G01*
X123030000Y-145480000D02*
X133300000Y-145480000D01*
X120030000Y-154130000D02*
X120030000Y-148480000D01*
X129730000Y-167370000D02*
X137150000Y-167370000D01*
X135300000Y-147480000D02*
G75*
G02X134300000Y-146480000I0J1000000D01*
G01*
X133300000Y-145480000D02*
G75*
G02X134300000Y-146480000I0J-1000000D01*
G01*
X135300000Y-147480000D02*
X137650000Y-147480000D01*
X137150000Y-167370000D02*
G75*
G03X138650000Y-165870000I0J1500000D01*
G01*
X121030000Y-155130000D02*
X124180000Y-155130000D01*
X121030000Y-155130000D02*
G75*
G02X120030000Y-154130000I0J1000000D01*
G01*
X126170000Y-163140000D02*
G75*
G02X125180000Y-162150000I0J990000D01*
G01*
X128740000Y-166380000D02*
X128740000Y-164140000D01*
M02*
