%TF.GenerationSoftware,KiCad,Pcbnew,(5.1.2-1)-1*%
%TF.CreationDate,2020-09-09T12:05:02+02:00*%
%TF.ProjectId,N64 RGB AMP v1,4e363420-5247-4422-9041-4d502076312e,2.21*%
%TF.SameCoordinates,Original*%
%TF.FileFunction,Copper,L1,Top*%
%TF.FilePolarity,Positive*%
%FSLAX46Y46*%
G04 Gerber Fmt 4.6, Leading zero omitted, Abs format (unit mm)*
G04 Created by KiCad (PCBNEW (5.1.2-1)-1) date 2020-09-09 12:05:02*
%MOMM*%
%LPD*%
G04 APERTURE LIST*
%ADD10O,1.700000X1.700000*%
%ADD11C,1.700000*%
%ADD12R,0.750000X1.000000*%
%ADD13R,1.000000X0.400000*%
%ADD14R,1.050000X2.100000*%
%ADD15R,0.950000X0.875000*%
%ADD16R,0.975000X1.400000*%
%ADD17R,0.875000X0.950000*%
%ADD18C,0.553720*%
%ADD19C,0.400000*%
%ADD20C,0.250000*%
%ADD21C,0.400000*%
%ADD22C,0.100000*%
G04 APERTURE END LIST*
D10*
X124385000Y-149205000D03*
X129465000Y-151745000D03*
X129465000Y-149205000D03*
X132005000Y-151745000D03*
X132005000Y-149205000D03*
D11*
X134545000Y-151745000D03*
X134545000Y-149205000D03*
D12*
X136470000Y-165557500D03*
X137375000Y-165557500D03*
D13*
X135195000Y-154845000D03*
X135195000Y-155495000D03*
X135195000Y-156145000D03*
X135195000Y-156795000D03*
X135195000Y-157445000D03*
X135195000Y-158095000D03*
X135195000Y-158745000D03*
X129295000Y-158745000D03*
X129295000Y-158095000D03*
X129295000Y-157445000D03*
X129295000Y-156795000D03*
X129295000Y-156145000D03*
X129295000Y-155495000D03*
X129295000Y-154845000D03*
D14*
X131465000Y-165915000D03*
X129865000Y-165915000D03*
X134665000Y-165915000D03*
X133065000Y-165915000D03*
D15*
X137482300Y-160739800D03*
X137482300Y-162314800D03*
X137482300Y-159264800D03*
X137482300Y-157689800D03*
X137482300Y-154639800D03*
X137482300Y-156214800D03*
X137482300Y-153164800D03*
X137482300Y-151589800D03*
X137482300Y-148539800D03*
X137482300Y-150114800D03*
D16*
X122470000Y-154071000D03*
X124345000Y-154071000D03*
D17*
X131985200Y-147242300D03*
X133560200Y-147242300D03*
X125885200Y-147242300D03*
X127460200Y-147242300D03*
X124410200Y-147242300D03*
X122835200Y-147242300D03*
X130510200Y-147242300D03*
X128935200Y-147242300D03*
D15*
X127032300Y-162314800D03*
X127032300Y-160739800D03*
X129122300Y-160739800D03*
X129122300Y-162314800D03*
X131212300Y-162314800D03*
X131212300Y-160739800D03*
X133302300Y-160739800D03*
X133302300Y-162314800D03*
X135392300Y-162314800D03*
X135392300Y-160739800D03*
D17*
X126005200Y-154832300D03*
X127580200Y-154832300D03*
X127580200Y-156922300D03*
X126005200Y-156922300D03*
X126005200Y-159012300D03*
X127580200Y-159012300D03*
D15*
X122837300Y-149674800D03*
X122837300Y-151249800D03*
D18*
X133560200Y-147242300D03*
X131212300Y-160739800D03*
X133302300Y-160739800D03*
X127580200Y-156922300D03*
X127032300Y-162314800D03*
X136470000Y-165557500D03*
X127580200Y-154832300D03*
X129122300Y-160739800D03*
X127580200Y-159012300D03*
X137482300Y-160739800D03*
X137482300Y-157689800D03*
X124345000Y-154071000D03*
X135392300Y-160739800D03*
X137482300Y-151589800D03*
X137482300Y-154639800D03*
X131985200Y-147242300D03*
D19*
X137225000Y-163315000D03*
X137725000Y-163315000D03*
X136335000Y-166715000D03*
X136835000Y-166715000D03*
X135835000Y-166715000D03*
X132175000Y-157405000D03*
X132425000Y-156855000D03*
X131425000Y-156855000D03*
X131675000Y-156305000D03*
X131675000Y-157405000D03*
X132175000Y-156305000D03*
X120450000Y-152190000D03*
X120450000Y-150390000D03*
X120450000Y-153990000D03*
X120450000Y-148590000D03*
X125140000Y-146190000D03*
X138240000Y-161510000D03*
X138240000Y-158460000D03*
X138240000Y-155410000D03*
X138240000Y-152360000D03*
X138240000Y-149310000D03*
X137335000Y-166715000D03*
X131175000Y-157405000D03*
X130925000Y-156855000D03*
X131175000Y-156305000D03*
X131925000Y-156855000D03*
X122835200Y-148590000D03*
D20*
X129295000Y-156795000D02*
X128725000Y-156795000D01*
X127580200Y-158974800D02*
X127580200Y-159012300D01*
X128410000Y-158145000D02*
X127580200Y-158974800D01*
X136190000Y-155130000D02*
X136190000Y-154690000D01*
X135825000Y-155495000D02*
X136190000Y-155130000D01*
X135195000Y-155495000D02*
X135825000Y-155495000D01*
X136670000Y-154270000D02*
X136670000Y-154110000D01*
X137444800Y-153164800D02*
X136670000Y-153939600D01*
X137482300Y-153164800D02*
X137444800Y-153164800D01*
X136670000Y-153939600D02*
X136670000Y-154270000D01*
X137444800Y-150114800D02*
X136670000Y-150889600D01*
X136670000Y-151400000D02*
X136670000Y-153030000D01*
X136645200Y-156214800D02*
X136065000Y-156795000D01*
X137482300Y-150114800D02*
X137444800Y-150114800D01*
X137482300Y-156214800D02*
X136645200Y-156214800D01*
X136670000Y-150889600D02*
X136670000Y-151400000D01*
X136065000Y-156795000D02*
X135195000Y-156795000D01*
X133302300Y-160739800D02*
X133264800Y-160739800D01*
X129295000Y-156145000D02*
X128357500Y-156145000D01*
X136670000Y-153100000D02*
X136190000Y-153580000D01*
X135195000Y-156145000D02*
X135495000Y-156145000D01*
X129295000Y-155495000D02*
X128242900Y-155495000D01*
D21*
X125353900Y-154181000D02*
X126005200Y-154832300D01*
D20*
X127032300Y-160739800D02*
X126994800Y-160739800D01*
D21*
X126005200Y-159712700D02*
X127032300Y-160739800D01*
X126005200Y-159012300D02*
X126005200Y-159712700D01*
D20*
X131465000Y-165915000D02*
X131465000Y-164095000D01*
X136670000Y-153030000D02*
X136670000Y-153100000D01*
X128242900Y-155495000D02*
X127580200Y-154832300D01*
X137482300Y-157689800D02*
X137482300Y-157689800D01*
X133302300Y-163867700D02*
X133302300Y-162314800D01*
X133065000Y-164105000D02*
X133302300Y-163867700D01*
X136529800Y-157689800D02*
X136285000Y-157445000D01*
X127580200Y-159012300D02*
X127580200Y-159049800D01*
X136285000Y-157445000D02*
X135195000Y-157445000D01*
X125810000Y-149550000D02*
X126740000Y-150480000D01*
X133065000Y-165915000D02*
X133065000Y-164105000D01*
X131465000Y-164095000D02*
X131212300Y-163842300D01*
X135354800Y-162314800D02*
X135392300Y-162314800D01*
X134665000Y-165915000D02*
X134665000Y-163004600D01*
D21*
X126005200Y-154832300D02*
X126005200Y-159012300D01*
D20*
X134665000Y-163004600D02*
X135354800Y-162314800D01*
X135195000Y-154845000D02*
X134895000Y-154845000D01*
D21*
X124345000Y-154181000D02*
X124345000Y-154181000D01*
D20*
X131212300Y-163842300D02*
X131212300Y-162314800D01*
X135354800Y-160739800D02*
X133930000Y-159315000D01*
X128410000Y-157110000D02*
X128410000Y-157380000D01*
X133930000Y-159315000D02*
X133930000Y-156230000D01*
X128410000Y-157380000D02*
X128410000Y-157040000D01*
X128410000Y-157380000D02*
X128410000Y-158145000D01*
X135392300Y-160739800D02*
X135354800Y-160739800D01*
X133930000Y-156230000D02*
X132545000Y-154845000D01*
X128410000Y-157040000D02*
X128545000Y-156905000D01*
D21*
X126005200Y-159012300D02*
X126005200Y-159544800D01*
X123307100Y-149205000D02*
X122837300Y-149674800D01*
X126005200Y-159705200D02*
X126005200Y-159544800D01*
D20*
X137444800Y-150114800D02*
X136720000Y-150839600D01*
X126740000Y-150480000D02*
X133280000Y-150480000D01*
X133280000Y-150480000D02*
X134545000Y-151745000D01*
X128357500Y-156145000D02*
X127580200Y-156922300D01*
D21*
X124385000Y-149205000D02*
X123307100Y-149205000D01*
X127032300Y-160739800D02*
X127032300Y-160732300D01*
D20*
X132545000Y-154845000D02*
X129295000Y-154845000D01*
X137482300Y-157689800D02*
X136529800Y-157689800D01*
X136670000Y-154680000D02*
X136670000Y-155420000D01*
X136470000Y-158600000D02*
X135965000Y-158095000D01*
X136670000Y-154270000D02*
X136670000Y-154680000D01*
X135195000Y-158095000D02*
X135495000Y-158095000D01*
X136670000Y-155420000D02*
X136255000Y-155835000D01*
X135965000Y-158095000D02*
X135195000Y-158095000D01*
X135945000Y-156145000D02*
X136255000Y-155835000D01*
X136255000Y-155835000D02*
X136460000Y-155630000D01*
X136470000Y-165557500D02*
X136470000Y-158600000D01*
X129122300Y-162314800D02*
X129159800Y-162314800D01*
X132770000Y-147830000D02*
X132770000Y-147270000D01*
X129159800Y-162314800D02*
X129865000Y-163020000D01*
X129865000Y-164615000D02*
X129865000Y-165915000D01*
X136945200Y-156214800D02*
X137065200Y-156214800D01*
X129865000Y-163020000D02*
X129865000Y-164615000D01*
X135195000Y-156145000D02*
X135945000Y-156145000D01*
X137065200Y-156214800D02*
X137482300Y-156214800D01*
X137482300Y-148539800D02*
X137444800Y-148539800D01*
X128650000Y-156800000D02*
X128545000Y-156905000D01*
X136757300Y-148539800D02*
X136090000Y-149207100D01*
X136090000Y-150200000D02*
X134545000Y-151745000D01*
X129295000Y-156795000D02*
X128655000Y-156795000D01*
X128655000Y-156795000D02*
X128545000Y-156905000D01*
X137482300Y-148539800D02*
X136757300Y-148539800D01*
X136090000Y-149207100D02*
X136090000Y-150200000D01*
X133185001Y-148355001D02*
X132770000Y-147940000D01*
D21*
X124345000Y-154181000D02*
X124345000Y-153968500D01*
D20*
X134545000Y-149205000D02*
X133695001Y-148355001D01*
X133695001Y-148355001D02*
X133185001Y-148355001D01*
X132770000Y-147940000D02*
X132770000Y-147270000D01*
X130510200Y-147990200D02*
X130510200Y-147242300D01*
X124410200Y-147279800D02*
X124410200Y-147242300D01*
X125810000Y-148679600D02*
X124410200Y-147279800D01*
X125810000Y-148810000D02*
X125810000Y-148679600D01*
X132005000Y-149205000D02*
X131150000Y-148350000D01*
X131150000Y-148350000D02*
X130870000Y-148350000D01*
X125810000Y-148810000D02*
X125810000Y-149550000D01*
X130870000Y-148350000D02*
X130510200Y-147990200D01*
X136190000Y-153580000D02*
X136190000Y-154690000D01*
X137482300Y-156214800D02*
X136875200Y-156214800D01*
X136190000Y-154690000D02*
X136190000Y-155040000D01*
X132770000Y-146360000D02*
X132380000Y-145970000D01*
X127460200Y-146669800D02*
X127460200Y-147242300D01*
X132770000Y-147270000D02*
X132770000Y-146360000D01*
X127460200Y-146329800D02*
X127645000Y-146145000D01*
X127460200Y-147242300D02*
X127460200Y-146329800D01*
X127645000Y-146145000D02*
X127500000Y-146290000D01*
X127789800Y-146000200D02*
X127645000Y-146145000D01*
X127820000Y-145970000D02*
X127645000Y-146145000D01*
X128410000Y-145970000D02*
X127820000Y-145970000D01*
X132380000Y-145970000D02*
X128410000Y-145970000D01*
D21*
X122837300Y-152350800D02*
X122837300Y-152227300D01*
X124345000Y-154071000D02*
X124345000Y-153858500D01*
X124345000Y-153858500D02*
X122837300Y-152350800D01*
X122837300Y-151249800D02*
X122837300Y-152227300D01*
X125243900Y-154071000D02*
X126005200Y-154832300D01*
X124345000Y-154071000D02*
X125243900Y-154071000D01*
X133065000Y-165915000D02*
X133065000Y-166305000D01*
D20*
X133475000Y-154845000D02*
X132005000Y-153375000D01*
X132005000Y-153375000D02*
X132005000Y-153085000D01*
X135195000Y-154845000D02*
X133475000Y-154845000D01*
X132005000Y-151745000D02*
X132005000Y-153085000D01*
X129295000Y-157445000D02*
X129295000Y-158095000D01*
D22*
G36*
X138064381Y-147856308D02*
G01*
X138177631Y-147948672D01*
X138270785Y-148061275D01*
X138340290Y-148189823D01*
X138383508Y-148329437D01*
X138400001Y-148486356D01*
X138400000Y-165857772D01*
X138375018Y-166112560D01*
X138304574Y-166345881D01*
X138190153Y-166561075D01*
X138036115Y-166749945D01*
X137848320Y-166905303D01*
X137633932Y-167021223D01*
X137401107Y-167093294D01*
X137147013Y-167120000D01*
X135440000Y-167120000D01*
X135440000Y-166340000D01*
X135439294Y-166331630D01*
X135436714Y-166322174D01*
X135436185Y-166321113D01*
X135436185Y-164865000D01*
X135431455Y-164816972D01*
X135417445Y-164770789D01*
X135394695Y-164728227D01*
X135364079Y-164690921D01*
X135326773Y-164660305D01*
X135284211Y-164637555D01*
X135238028Y-164623545D01*
X135190000Y-164618815D01*
X135035000Y-164618815D01*
X135035000Y-163157858D01*
X135194373Y-162998485D01*
X135867300Y-162998485D01*
X135915328Y-162993755D01*
X135961511Y-162979745D01*
X136004073Y-162956995D01*
X136041379Y-162926379D01*
X136071995Y-162889073D01*
X136094745Y-162846511D01*
X136100000Y-162829187D01*
X136100000Y-164811315D01*
X136095000Y-164811315D01*
X136046972Y-164816045D01*
X136000789Y-164830055D01*
X135958227Y-164852805D01*
X135920921Y-164883421D01*
X135890305Y-164920727D01*
X135867555Y-164963289D01*
X135853545Y-165009472D01*
X135848815Y-165057500D01*
X135848815Y-166057500D01*
X135853545Y-166105528D01*
X135867555Y-166151711D01*
X135890305Y-166194273D01*
X135920921Y-166231579D01*
X135958227Y-166262195D01*
X136000789Y-166284945D01*
X136046972Y-166298955D01*
X136095000Y-166303685D01*
X136820779Y-166303685D01*
X136830289Y-166311490D01*
X136883101Y-166339718D01*
X136940406Y-166357101D01*
X137000000Y-166362971D01*
X137158500Y-166361500D01*
X137234500Y-166285500D01*
X137234500Y-165698000D01*
X137515500Y-165698000D01*
X137515500Y-166285500D01*
X137591500Y-166361500D01*
X137750000Y-166362971D01*
X137809594Y-166357101D01*
X137866899Y-166339718D01*
X137919711Y-166311490D01*
X137966001Y-166273501D01*
X138003990Y-166227211D01*
X138032218Y-166174399D01*
X138049601Y-166117094D01*
X138055471Y-166057500D01*
X138054000Y-165774000D01*
X137978000Y-165698000D01*
X137515500Y-165698000D01*
X137234500Y-165698000D01*
X137214500Y-165698000D01*
X137214500Y-165417000D01*
X137234500Y-165417000D01*
X137234500Y-164829500D01*
X137515500Y-164829500D01*
X137515500Y-165417000D01*
X137978000Y-165417000D01*
X138054000Y-165341000D01*
X138055471Y-165057500D01*
X138049601Y-164997906D01*
X138032218Y-164940601D01*
X138003990Y-164887789D01*
X137966001Y-164841499D01*
X137919711Y-164803510D01*
X137866899Y-164775282D01*
X137809594Y-164757899D01*
X137750000Y-164752029D01*
X137591500Y-164753500D01*
X137515500Y-164829500D01*
X137234500Y-164829500D01*
X137158500Y-164753500D01*
X137000000Y-164752029D01*
X136940406Y-164757899D01*
X136883101Y-164775282D01*
X136840000Y-164798319D01*
X136840000Y-163007579D01*
X136890401Y-163034518D01*
X136947706Y-163051901D01*
X137007300Y-163057771D01*
X137265800Y-163056300D01*
X137341800Y-162980300D01*
X137341800Y-162455300D01*
X137622800Y-162455300D01*
X137622800Y-162980300D01*
X137698800Y-163056300D01*
X137957300Y-163057771D01*
X138016894Y-163051901D01*
X138074199Y-163034518D01*
X138127011Y-163006290D01*
X138173301Y-162968301D01*
X138211290Y-162922011D01*
X138239518Y-162869199D01*
X138256901Y-162811894D01*
X138262771Y-162752300D01*
X138261300Y-162531300D01*
X138185300Y-162455300D01*
X137622800Y-162455300D01*
X137341800Y-162455300D01*
X137321800Y-162455300D01*
X137321800Y-162174300D01*
X137341800Y-162174300D01*
X137341800Y-161649300D01*
X137622800Y-161649300D01*
X137622800Y-162174300D01*
X138185300Y-162174300D01*
X138261300Y-162098300D01*
X138262771Y-161877300D01*
X138256901Y-161817706D01*
X138239518Y-161760401D01*
X138211290Y-161707589D01*
X138173301Y-161661299D01*
X138127011Y-161623310D01*
X138074199Y-161595082D01*
X138016894Y-161577699D01*
X137957300Y-161571829D01*
X137698800Y-161573300D01*
X137622800Y-161649300D01*
X137341800Y-161649300D01*
X137340999Y-161648499D01*
X137341588Y-161423485D01*
X137957300Y-161423485D01*
X138005328Y-161418755D01*
X138051511Y-161404745D01*
X138094073Y-161381995D01*
X138131379Y-161351379D01*
X138161995Y-161314073D01*
X138184745Y-161271511D01*
X138198755Y-161225328D01*
X138203485Y-161177300D01*
X138203485Y-160302300D01*
X138198755Y-160254272D01*
X138184745Y-160208089D01*
X138161995Y-160165527D01*
X138131379Y-160128221D01*
X138094073Y-160097605D01*
X138051511Y-160074855D01*
X138005328Y-160060845D01*
X137957300Y-160056115D01*
X137345168Y-160056115D01*
X137346871Y-159405300D01*
X137622800Y-159405300D01*
X137622800Y-159930300D01*
X137698800Y-160006300D01*
X137957300Y-160007771D01*
X138016894Y-160001901D01*
X138074199Y-159984518D01*
X138127011Y-159956290D01*
X138173301Y-159918301D01*
X138211290Y-159872011D01*
X138239518Y-159819199D01*
X138256901Y-159761894D01*
X138262771Y-159702300D01*
X138261300Y-159481300D01*
X138185300Y-159405300D01*
X137622800Y-159405300D01*
X137346871Y-159405300D01*
X137348980Y-158599300D01*
X137622800Y-158599300D01*
X137622800Y-159124300D01*
X138185300Y-159124300D01*
X138261300Y-159048300D01*
X138262771Y-158827300D01*
X138256901Y-158767706D01*
X138239518Y-158710401D01*
X138211290Y-158657589D01*
X138173301Y-158611299D01*
X138127011Y-158573310D01*
X138074199Y-158545082D01*
X138016894Y-158527699D01*
X137957300Y-158521829D01*
X137698800Y-158523300D01*
X137622800Y-158599300D01*
X137348980Y-158599300D01*
X137349572Y-158373485D01*
X137957300Y-158373485D01*
X138005328Y-158368755D01*
X138051511Y-158354745D01*
X138094073Y-158331995D01*
X138131379Y-158301379D01*
X138161995Y-158264073D01*
X138184745Y-158221511D01*
X138198755Y-158175328D01*
X138203485Y-158127300D01*
X138203485Y-157252300D01*
X138198755Y-157204272D01*
X138184745Y-157158089D01*
X138161995Y-157115527D01*
X138131379Y-157078221D01*
X138094073Y-157047605D01*
X138051511Y-157024855D01*
X138005328Y-157010845D01*
X138000845Y-157010403D01*
X138000957Y-156894186D01*
X138005328Y-156893755D01*
X138051511Y-156879745D01*
X138094073Y-156856995D01*
X138131379Y-156826379D01*
X138161995Y-156789073D01*
X138184745Y-156746511D01*
X138198755Y-156700328D01*
X138203485Y-156652300D01*
X138203485Y-155777300D01*
X138198755Y-155729272D01*
X138184745Y-155683089D01*
X138161995Y-155640527D01*
X138131379Y-155603221D01*
X138094073Y-155572605D01*
X138051511Y-155549855D01*
X138005328Y-155535845D01*
X138002262Y-155535543D01*
X138002470Y-155319036D01*
X138005328Y-155318755D01*
X138051511Y-155304745D01*
X138094073Y-155281995D01*
X138131379Y-155251379D01*
X138161995Y-155214073D01*
X138184745Y-155171511D01*
X138198755Y-155125328D01*
X138203485Y-155077300D01*
X138203485Y-154202300D01*
X138198755Y-154154272D01*
X138184745Y-154108089D01*
X138161995Y-154065527D01*
X138131379Y-154028221D01*
X138094073Y-153997605D01*
X138051511Y-153974855D01*
X138005328Y-153960845D01*
X138003775Y-153960692D01*
X138003887Y-153843897D01*
X138005328Y-153843755D01*
X138051511Y-153829745D01*
X138094073Y-153806995D01*
X138131379Y-153776379D01*
X138161995Y-153739073D01*
X138184745Y-153696511D01*
X138198755Y-153650328D01*
X138203485Y-153602300D01*
X138203485Y-152727300D01*
X138198755Y-152679272D01*
X138184745Y-152633089D01*
X138161995Y-152590527D01*
X138131379Y-152553221D01*
X138094073Y-152522605D01*
X138051511Y-152499855D01*
X138005328Y-152485845D01*
X138005191Y-152485832D01*
X138005400Y-152268733D01*
X138051511Y-152254745D01*
X138094073Y-152231995D01*
X138131379Y-152201379D01*
X138161995Y-152164073D01*
X138184745Y-152121511D01*
X138198755Y-152075328D01*
X138203485Y-152027300D01*
X138203485Y-151152300D01*
X138198755Y-151104272D01*
X138184745Y-151058089D01*
X138161995Y-151015527D01*
X138131379Y-150978221D01*
X138094073Y-150947605D01*
X138051511Y-150924855D01*
X138006704Y-150911262D01*
X138006817Y-150793303D01*
X138051511Y-150779745D01*
X138094073Y-150756995D01*
X138131379Y-150726379D01*
X138161995Y-150689073D01*
X138184745Y-150646511D01*
X138198755Y-150600328D01*
X138203485Y-150552300D01*
X138203485Y-149677300D01*
X138198755Y-149629272D01*
X138184745Y-149583089D01*
X138161995Y-149540527D01*
X138131379Y-149503221D01*
X138094073Y-149472605D01*
X138051511Y-149449855D01*
X138008120Y-149436692D01*
X138008331Y-149217844D01*
X138051511Y-149204745D01*
X138094073Y-149181995D01*
X138131379Y-149151379D01*
X138161995Y-149114073D01*
X138184745Y-149071511D01*
X138198755Y-149025328D01*
X138203485Y-148977300D01*
X138203485Y-148102300D01*
X138198755Y-148054272D01*
X138184745Y-148008089D01*
X138161995Y-147965527D01*
X138131379Y-147928221D01*
X138094073Y-147897605D01*
X138051511Y-147874855D01*
X138009633Y-147862151D01*
X138009667Y-147827216D01*
X138064381Y-147856308D01*
X138064381Y-147856308D01*
G37*
X138064381Y-147856308D02*
X138177631Y-147948672D01*
X138270785Y-148061275D01*
X138340290Y-148189823D01*
X138383508Y-148329437D01*
X138400001Y-148486356D01*
X138400000Y-165857772D01*
X138375018Y-166112560D01*
X138304574Y-166345881D01*
X138190153Y-166561075D01*
X138036115Y-166749945D01*
X137848320Y-166905303D01*
X137633932Y-167021223D01*
X137401107Y-167093294D01*
X137147013Y-167120000D01*
X135440000Y-167120000D01*
X135440000Y-166340000D01*
X135439294Y-166331630D01*
X135436714Y-166322174D01*
X135436185Y-166321113D01*
X135436185Y-164865000D01*
X135431455Y-164816972D01*
X135417445Y-164770789D01*
X135394695Y-164728227D01*
X135364079Y-164690921D01*
X135326773Y-164660305D01*
X135284211Y-164637555D01*
X135238028Y-164623545D01*
X135190000Y-164618815D01*
X135035000Y-164618815D01*
X135035000Y-163157858D01*
X135194373Y-162998485D01*
X135867300Y-162998485D01*
X135915328Y-162993755D01*
X135961511Y-162979745D01*
X136004073Y-162956995D01*
X136041379Y-162926379D01*
X136071995Y-162889073D01*
X136094745Y-162846511D01*
X136100000Y-162829187D01*
X136100000Y-164811315D01*
X136095000Y-164811315D01*
X136046972Y-164816045D01*
X136000789Y-164830055D01*
X135958227Y-164852805D01*
X135920921Y-164883421D01*
X135890305Y-164920727D01*
X135867555Y-164963289D01*
X135853545Y-165009472D01*
X135848815Y-165057500D01*
X135848815Y-166057500D01*
X135853545Y-166105528D01*
X135867555Y-166151711D01*
X135890305Y-166194273D01*
X135920921Y-166231579D01*
X135958227Y-166262195D01*
X136000789Y-166284945D01*
X136046972Y-166298955D01*
X136095000Y-166303685D01*
X136820779Y-166303685D01*
X136830289Y-166311490D01*
X136883101Y-166339718D01*
X136940406Y-166357101D01*
X137000000Y-166362971D01*
X137158500Y-166361500D01*
X137234500Y-166285500D01*
X137234500Y-165698000D01*
X137515500Y-165698000D01*
X137515500Y-166285500D01*
X137591500Y-166361500D01*
X137750000Y-166362971D01*
X137809594Y-166357101D01*
X137866899Y-166339718D01*
X137919711Y-166311490D01*
X137966001Y-166273501D01*
X138003990Y-166227211D01*
X138032218Y-166174399D01*
X138049601Y-166117094D01*
X138055471Y-166057500D01*
X138054000Y-165774000D01*
X137978000Y-165698000D01*
X137515500Y-165698000D01*
X137234500Y-165698000D01*
X137214500Y-165698000D01*
X137214500Y-165417000D01*
X137234500Y-165417000D01*
X137234500Y-164829500D01*
X137515500Y-164829500D01*
X137515500Y-165417000D01*
X137978000Y-165417000D01*
X138054000Y-165341000D01*
X138055471Y-165057500D01*
X138049601Y-164997906D01*
X138032218Y-164940601D01*
X138003990Y-164887789D01*
X137966001Y-164841499D01*
X137919711Y-164803510D01*
X137866899Y-164775282D01*
X137809594Y-164757899D01*
X137750000Y-164752029D01*
X137591500Y-164753500D01*
X137515500Y-164829500D01*
X137234500Y-164829500D01*
X137158500Y-164753500D01*
X137000000Y-164752029D01*
X136940406Y-164757899D01*
X136883101Y-164775282D01*
X136840000Y-164798319D01*
X136840000Y-163007579D01*
X136890401Y-163034518D01*
X136947706Y-163051901D01*
X137007300Y-163057771D01*
X137265800Y-163056300D01*
X137341800Y-162980300D01*
X137341800Y-162455300D01*
X137622800Y-162455300D01*
X137622800Y-162980300D01*
X137698800Y-163056300D01*
X137957300Y-163057771D01*
X138016894Y-163051901D01*
X138074199Y-163034518D01*
X138127011Y-163006290D01*
X138173301Y-162968301D01*
X138211290Y-162922011D01*
X138239518Y-162869199D01*
X138256901Y-162811894D01*
X138262771Y-162752300D01*
X138261300Y-162531300D01*
X138185300Y-162455300D01*
X137622800Y-162455300D01*
X137341800Y-162455300D01*
X137321800Y-162455300D01*
X137321800Y-162174300D01*
X137341800Y-162174300D01*
X137341800Y-161649300D01*
X137622800Y-161649300D01*
X137622800Y-162174300D01*
X138185300Y-162174300D01*
X138261300Y-162098300D01*
X138262771Y-161877300D01*
X138256901Y-161817706D01*
X138239518Y-161760401D01*
X138211290Y-161707589D01*
X138173301Y-161661299D01*
X138127011Y-161623310D01*
X138074199Y-161595082D01*
X138016894Y-161577699D01*
X137957300Y-161571829D01*
X137698800Y-161573300D01*
X137622800Y-161649300D01*
X137341800Y-161649300D01*
X137340999Y-161648499D01*
X137341588Y-161423485D01*
X137957300Y-161423485D01*
X138005328Y-161418755D01*
X138051511Y-161404745D01*
X138094073Y-161381995D01*
X138131379Y-161351379D01*
X138161995Y-161314073D01*
X138184745Y-161271511D01*
X138198755Y-161225328D01*
X138203485Y-161177300D01*
X138203485Y-160302300D01*
X138198755Y-160254272D01*
X138184745Y-160208089D01*
X138161995Y-160165527D01*
X138131379Y-160128221D01*
X138094073Y-160097605D01*
X138051511Y-160074855D01*
X138005328Y-160060845D01*
X137957300Y-160056115D01*
X137345168Y-160056115D01*
X137346871Y-159405300D01*
X137622800Y-159405300D01*
X137622800Y-159930300D01*
X137698800Y-160006300D01*
X137957300Y-160007771D01*
X138016894Y-160001901D01*
X138074199Y-159984518D01*
X138127011Y-159956290D01*
X138173301Y-159918301D01*
X138211290Y-159872011D01*
X138239518Y-159819199D01*
X138256901Y-159761894D01*
X138262771Y-159702300D01*
X138261300Y-159481300D01*
X138185300Y-159405300D01*
X137622800Y-159405300D01*
X137346871Y-159405300D01*
X137348980Y-158599300D01*
X137622800Y-158599300D01*
X137622800Y-159124300D01*
X138185300Y-159124300D01*
X138261300Y-159048300D01*
X138262771Y-158827300D01*
X138256901Y-158767706D01*
X138239518Y-158710401D01*
X138211290Y-158657589D01*
X138173301Y-158611299D01*
X138127011Y-158573310D01*
X138074199Y-158545082D01*
X138016894Y-158527699D01*
X137957300Y-158521829D01*
X137698800Y-158523300D01*
X137622800Y-158599300D01*
X137348980Y-158599300D01*
X137349572Y-158373485D01*
X137957300Y-158373485D01*
X138005328Y-158368755D01*
X138051511Y-158354745D01*
X138094073Y-158331995D01*
X138131379Y-158301379D01*
X138161995Y-158264073D01*
X138184745Y-158221511D01*
X138198755Y-158175328D01*
X138203485Y-158127300D01*
X138203485Y-157252300D01*
X138198755Y-157204272D01*
X138184745Y-157158089D01*
X138161995Y-157115527D01*
X138131379Y-157078221D01*
X138094073Y-157047605D01*
X138051511Y-157024855D01*
X138005328Y-157010845D01*
X138000845Y-157010403D01*
X138000957Y-156894186D01*
X138005328Y-156893755D01*
X138051511Y-156879745D01*
X138094073Y-156856995D01*
X138131379Y-156826379D01*
X138161995Y-156789073D01*
X138184745Y-156746511D01*
X138198755Y-156700328D01*
X138203485Y-156652300D01*
X138203485Y-155777300D01*
X138198755Y-155729272D01*
X138184745Y-155683089D01*
X138161995Y-155640527D01*
X138131379Y-155603221D01*
X138094073Y-155572605D01*
X138051511Y-155549855D01*
X138005328Y-155535845D01*
X138002262Y-155535543D01*
X138002470Y-155319036D01*
X138005328Y-155318755D01*
X138051511Y-155304745D01*
X138094073Y-155281995D01*
X138131379Y-155251379D01*
X138161995Y-155214073D01*
X138184745Y-155171511D01*
X138198755Y-155125328D01*
X138203485Y-155077300D01*
X138203485Y-154202300D01*
X138198755Y-154154272D01*
X138184745Y-154108089D01*
X138161995Y-154065527D01*
X138131379Y-154028221D01*
X138094073Y-153997605D01*
X138051511Y-153974855D01*
X138005328Y-153960845D01*
X138003775Y-153960692D01*
X138003887Y-153843897D01*
X138005328Y-153843755D01*
X138051511Y-153829745D01*
X138094073Y-153806995D01*
X138131379Y-153776379D01*
X138161995Y-153739073D01*
X138184745Y-153696511D01*
X138198755Y-153650328D01*
X138203485Y-153602300D01*
X138203485Y-152727300D01*
X138198755Y-152679272D01*
X138184745Y-152633089D01*
X138161995Y-152590527D01*
X138131379Y-152553221D01*
X138094073Y-152522605D01*
X138051511Y-152499855D01*
X138005328Y-152485845D01*
X138005191Y-152485832D01*
X138005400Y-152268733D01*
X138051511Y-152254745D01*
X138094073Y-152231995D01*
X138131379Y-152201379D01*
X138161995Y-152164073D01*
X138184745Y-152121511D01*
X138198755Y-152075328D01*
X138203485Y-152027300D01*
X138203485Y-151152300D01*
X138198755Y-151104272D01*
X138184745Y-151058089D01*
X138161995Y-151015527D01*
X138131379Y-150978221D01*
X138094073Y-150947605D01*
X138051511Y-150924855D01*
X138006704Y-150911262D01*
X138006817Y-150793303D01*
X138051511Y-150779745D01*
X138094073Y-150756995D01*
X138131379Y-150726379D01*
X138161995Y-150689073D01*
X138184745Y-150646511D01*
X138198755Y-150600328D01*
X138203485Y-150552300D01*
X138203485Y-149677300D01*
X138198755Y-149629272D01*
X138184745Y-149583089D01*
X138161995Y-149540527D01*
X138131379Y-149503221D01*
X138094073Y-149472605D01*
X138051511Y-149449855D01*
X138008120Y-149436692D01*
X138008331Y-149217844D01*
X138051511Y-149204745D01*
X138094073Y-149181995D01*
X138131379Y-149151379D01*
X138161995Y-149114073D01*
X138184745Y-149071511D01*
X138198755Y-149025328D01*
X138203485Y-148977300D01*
X138203485Y-148102300D01*
X138198755Y-148054272D01*
X138184745Y-148008089D01*
X138161995Y-147965527D01*
X138131379Y-147928221D01*
X138094073Y-147897605D01*
X138051511Y-147874855D01*
X138009633Y-147862151D01*
X138009667Y-147827216D01*
X138064381Y-147856308D01*
G36*
X133560001Y-156383260D02*
G01*
X133560000Y-158260000D01*
X130047500Y-158260000D01*
X130023000Y-158235500D01*
X129435500Y-158235500D01*
X129435500Y-158255500D01*
X129154500Y-158255500D01*
X129154500Y-158235500D01*
X129134500Y-158235500D01*
X129134500Y-157954500D01*
X129154500Y-157954500D01*
X129154500Y-157585500D01*
X129435500Y-157585500D01*
X129435500Y-157954500D01*
X130023000Y-157954500D01*
X130099000Y-157878500D01*
X130093823Y-157831620D01*
X130075717Y-157774540D01*
X130073216Y-157770000D01*
X130075717Y-157765460D01*
X130093823Y-157708380D01*
X130099000Y-157661500D01*
X130023000Y-157585500D01*
X129435500Y-157585500D01*
X129154500Y-157585500D01*
X129134500Y-157585500D01*
X129134500Y-157304500D01*
X129154500Y-157304500D01*
X129154500Y-157284500D01*
X129435500Y-157284500D01*
X129435500Y-157304500D01*
X130023000Y-157304500D01*
X130099000Y-157228500D01*
X130093823Y-157181620D01*
X130075717Y-157124540D01*
X130046822Y-157072089D01*
X130032719Y-157055342D01*
X130036455Y-157043028D01*
X130041185Y-156995000D01*
X130041185Y-156595000D01*
X130036455Y-156546972D01*
X130022445Y-156500789D01*
X130005988Y-156470000D01*
X130022445Y-156439211D01*
X130036455Y-156393028D01*
X130041185Y-156345000D01*
X130041185Y-155945000D01*
X130036455Y-155896972D01*
X130022445Y-155850789D01*
X130005988Y-155820000D01*
X130022445Y-155789211D01*
X130036455Y-155743028D01*
X130041185Y-155695000D01*
X130041185Y-155295000D01*
X130036455Y-155246972D01*
X130026756Y-155215000D01*
X132391742Y-155215000D01*
X133560001Y-156383260D01*
X133560001Y-156383260D01*
G37*
X133560001Y-156383260D02*
X133560000Y-158260000D01*
X130047500Y-158260000D01*
X130023000Y-158235500D01*
X129435500Y-158235500D01*
X129435500Y-158255500D01*
X129154500Y-158255500D01*
X129154500Y-158235500D01*
X129134500Y-158235500D01*
X129134500Y-157954500D01*
X129154500Y-157954500D01*
X129154500Y-157585500D01*
X129435500Y-157585500D01*
X129435500Y-157954500D01*
X130023000Y-157954500D01*
X130099000Y-157878500D01*
X130093823Y-157831620D01*
X130075717Y-157774540D01*
X130073216Y-157770000D01*
X130075717Y-157765460D01*
X130093823Y-157708380D01*
X130099000Y-157661500D01*
X130023000Y-157585500D01*
X129435500Y-157585500D01*
X129154500Y-157585500D01*
X129134500Y-157585500D01*
X129134500Y-157304500D01*
X129154500Y-157304500D01*
X129154500Y-157284500D01*
X129435500Y-157284500D01*
X129435500Y-157304500D01*
X130023000Y-157304500D01*
X130099000Y-157228500D01*
X130093823Y-157181620D01*
X130075717Y-157124540D01*
X130046822Y-157072089D01*
X130032719Y-157055342D01*
X130036455Y-157043028D01*
X130041185Y-156995000D01*
X130041185Y-156595000D01*
X130036455Y-156546972D01*
X130022445Y-156500789D01*
X130005988Y-156470000D01*
X130022445Y-156439211D01*
X130036455Y-156393028D01*
X130041185Y-156345000D01*
X130041185Y-155945000D01*
X130036455Y-155896972D01*
X130022445Y-155850789D01*
X130005988Y-155820000D01*
X130022445Y-155789211D01*
X130036455Y-155743028D01*
X130041185Y-155695000D01*
X130041185Y-155295000D01*
X130036455Y-155246972D01*
X130026756Y-155215000D01*
X132391742Y-155215000D01*
X133560001Y-156383260D01*
G36*
X127211420Y-146055322D02*
G01*
X127197306Y-146066905D01*
X127185723Y-146081019D01*
X127185720Y-146081022D01*
X127151068Y-146123245D01*
X127116711Y-146187523D01*
X127107051Y-146219369D01*
X127095555Y-146257267D01*
X127091151Y-146301984D01*
X127088411Y-146329800D01*
X127090201Y-146347973D01*
X127090201Y-146521115D01*
X127022700Y-146521115D01*
X126974672Y-146525845D01*
X126928489Y-146539855D01*
X126885927Y-146562605D01*
X126848621Y-146593221D01*
X126818005Y-146630527D01*
X126795255Y-146673089D01*
X126781245Y-146719272D01*
X126776515Y-146767300D01*
X126776515Y-147717300D01*
X126781245Y-147765328D01*
X126795255Y-147811511D01*
X126818005Y-147854073D01*
X126848621Y-147891379D01*
X126885927Y-147921995D01*
X126928489Y-147944745D01*
X126974672Y-147958755D01*
X127022700Y-147963485D01*
X127897700Y-147963485D01*
X127945728Y-147958755D01*
X127991911Y-147944745D01*
X128034473Y-147921995D01*
X128071779Y-147891379D01*
X128102395Y-147854073D01*
X128125145Y-147811511D01*
X128139155Y-147765328D01*
X128143885Y-147717300D01*
X128192229Y-147717300D01*
X128198099Y-147776894D01*
X128215482Y-147834199D01*
X128243710Y-147887011D01*
X128281699Y-147933301D01*
X128327989Y-147971290D01*
X128380801Y-147999518D01*
X128438106Y-148016901D01*
X128497700Y-148022771D01*
X128718700Y-148021300D01*
X128794700Y-147945300D01*
X128794700Y-147382800D01*
X129075700Y-147382800D01*
X129075700Y-147945300D01*
X129151700Y-148021300D01*
X129372700Y-148022771D01*
X129432294Y-148016901D01*
X129489599Y-147999518D01*
X129542411Y-147971290D01*
X129588701Y-147933301D01*
X129626690Y-147887011D01*
X129654918Y-147834199D01*
X129672301Y-147776894D01*
X129678171Y-147717300D01*
X129676700Y-147458800D01*
X129600700Y-147382800D01*
X129075700Y-147382800D01*
X128794700Y-147382800D01*
X128269700Y-147382800D01*
X128193700Y-147458800D01*
X128192229Y-147717300D01*
X128143885Y-147717300D01*
X128143885Y-146767300D01*
X128192229Y-146767300D01*
X128193700Y-147025800D01*
X128269700Y-147101800D01*
X128794700Y-147101800D01*
X128794700Y-146539300D01*
X129075700Y-146539300D01*
X129075700Y-147101800D01*
X129600700Y-147101800D01*
X129676700Y-147025800D01*
X129678171Y-146767300D01*
X129672301Y-146707706D01*
X129654918Y-146650401D01*
X129626690Y-146597589D01*
X129588701Y-146551299D01*
X129542411Y-146513310D01*
X129489599Y-146485082D01*
X129432294Y-146467699D01*
X129372700Y-146461829D01*
X129151700Y-146463300D01*
X129075700Y-146539300D01*
X128794700Y-146539300D01*
X128718700Y-146463300D01*
X128497700Y-146461829D01*
X128438106Y-146467699D01*
X128380801Y-146485082D01*
X128327989Y-146513310D01*
X128281699Y-146551299D01*
X128243710Y-146597589D01*
X128215482Y-146650401D01*
X128198099Y-146707706D01*
X128192229Y-146767300D01*
X128143885Y-146767300D01*
X128139155Y-146719272D01*
X128125145Y-146673089D01*
X128102395Y-146630527D01*
X128071779Y-146593221D01*
X128034473Y-146562605D01*
X127991911Y-146539855D01*
X127945728Y-146525845D01*
X127897700Y-146521115D01*
X127830200Y-146521115D01*
X127830200Y-146483058D01*
X127973258Y-146340000D01*
X132226742Y-146340000D01*
X132320871Y-146434129D01*
X132319150Y-146462518D01*
X132201700Y-146463300D01*
X132125700Y-146539300D01*
X132125700Y-147101800D01*
X132145700Y-147101800D01*
X132145700Y-147382800D01*
X132125700Y-147382800D01*
X132125700Y-147402800D01*
X131844700Y-147402800D01*
X131844700Y-147382800D01*
X131319700Y-147382800D01*
X131243700Y-147458800D01*
X131243295Y-147530000D01*
X131193885Y-147530000D01*
X131193885Y-146767300D01*
X131242229Y-146767300D01*
X131243700Y-147025800D01*
X131319700Y-147101800D01*
X131844700Y-147101800D01*
X131844700Y-146539300D01*
X131768700Y-146463300D01*
X131547700Y-146461829D01*
X131488106Y-146467699D01*
X131430801Y-146485082D01*
X131377989Y-146513310D01*
X131331699Y-146551299D01*
X131293710Y-146597589D01*
X131265482Y-146650401D01*
X131248099Y-146707706D01*
X131242229Y-146767300D01*
X131193885Y-146767300D01*
X131189155Y-146719272D01*
X131175145Y-146673089D01*
X131152395Y-146630527D01*
X131121779Y-146593221D01*
X131084473Y-146562605D01*
X131041911Y-146539855D01*
X130995728Y-146525845D01*
X130947700Y-146521115D01*
X130072700Y-146521115D01*
X130024672Y-146525845D01*
X129978489Y-146539855D01*
X129935927Y-146562605D01*
X129898621Y-146593221D01*
X129868005Y-146630527D01*
X129845255Y-146673089D01*
X129831245Y-146719272D01*
X129826515Y-146767300D01*
X129826515Y-147717300D01*
X129831245Y-147765328D01*
X129845255Y-147811511D01*
X129868005Y-147854073D01*
X129898621Y-147891379D01*
X129935927Y-147921995D01*
X129978489Y-147944745D01*
X130024672Y-147958755D01*
X130030000Y-147959280D01*
X130030000Y-148199483D01*
X130024596Y-148195751D01*
X129816949Y-148105972D01*
X129782953Y-148095666D01*
X129605500Y-148136195D01*
X129605500Y-149064500D01*
X129625500Y-149064500D01*
X129625500Y-149345500D01*
X129605500Y-149345500D01*
X129605500Y-149365500D01*
X129324500Y-149365500D01*
X129324500Y-149345500D01*
X128395578Y-149345500D01*
X128355659Y-149522954D01*
X128439004Y-149733266D01*
X128561778Y-149923277D01*
X128719262Y-150085685D01*
X128754467Y-150110000D01*
X126893259Y-150110000D01*
X126702463Y-149919205D01*
X126707691Y-149921370D01*
X126851624Y-149950000D01*
X126998376Y-149950000D01*
X127142309Y-149921370D01*
X127277890Y-149865211D01*
X127399910Y-149783679D01*
X127503679Y-149679910D01*
X127585211Y-149557890D01*
X127641370Y-149422309D01*
X127670000Y-149278376D01*
X127670000Y-149131624D01*
X127641370Y-148987691D01*
X127599682Y-148887046D01*
X128355659Y-148887046D01*
X128395578Y-149064500D01*
X129324500Y-149064500D01*
X129324500Y-148136195D01*
X129147047Y-148095666D01*
X129113051Y-148105972D01*
X128905404Y-148195751D01*
X128719262Y-148324315D01*
X128561778Y-148486723D01*
X128439004Y-148676734D01*
X128355659Y-148887046D01*
X127599682Y-148887046D01*
X127585211Y-148852110D01*
X127503679Y-148730090D01*
X127399910Y-148626321D01*
X127277890Y-148544789D01*
X127142309Y-148488630D01*
X126998376Y-148460000D01*
X126851624Y-148460000D01*
X126707691Y-148488630D01*
X126572110Y-148544789D01*
X126450090Y-148626321D01*
X126346321Y-148730090D01*
X126264789Y-148852110D01*
X126208630Y-148987691D01*
X126180000Y-149131624D01*
X126180000Y-148697763D01*
X126181789Y-148679599D01*
X126180000Y-148661436D01*
X126180000Y-148661427D01*
X126174646Y-148607068D01*
X126153489Y-148537322D01*
X126151926Y-148534397D01*
X126119132Y-148473044D01*
X126084480Y-148430821D01*
X126084478Y-148430819D01*
X126072895Y-148416705D01*
X126058781Y-148405122D01*
X125671829Y-148018171D01*
X125744700Y-147945300D01*
X125744700Y-147382800D01*
X126025700Y-147382800D01*
X126025700Y-147945300D01*
X126101700Y-148021300D01*
X126322700Y-148022771D01*
X126382294Y-148016901D01*
X126439599Y-147999518D01*
X126492411Y-147971290D01*
X126538701Y-147933301D01*
X126576690Y-147887011D01*
X126604918Y-147834199D01*
X126622301Y-147776894D01*
X126628171Y-147717300D01*
X126626700Y-147458800D01*
X126550700Y-147382800D01*
X126025700Y-147382800D01*
X125744700Y-147382800D01*
X125219700Y-147382800D01*
X125143700Y-147458800D01*
X125143523Y-147489865D01*
X125093885Y-147440227D01*
X125093885Y-146767300D01*
X125142229Y-146767300D01*
X125143700Y-147025800D01*
X125219700Y-147101800D01*
X125744700Y-147101800D01*
X125744700Y-146539300D01*
X126025700Y-146539300D01*
X126025700Y-147101800D01*
X126550700Y-147101800D01*
X126626700Y-147025800D01*
X126628171Y-146767300D01*
X126622301Y-146707706D01*
X126604918Y-146650401D01*
X126576690Y-146597589D01*
X126538701Y-146551299D01*
X126492411Y-146513310D01*
X126439599Y-146485082D01*
X126382294Y-146467699D01*
X126322700Y-146461829D01*
X126101700Y-146463300D01*
X126025700Y-146539300D01*
X125744700Y-146539300D01*
X125668700Y-146463300D01*
X125447700Y-146461829D01*
X125388106Y-146467699D01*
X125330801Y-146485082D01*
X125277989Y-146513310D01*
X125231699Y-146551299D01*
X125193710Y-146597589D01*
X125165482Y-146650401D01*
X125148099Y-146707706D01*
X125142229Y-146767300D01*
X125093885Y-146767300D01*
X125089155Y-146719272D01*
X125075145Y-146673089D01*
X125052395Y-146630527D01*
X125021779Y-146593221D01*
X124984473Y-146562605D01*
X124941911Y-146539855D01*
X124895728Y-146525845D01*
X124847700Y-146521115D01*
X123972700Y-146521115D01*
X123924672Y-146525845D01*
X123878489Y-146539855D01*
X123835927Y-146562605D01*
X123798621Y-146593221D01*
X123768005Y-146630527D01*
X123745255Y-146673089D01*
X123731245Y-146719272D01*
X123726515Y-146767300D01*
X123726515Y-147717300D01*
X123731245Y-147765328D01*
X123745255Y-147811511D01*
X123768005Y-147854073D01*
X123798621Y-147891379D01*
X123835927Y-147921995D01*
X123878489Y-147944745D01*
X123924672Y-147958755D01*
X123930000Y-147959280D01*
X123930000Y-148206595D01*
X123773707Y-148290136D01*
X123606972Y-148426972D01*
X123470136Y-148593707D01*
X123381250Y-148760000D01*
X123328960Y-148760000D01*
X123307100Y-148757847D01*
X123219865Y-148766439D01*
X123135981Y-148791884D01*
X123115756Y-148802695D01*
X123058675Y-148833206D01*
X122990915Y-148888815D01*
X122976979Y-148905796D01*
X122891660Y-148991115D01*
X122562051Y-148991115D01*
X122561370Y-148987691D01*
X122505211Y-148852110D01*
X122423679Y-148730090D01*
X122319910Y-148626321D01*
X122197890Y-148544789D01*
X122062309Y-148488630D01*
X121918376Y-148460000D01*
X121771624Y-148460000D01*
X121627691Y-148488630D01*
X121492110Y-148544789D01*
X121370090Y-148626321D01*
X121266321Y-148730090D01*
X121184789Y-148852110D01*
X121128630Y-148987691D01*
X121100000Y-149131624D01*
X121100000Y-149278376D01*
X121128630Y-149422309D01*
X121184789Y-149557890D01*
X121266321Y-149679910D01*
X121370090Y-149783679D01*
X121492110Y-149865211D01*
X121627691Y-149921370D01*
X121771624Y-149950000D01*
X121918376Y-149950000D01*
X122062309Y-149921370D01*
X122116115Y-149899083D01*
X122116115Y-150112300D01*
X122120845Y-150160328D01*
X122134855Y-150206511D01*
X122157605Y-150249073D01*
X122188221Y-150286379D01*
X122225527Y-150316995D01*
X122268089Y-150339745D01*
X122314272Y-150353755D01*
X122320000Y-150354319D01*
X122320000Y-150570281D01*
X122314272Y-150570845D01*
X122268089Y-150584855D01*
X122225527Y-150607605D01*
X122188221Y-150638221D01*
X122157605Y-150675527D01*
X122134855Y-150718089D01*
X122120845Y-150764272D01*
X122116115Y-150812300D01*
X122116115Y-151050917D01*
X122062309Y-151028630D01*
X121918376Y-151000000D01*
X121771624Y-151000000D01*
X121627691Y-151028630D01*
X121492110Y-151084789D01*
X121370090Y-151166321D01*
X121266321Y-151270090D01*
X121184789Y-151392110D01*
X121128630Y-151527691D01*
X121100000Y-151671624D01*
X121100000Y-151818376D01*
X121128630Y-151962309D01*
X121184789Y-152097890D01*
X121266321Y-152219910D01*
X121370090Y-152323679D01*
X121492110Y-152405211D01*
X121627691Y-152461370D01*
X121771624Y-152490000D01*
X121918376Y-152490000D01*
X122062309Y-152461370D01*
X122197890Y-152405211D01*
X122319910Y-152323679D01*
X122392300Y-152251289D01*
X122392300Y-152328940D01*
X122390147Y-152350800D01*
X122392300Y-152372659D01*
X122398739Y-152438034D01*
X122424184Y-152521917D01*
X122465506Y-152599224D01*
X122521115Y-152666985D01*
X122538101Y-152680925D01*
X122922892Y-153065717D01*
X122686500Y-153067000D01*
X122610500Y-153143000D01*
X122610500Y-153930500D01*
X122630500Y-153930500D01*
X122630500Y-154211500D01*
X122610500Y-154211500D01*
X122610500Y-154231500D01*
X122329500Y-154231500D01*
X122329500Y-154211500D01*
X121754500Y-154211500D01*
X121678500Y-154287500D01*
X121677029Y-154771000D01*
X121682899Y-154830594D01*
X121697886Y-154880000D01*
X121042229Y-154880000D01*
X120884557Y-154864540D01*
X120744654Y-154822301D01*
X120615617Y-154753691D01*
X120502371Y-154661330D01*
X120409215Y-154548724D01*
X120339709Y-154420175D01*
X120296492Y-154280563D01*
X120280000Y-154123654D01*
X120280000Y-153371000D01*
X121677029Y-153371000D01*
X121678500Y-153854500D01*
X121754500Y-153930500D01*
X122329500Y-153930500D01*
X122329500Y-153143000D01*
X122253500Y-153067000D01*
X121982500Y-153065529D01*
X121922906Y-153071399D01*
X121865601Y-153088782D01*
X121812789Y-153117010D01*
X121766499Y-153154999D01*
X121728510Y-153201289D01*
X121700282Y-153254101D01*
X121682899Y-153311406D01*
X121677029Y-153371000D01*
X120280000Y-153371000D01*
X120280000Y-148492229D01*
X120295460Y-148334557D01*
X120337699Y-148194654D01*
X120406308Y-148065619D01*
X120498672Y-147952369D01*
X120611275Y-147859215D01*
X120739823Y-147789710D01*
X120879437Y-147746492D01*
X121036541Y-147729979D01*
X121037840Y-147729975D01*
X121048716Y-147728871D01*
X121059639Y-147728947D01*
X121063114Y-147728606D01*
X121170680Y-147717300D01*
X122092229Y-147717300D01*
X122098099Y-147776894D01*
X122115482Y-147834199D01*
X122143710Y-147887011D01*
X122181699Y-147933301D01*
X122227989Y-147971290D01*
X122280801Y-147999518D01*
X122338106Y-148016901D01*
X122397700Y-148022771D01*
X122618700Y-148021300D01*
X122694700Y-147945300D01*
X122694700Y-147382800D01*
X122975700Y-147382800D01*
X122975700Y-147945300D01*
X123051700Y-148021300D01*
X123272700Y-148022771D01*
X123332294Y-148016901D01*
X123389599Y-147999518D01*
X123442411Y-147971290D01*
X123488701Y-147933301D01*
X123526690Y-147887011D01*
X123554918Y-147834199D01*
X123572301Y-147776894D01*
X123578171Y-147717300D01*
X123576700Y-147458800D01*
X123500700Y-147382800D01*
X122975700Y-147382800D01*
X122694700Y-147382800D01*
X122169700Y-147382800D01*
X122093700Y-147458800D01*
X122092229Y-147717300D01*
X121170680Y-147717300D01*
X121257211Y-147708205D01*
X121279403Y-147703650D01*
X121301663Y-147699404D01*
X121305003Y-147698396D01*
X121305009Y-147698394D01*
X121491443Y-147640683D01*
X121512307Y-147631912D01*
X121533339Y-147623415D01*
X121536422Y-147621775D01*
X121708098Y-147528950D01*
X121726861Y-147516295D01*
X121745844Y-147503873D01*
X121748542Y-147501672D01*
X121748549Y-147501667D01*
X121748555Y-147501661D01*
X121898927Y-147377262D01*
X121914868Y-147361210D01*
X121931082Y-147345332D01*
X121933302Y-147342647D01*
X121933308Y-147342641D01*
X121933312Y-147342634D01*
X122056657Y-147191399D01*
X122069181Y-147172550D01*
X122081998Y-147153831D01*
X122083658Y-147150760D01*
X122130522Y-147062622D01*
X122169700Y-147101800D01*
X122694700Y-147101800D01*
X122694700Y-146539300D01*
X122975700Y-146539300D01*
X122975700Y-147101800D01*
X123500700Y-147101800D01*
X123576700Y-147025800D01*
X123578171Y-146767300D01*
X123572301Y-146707706D01*
X123554918Y-146650401D01*
X123526690Y-146597589D01*
X123488701Y-146551299D01*
X123442411Y-146513310D01*
X123389599Y-146485082D01*
X123332294Y-146467699D01*
X123272700Y-146461829D01*
X123051700Y-146463300D01*
X122975700Y-146539300D01*
X122694700Y-146539300D01*
X122618700Y-146463300D01*
X122397700Y-146461829D01*
X122338106Y-146467699D01*
X122280801Y-146485082D01*
X122280695Y-146485139D01*
X122295460Y-146334557D01*
X122337699Y-146194654D01*
X122406308Y-146065619D01*
X122498672Y-145952369D01*
X122611275Y-145859215D01*
X122739823Y-145789710D01*
X122879437Y-145746492D01*
X123036346Y-145730000D01*
X127536742Y-145730000D01*
X127211420Y-146055322D01*
X127211420Y-146055322D01*
G37*
X127211420Y-146055322D02*
X127197306Y-146066905D01*
X127185723Y-146081019D01*
X127185720Y-146081022D01*
X127151068Y-146123245D01*
X127116711Y-146187523D01*
X127107051Y-146219369D01*
X127095555Y-146257267D01*
X127091151Y-146301984D01*
X127088411Y-146329800D01*
X127090201Y-146347973D01*
X127090201Y-146521115D01*
X127022700Y-146521115D01*
X126974672Y-146525845D01*
X126928489Y-146539855D01*
X126885927Y-146562605D01*
X126848621Y-146593221D01*
X126818005Y-146630527D01*
X126795255Y-146673089D01*
X126781245Y-146719272D01*
X126776515Y-146767300D01*
X126776515Y-147717300D01*
X126781245Y-147765328D01*
X126795255Y-147811511D01*
X126818005Y-147854073D01*
X126848621Y-147891379D01*
X126885927Y-147921995D01*
X126928489Y-147944745D01*
X126974672Y-147958755D01*
X127022700Y-147963485D01*
X127897700Y-147963485D01*
X127945728Y-147958755D01*
X127991911Y-147944745D01*
X128034473Y-147921995D01*
X128071779Y-147891379D01*
X128102395Y-147854073D01*
X128125145Y-147811511D01*
X128139155Y-147765328D01*
X128143885Y-147717300D01*
X128192229Y-147717300D01*
X128198099Y-147776894D01*
X128215482Y-147834199D01*
X128243710Y-147887011D01*
X128281699Y-147933301D01*
X128327989Y-147971290D01*
X128380801Y-147999518D01*
X128438106Y-148016901D01*
X128497700Y-148022771D01*
X128718700Y-148021300D01*
X128794700Y-147945300D01*
X128794700Y-147382800D01*
X129075700Y-147382800D01*
X129075700Y-147945300D01*
X129151700Y-148021300D01*
X129372700Y-148022771D01*
X129432294Y-148016901D01*
X129489599Y-147999518D01*
X129542411Y-147971290D01*
X129588701Y-147933301D01*
X129626690Y-147887011D01*
X129654918Y-147834199D01*
X129672301Y-147776894D01*
X129678171Y-147717300D01*
X129676700Y-147458800D01*
X129600700Y-147382800D01*
X129075700Y-147382800D01*
X128794700Y-147382800D01*
X128269700Y-147382800D01*
X128193700Y-147458800D01*
X128192229Y-147717300D01*
X128143885Y-147717300D01*
X128143885Y-146767300D01*
X128192229Y-146767300D01*
X128193700Y-147025800D01*
X128269700Y-147101800D01*
X128794700Y-147101800D01*
X128794700Y-146539300D01*
X129075700Y-146539300D01*
X129075700Y-147101800D01*
X129600700Y-147101800D01*
X129676700Y-147025800D01*
X129678171Y-146767300D01*
X129672301Y-146707706D01*
X129654918Y-146650401D01*
X129626690Y-146597589D01*
X129588701Y-146551299D01*
X129542411Y-146513310D01*
X129489599Y-146485082D01*
X129432294Y-146467699D01*
X129372700Y-146461829D01*
X129151700Y-146463300D01*
X129075700Y-146539300D01*
X128794700Y-146539300D01*
X128718700Y-146463300D01*
X128497700Y-146461829D01*
X128438106Y-146467699D01*
X128380801Y-146485082D01*
X128327989Y-146513310D01*
X128281699Y-146551299D01*
X128243710Y-146597589D01*
X128215482Y-146650401D01*
X128198099Y-146707706D01*
X128192229Y-146767300D01*
X128143885Y-146767300D01*
X128139155Y-146719272D01*
X128125145Y-146673089D01*
X128102395Y-146630527D01*
X128071779Y-146593221D01*
X128034473Y-146562605D01*
X127991911Y-146539855D01*
X127945728Y-146525845D01*
X127897700Y-146521115D01*
X127830200Y-146521115D01*
X127830200Y-146483058D01*
X127973258Y-146340000D01*
X132226742Y-146340000D01*
X132320871Y-146434129D01*
X132319150Y-146462518D01*
X132201700Y-146463300D01*
X132125700Y-146539300D01*
X132125700Y-147101800D01*
X132145700Y-147101800D01*
X132145700Y-147382800D01*
X132125700Y-147382800D01*
X132125700Y-147402800D01*
X131844700Y-147402800D01*
X131844700Y-147382800D01*
X131319700Y-147382800D01*
X131243700Y-147458800D01*
X131243295Y-147530000D01*
X131193885Y-147530000D01*
X131193885Y-146767300D01*
X131242229Y-146767300D01*
X131243700Y-147025800D01*
X131319700Y-147101800D01*
X131844700Y-147101800D01*
X131844700Y-146539300D01*
X131768700Y-146463300D01*
X131547700Y-146461829D01*
X131488106Y-146467699D01*
X131430801Y-146485082D01*
X131377989Y-146513310D01*
X131331699Y-146551299D01*
X131293710Y-146597589D01*
X131265482Y-146650401D01*
X131248099Y-146707706D01*
X131242229Y-146767300D01*
X131193885Y-146767300D01*
X131189155Y-146719272D01*
X131175145Y-146673089D01*
X131152395Y-146630527D01*
X131121779Y-146593221D01*
X131084473Y-146562605D01*
X131041911Y-146539855D01*
X130995728Y-146525845D01*
X130947700Y-146521115D01*
X130072700Y-146521115D01*
X130024672Y-146525845D01*
X129978489Y-146539855D01*
X129935927Y-146562605D01*
X129898621Y-146593221D01*
X129868005Y-146630527D01*
X129845255Y-146673089D01*
X129831245Y-146719272D01*
X129826515Y-146767300D01*
X129826515Y-147717300D01*
X129831245Y-147765328D01*
X129845255Y-147811511D01*
X129868005Y-147854073D01*
X129898621Y-147891379D01*
X129935927Y-147921995D01*
X129978489Y-147944745D01*
X130024672Y-147958755D01*
X130030000Y-147959280D01*
X130030000Y-148199483D01*
X130024596Y-148195751D01*
X129816949Y-148105972D01*
X129782953Y-148095666D01*
X129605500Y-148136195D01*
X129605500Y-149064500D01*
X129625500Y-149064500D01*
X129625500Y-149345500D01*
X129605500Y-149345500D01*
X129605500Y-149365500D01*
X129324500Y-149365500D01*
X129324500Y-149345500D01*
X128395578Y-149345500D01*
X128355659Y-149522954D01*
X128439004Y-149733266D01*
X128561778Y-149923277D01*
X128719262Y-150085685D01*
X128754467Y-150110000D01*
X126893259Y-150110000D01*
X126702463Y-149919205D01*
X126707691Y-149921370D01*
X126851624Y-149950000D01*
X126998376Y-149950000D01*
X127142309Y-149921370D01*
X127277890Y-149865211D01*
X127399910Y-149783679D01*
X127503679Y-149679910D01*
X127585211Y-149557890D01*
X127641370Y-149422309D01*
X127670000Y-149278376D01*
X127670000Y-149131624D01*
X127641370Y-148987691D01*
X127599682Y-148887046D01*
X128355659Y-148887046D01*
X128395578Y-149064500D01*
X129324500Y-149064500D01*
X129324500Y-148136195D01*
X129147047Y-148095666D01*
X129113051Y-148105972D01*
X128905404Y-148195751D01*
X128719262Y-148324315D01*
X128561778Y-148486723D01*
X128439004Y-148676734D01*
X128355659Y-148887046D01*
X127599682Y-148887046D01*
X127585211Y-148852110D01*
X127503679Y-148730090D01*
X127399910Y-148626321D01*
X127277890Y-148544789D01*
X127142309Y-148488630D01*
X126998376Y-148460000D01*
X126851624Y-148460000D01*
X126707691Y-148488630D01*
X126572110Y-148544789D01*
X126450090Y-148626321D01*
X126346321Y-148730090D01*
X126264789Y-148852110D01*
X126208630Y-148987691D01*
X126180000Y-149131624D01*
X126180000Y-148697763D01*
X126181789Y-148679599D01*
X126180000Y-148661436D01*
X126180000Y-148661427D01*
X126174646Y-148607068D01*
X126153489Y-148537322D01*
X126151926Y-148534397D01*
X126119132Y-148473044D01*
X126084480Y-148430821D01*
X126084478Y-148430819D01*
X126072895Y-148416705D01*
X126058781Y-148405122D01*
X125671829Y-148018171D01*
X125744700Y-147945300D01*
X125744700Y-147382800D01*
X126025700Y-147382800D01*
X126025700Y-147945300D01*
X126101700Y-148021300D01*
X126322700Y-148022771D01*
X126382294Y-148016901D01*
X126439599Y-147999518D01*
X126492411Y-147971290D01*
X126538701Y-147933301D01*
X126576690Y-147887011D01*
X126604918Y-147834199D01*
X126622301Y-147776894D01*
X126628171Y-147717300D01*
X126626700Y-147458800D01*
X126550700Y-147382800D01*
X126025700Y-147382800D01*
X125744700Y-147382800D01*
X125219700Y-147382800D01*
X125143700Y-147458800D01*
X125143523Y-147489865D01*
X125093885Y-147440227D01*
X125093885Y-146767300D01*
X125142229Y-146767300D01*
X125143700Y-147025800D01*
X125219700Y-147101800D01*
X125744700Y-147101800D01*
X125744700Y-146539300D01*
X126025700Y-146539300D01*
X126025700Y-147101800D01*
X126550700Y-147101800D01*
X126626700Y-147025800D01*
X126628171Y-146767300D01*
X126622301Y-146707706D01*
X126604918Y-146650401D01*
X126576690Y-146597589D01*
X126538701Y-146551299D01*
X126492411Y-146513310D01*
X126439599Y-146485082D01*
X126382294Y-146467699D01*
X126322700Y-146461829D01*
X126101700Y-146463300D01*
X126025700Y-146539300D01*
X125744700Y-146539300D01*
X125668700Y-146463300D01*
X125447700Y-146461829D01*
X125388106Y-146467699D01*
X125330801Y-146485082D01*
X125277989Y-146513310D01*
X125231699Y-146551299D01*
X125193710Y-146597589D01*
X125165482Y-146650401D01*
X125148099Y-146707706D01*
X125142229Y-146767300D01*
X125093885Y-146767300D01*
X125089155Y-146719272D01*
X125075145Y-146673089D01*
X125052395Y-146630527D01*
X125021779Y-146593221D01*
X124984473Y-146562605D01*
X124941911Y-146539855D01*
X124895728Y-146525845D01*
X124847700Y-146521115D01*
X123972700Y-146521115D01*
X123924672Y-146525845D01*
X123878489Y-146539855D01*
X123835927Y-146562605D01*
X123798621Y-146593221D01*
X123768005Y-146630527D01*
X123745255Y-146673089D01*
X123731245Y-146719272D01*
X123726515Y-146767300D01*
X123726515Y-147717300D01*
X123731245Y-147765328D01*
X123745255Y-147811511D01*
X123768005Y-147854073D01*
X123798621Y-147891379D01*
X123835927Y-147921995D01*
X123878489Y-147944745D01*
X123924672Y-147958755D01*
X123930000Y-147959280D01*
X123930000Y-148206595D01*
X123773707Y-148290136D01*
X123606972Y-148426972D01*
X123470136Y-148593707D01*
X123381250Y-148760000D01*
X123328960Y-148760000D01*
X123307100Y-148757847D01*
X123219865Y-148766439D01*
X123135981Y-148791884D01*
X123115756Y-148802695D01*
X123058675Y-148833206D01*
X122990915Y-148888815D01*
X122976979Y-148905796D01*
X122891660Y-148991115D01*
X122562051Y-148991115D01*
X122561370Y-148987691D01*
X122505211Y-148852110D01*
X122423679Y-148730090D01*
X122319910Y-148626321D01*
X122197890Y-148544789D01*
X122062309Y-148488630D01*
X121918376Y-148460000D01*
X121771624Y-148460000D01*
X121627691Y-148488630D01*
X121492110Y-148544789D01*
X121370090Y-148626321D01*
X121266321Y-148730090D01*
X121184789Y-148852110D01*
X121128630Y-148987691D01*
X121100000Y-149131624D01*
X121100000Y-149278376D01*
X121128630Y-149422309D01*
X121184789Y-149557890D01*
X121266321Y-149679910D01*
X121370090Y-149783679D01*
X121492110Y-149865211D01*
X121627691Y-149921370D01*
X121771624Y-149950000D01*
X121918376Y-149950000D01*
X122062309Y-149921370D01*
X122116115Y-149899083D01*
X122116115Y-150112300D01*
X122120845Y-150160328D01*
X122134855Y-150206511D01*
X122157605Y-150249073D01*
X122188221Y-150286379D01*
X122225527Y-150316995D01*
X122268089Y-150339745D01*
X122314272Y-150353755D01*
X122320000Y-150354319D01*
X122320000Y-150570281D01*
X122314272Y-150570845D01*
X122268089Y-150584855D01*
X122225527Y-150607605D01*
X122188221Y-150638221D01*
X122157605Y-150675527D01*
X122134855Y-150718089D01*
X122120845Y-150764272D01*
X122116115Y-150812300D01*
X122116115Y-151050917D01*
X122062309Y-151028630D01*
X121918376Y-151000000D01*
X121771624Y-151000000D01*
X121627691Y-151028630D01*
X121492110Y-151084789D01*
X121370090Y-151166321D01*
X121266321Y-151270090D01*
X121184789Y-151392110D01*
X121128630Y-151527691D01*
X121100000Y-151671624D01*
X121100000Y-151818376D01*
X121128630Y-151962309D01*
X121184789Y-152097890D01*
X121266321Y-152219910D01*
X121370090Y-152323679D01*
X121492110Y-152405211D01*
X121627691Y-152461370D01*
X121771624Y-152490000D01*
X121918376Y-152490000D01*
X122062309Y-152461370D01*
X122197890Y-152405211D01*
X122319910Y-152323679D01*
X122392300Y-152251289D01*
X122392300Y-152328940D01*
X122390147Y-152350800D01*
X122392300Y-152372659D01*
X122398739Y-152438034D01*
X122424184Y-152521917D01*
X122465506Y-152599224D01*
X122521115Y-152666985D01*
X122538101Y-152680925D01*
X122922892Y-153065717D01*
X122686500Y-153067000D01*
X122610500Y-153143000D01*
X122610500Y-153930500D01*
X122630500Y-153930500D01*
X122630500Y-154211500D01*
X122610500Y-154211500D01*
X122610500Y-154231500D01*
X122329500Y-154231500D01*
X122329500Y-154211500D01*
X121754500Y-154211500D01*
X121678500Y-154287500D01*
X121677029Y-154771000D01*
X121682899Y-154830594D01*
X121697886Y-154880000D01*
X121042229Y-154880000D01*
X120884557Y-154864540D01*
X120744654Y-154822301D01*
X120615617Y-154753691D01*
X120502371Y-154661330D01*
X120409215Y-154548724D01*
X120339709Y-154420175D01*
X120296492Y-154280563D01*
X120280000Y-154123654D01*
X120280000Y-153371000D01*
X121677029Y-153371000D01*
X121678500Y-153854500D01*
X121754500Y-153930500D01*
X122329500Y-153930500D01*
X122329500Y-153143000D01*
X122253500Y-153067000D01*
X121982500Y-153065529D01*
X121922906Y-153071399D01*
X121865601Y-153088782D01*
X121812789Y-153117010D01*
X121766499Y-153154999D01*
X121728510Y-153201289D01*
X121700282Y-153254101D01*
X121682899Y-153311406D01*
X121677029Y-153371000D01*
X120280000Y-153371000D01*
X120280000Y-148492229D01*
X120295460Y-148334557D01*
X120337699Y-148194654D01*
X120406308Y-148065619D01*
X120498672Y-147952369D01*
X120611275Y-147859215D01*
X120739823Y-147789710D01*
X120879437Y-147746492D01*
X121036541Y-147729979D01*
X121037840Y-147729975D01*
X121048716Y-147728871D01*
X121059639Y-147728947D01*
X121063114Y-147728606D01*
X121170680Y-147717300D01*
X122092229Y-147717300D01*
X122098099Y-147776894D01*
X122115482Y-147834199D01*
X122143710Y-147887011D01*
X122181699Y-147933301D01*
X122227989Y-147971290D01*
X122280801Y-147999518D01*
X122338106Y-148016901D01*
X122397700Y-148022771D01*
X122618700Y-148021300D01*
X122694700Y-147945300D01*
X122694700Y-147382800D01*
X122975700Y-147382800D01*
X122975700Y-147945300D01*
X123051700Y-148021300D01*
X123272700Y-148022771D01*
X123332294Y-148016901D01*
X123389599Y-147999518D01*
X123442411Y-147971290D01*
X123488701Y-147933301D01*
X123526690Y-147887011D01*
X123554918Y-147834199D01*
X123572301Y-147776894D01*
X123578171Y-147717300D01*
X123576700Y-147458800D01*
X123500700Y-147382800D01*
X122975700Y-147382800D01*
X122694700Y-147382800D01*
X122169700Y-147382800D01*
X122093700Y-147458800D01*
X122092229Y-147717300D01*
X121170680Y-147717300D01*
X121257211Y-147708205D01*
X121279403Y-147703650D01*
X121301663Y-147699404D01*
X121305003Y-147698396D01*
X121305009Y-147698394D01*
X121491443Y-147640683D01*
X121512307Y-147631912D01*
X121533339Y-147623415D01*
X121536422Y-147621775D01*
X121708098Y-147528950D01*
X121726861Y-147516295D01*
X121745844Y-147503873D01*
X121748542Y-147501672D01*
X121748549Y-147501667D01*
X121748555Y-147501661D01*
X121898927Y-147377262D01*
X121914868Y-147361210D01*
X121931082Y-147345332D01*
X121933302Y-147342647D01*
X121933308Y-147342641D01*
X121933312Y-147342634D01*
X122056657Y-147191399D01*
X122069181Y-147172550D01*
X122081998Y-147153831D01*
X122083658Y-147150760D01*
X122130522Y-147062622D01*
X122169700Y-147101800D01*
X122694700Y-147101800D01*
X122694700Y-146539300D01*
X122975700Y-146539300D01*
X122975700Y-147101800D01*
X123500700Y-147101800D01*
X123576700Y-147025800D01*
X123578171Y-146767300D01*
X123572301Y-146707706D01*
X123554918Y-146650401D01*
X123526690Y-146597589D01*
X123488701Y-146551299D01*
X123442411Y-146513310D01*
X123389599Y-146485082D01*
X123332294Y-146467699D01*
X123272700Y-146461829D01*
X123051700Y-146463300D01*
X122975700Y-146539300D01*
X122694700Y-146539300D01*
X122618700Y-146463300D01*
X122397700Y-146461829D01*
X122338106Y-146467699D01*
X122280801Y-146485082D01*
X122280695Y-146485139D01*
X122295460Y-146334557D01*
X122337699Y-146194654D01*
X122406308Y-146065619D01*
X122498672Y-145952369D01*
X122611275Y-145859215D01*
X122739823Y-145789710D01*
X122879437Y-145746492D01*
X123036346Y-145730000D01*
X127536742Y-145730000D01*
X127211420Y-146055322D01*
M02*
