%TF.GenerationSoftware,KiCad,Pcbnew,(5.1.2-1)-1*%
%TF.CreationDate,2020-09-09T12:05:02+02:00*%
%TF.ProjectId,N64 RGB AMP v1,4e363420-5247-4422-9041-4d502076312e,2.21*%
%TF.SameCoordinates,Original*%
%TF.FileFunction,Soldermask,Top*%
%TF.FilePolarity,Negative*%
%FSLAX46Y46*%
G04 Gerber Fmt 4.6, Leading zero omitted, Abs format (unit mm)*
G04 Created by KiCad (PCBNEW (5.1.2-1)-1) date 2020-09-09 12:05:02*
%MOMM*%
%LPD*%
G04 APERTURE LIST*
%ADD10C,0.150000*%
G04 APERTURE END LIST*
D10*
G36*
X135215000Y-166990000D02*
G01*
X134115000Y-166990000D01*
X134115000Y-164840000D01*
X135215000Y-164840000D01*
X135215000Y-166990000D01*
X135215000Y-166990000D01*
G37*
G36*
X133615000Y-166990000D02*
G01*
X132515000Y-166990000D01*
X132515000Y-164840000D01*
X133615000Y-164840000D01*
X133615000Y-166990000D01*
X133615000Y-166990000D01*
G37*
G36*
X132015000Y-166990000D02*
G01*
X130915000Y-166990000D01*
X130915000Y-164840000D01*
X132015000Y-164840000D01*
X132015000Y-166990000D01*
X132015000Y-166990000D01*
G37*
G36*
X130415000Y-166990000D02*
G01*
X129315000Y-166990000D01*
X129315000Y-164840000D01*
X130415000Y-164840000D01*
X130415000Y-166990000D01*
X130415000Y-166990000D01*
G37*
G36*
X137775000Y-166082500D02*
G01*
X136070000Y-166082500D01*
X136070000Y-165032500D01*
X137775000Y-165032500D01*
X137775000Y-166082500D01*
X137775000Y-166082500D01*
G37*
G36*
X129622300Y-162777300D02*
G01*
X128622300Y-162777300D01*
X128622300Y-161852300D01*
X129622300Y-161852300D01*
X129622300Y-162777300D01*
X129622300Y-162777300D01*
G37*
G36*
X127532300Y-162777300D02*
G01*
X126532300Y-162777300D01*
X126532300Y-161852300D01*
X127532300Y-161852300D01*
X127532300Y-162777300D01*
X127532300Y-162777300D01*
G37*
G36*
X131712300Y-162777300D02*
G01*
X130712300Y-162777300D01*
X130712300Y-161852300D01*
X131712300Y-161852300D01*
X131712300Y-162777300D01*
X131712300Y-162777300D01*
G37*
G36*
X133802300Y-162777300D02*
G01*
X132802300Y-162777300D01*
X132802300Y-161852300D01*
X133802300Y-161852300D01*
X133802300Y-162777300D01*
X133802300Y-162777300D01*
G37*
G36*
X135892300Y-162777300D02*
G01*
X134892300Y-162777300D01*
X134892300Y-161852300D01*
X135892300Y-161852300D01*
X135892300Y-162777300D01*
X135892300Y-162777300D01*
G37*
G36*
X137982300Y-162777300D02*
G01*
X136982300Y-162777300D01*
X136982300Y-161852300D01*
X137982300Y-161852300D01*
X137982300Y-162777300D01*
X137982300Y-162777300D01*
G37*
G36*
X137982300Y-161202300D02*
G01*
X136982300Y-161202300D01*
X136982300Y-160277300D01*
X137982300Y-160277300D01*
X137982300Y-161202300D01*
X137982300Y-161202300D01*
G37*
G36*
X135892300Y-161202300D02*
G01*
X134892300Y-161202300D01*
X134892300Y-160277300D01*
X135892300Y-160277300D01*
X135892300Y-161202300D01*
X135892300Y-161202300D01*
G37*
G36*
X133802300Y-161202300D02*
G01*
X132802300Y-161202300D01*
X132802300Y-160277300D01*
X133802300Y-160277300D01*
X133802300Y-161202300D01*
X133802300Y-161202300D01*
G37*
G36*
X131712300Y-161202300D02*
G01*
X130712300Y-161202300D01*
X130712300Y-160277300D01*
X131712300Y-160277300D01*
X131712300Y-161202300D01*
X131712300Y-161202300D01*
G37*
G36*
X129622300Y-161202300D02*
G01*
X128622300Y-161202300D01*
X128622300Y-160277300D01*
X129622300Y-160277300D01*
X129622300Y-161202300D01*
X129622300Y-161202300D01*
G37*
G36*
X127532300Y-161202300D02*
G01*
X126532300Y-161202300D01*
X126532300Y-160277300D01*
X127532300Y-160277300D01*
X127532300Y-161202300D01*
X127532300Y-161202300D01*
G37*
G36*
X137982300Y-159727300D02*
G01*
X136982300Y-159727300D01*
X136982300Y-158802300D01*
X137982300Y-158802300D01*
X137982300Y-159727300D01*
X137982300Y-159727300D01*
G37*
G36*
X128042700Y-159512300D02*
G01*
X127117700Y-159512300D01*
X127117700Y-158512300D01*
X128042700Y-158512300D01*
X128042700Y-159512300D01*
X128042700Y-159512300D01*
G37*
G36*
X126467700Y-159512300D02*
G01*
X125542700Y-159512300D01*
X125542700Y-158512300D01*
X126467700Y-158512300D01*
X126467700Y-159512300D01*
X126467700Y-159512300D01*
G37*
G36*
X129820000Y-158970000D02*
G01*
X128770000Y-158970000D01*
X128770000Y-158520000D01*
X129820000Y-158520000D01*
X129820000Y-158970000D01*
X129820000Y-158970000D01*
G37*
G36*
X135720000Y-158970000D02*
G01*
X134670000Y-158970000D01*
X134670000Y-158520000D01*
X135720000Y-158520000D01*
X135720000Y-158970000D01*
X135720000Y-158970000D01*
G37*
G36*
X129820000Y-158320000D02*
G01*
X128770000Y-158320000D01*
X128770000Y-157870000D01*
X129820000Y-157870000D01*
X129820000Y-158320000D01*
X129820000Y-158320000D01*
G37*
G36*
X135720000Y-158320000D02*
G01*
X134670000Y-158320000D01*
X134670000Y-157870000D01*
X135720000Y-157870000D01*
X135720000Y-158320000D01*
X135720000Y-158320000D01*
G37*
G36*
X137982300Y-158152300D02*
G01*
X136982300Y-158152300D01*
X136982300Y-157227300D01*
X137982300Y-157227300D01*
X137982300Y-158152300D01*
X137982300Y-158152300D01*
G37*
G36*
X129820000Y-157670000D02*
G01*
X128770000Y-157670000D01*
X128770000Y-157220000D01*
X129820000Y-157220000D01*
X129820000Y-157670000D01*
X129820000Y-157670000D01*
G37*
G36*
X135720000Y-157670000D02*
G01*
X134670000Y-157670000D01*
X134670000Y-157220000D01*
X135720000Y-157220000D01*
X135720000Y-157670000D01*
X135720000Y-157670000D01*
G37*
G36*
X126467700Y-157422300D02*
G01*
X125542700Y-157422300D01*
X125542700Y-156422300D01*
X126467700Y-156422300D01*
X126467700Y-157422300D01*
X126467700Y-157422300D01*
G37*
G36*
X128042700Y-157422300D02*
G01*
X127117700Y-157422300D01*
X127117700Y-156422300D01*
X128042700Y-156422300D01*
X128042700Y-157422300D01*
X128042700Y-157422300D01*
G37*
G36*
X129820000Y-157020000D02*
G01*
X128770000Y-157020000D01*
X128770000Y-156570000D01*
X129820000Y-156570000D01*
X129820000Y-157020000D01*
X129820000Y-157020000D01*
G37*
G36*
X135720000Y-157020000D02*
G01*
X134670000Y-157020000D01*
X134670000Y-156570000D01*
X135720000Y-156570000D01*
X135720000Y-157020000D01*
X135720000Y-157020000D01*
G37*
G36*
X137982300Y-156677300D02*
G01*
X136982300Y-156677300D01*
X136982300Y-155752300D01*
X137982300Y-155752300D01*
X137982300Y-156677300D01*
X137982300Y-156677300D01*
G37*
G36*
X129820000Y-156370000D02*
G01*
X128770000Y-156370000D01*
X128770000Y-155920000D01*
X129820000Y-155920000D01*
X129820000Y-156370000D01*
X129820000Y-156370000D01*
G37*
G36*
X135720000Y-156370000D02*
G01*
X134670000Y-156370000D01*
X134670000Y-155920000D01*
X135720000Y-155920000D01*
X135720000Y-156370000D01*
X135720000Y-156370000D01*
G37*
G36*
X135720000Y-155720000D02*
G01*
X134670000Y-155720000D01*
X134670000Y-155270000D01*
X135720000Y-155270000D01*
X135720000Y-155720000D01*
X135720000Y-155720000D01*
G37*
G36*
X129820000Y-155720000D02*
G01*
X128770000Y-155720000D01*
X128770000Y-155270000D01*
X129820000Y-155270000D01*
X129820000Y-155720000D01*
X129820000Y-155720000D01*
G37*
G36*
X128042700Y-155332300D02*
G01*
X127117700Y-155332300D01*
X127117700Y-154332300D01*
X128042700Y-154332300D01*
X128042700Y-155332300D01*
X128042700Y-155332300D01*
G37*
G36*
X126467700Y-155332300D02*
G01*
X125542700Y-155332300D01*
X125542700Y-154332300D01*
X126467700Y-154332300D01*
X126467700Y-155332300D01*
X126467700Y-155332300D01*
G37*
G36*
X137982300Y-155102300D02*
G01*
X136982300Y-155102300D01*
X136982300Y-154177300D01*
X137982300Y-154177300D01*
X137982300Y-155102300D01*
X137982300Y-155102300D01*
G37*
G36*
X129820000Y-155070000D02*
G01*
X128770000Y-155070000D01*
X128770000Y-154620000D01*
X129820000Y-154620000D01*
X129820000Y-155070000D01*
X129820000Y-155070000D01*
G37*
G36*
X135720000Y-155070000D02*
G01*
X134670000Y-155070000D01*
X134670000Y-154620000D01*
X135720000Y-154620000D01*
X135720000Y-155070000D01*
X135720000Y-155070000D01*
G37*
G36*
X122982500Y-154796000D02*
G01*
X121957500Y-154796000D01*
X121957500Y-153346000D01*
X122982500Y-153346000D01*
X122982500Y-154796000D01*
X122982500Y-154796000D01*
G37*
G36*
X124857500Y-154796000D02*
G01*
X123832500Y-154796000D01*
X123832500Y-153346000D01*
X124857500Y-153346000D01*
X124857500Y-154796000D01*
X124857500Y-154796000D01*
G37*
G36*
X137982300Y-153627300D02*
G01*
X136982300Y-153627300D01*
X136982300Y-152702300D01*
X137982300Y-152702300D01*
X137982300Y-153627300D01*
X137982300Y-153627300D01*
G37*
G36*
X129636530Y-150882661D02*
G01*
X129801468Y-150932695D01*
X129953476Y-151013944D01*
X130086712Y-151123288D01*
X130196056Y-151256524D01*
X130277305Y-151408532D01*
X130327339Y-151573470D01*
X130344233Y-151745000D01*
X130327339Y-151916530D01*
X130277305Y-152081468D01*
X130196056Y-152233476D01*
X130086712Y-152366712D01*
X129953476Y-152476056D01*
X129801468Y-152557305D01*
X129636530Y-152607339D01*
X129507979Y-152620000D01*
X129422021Y-152620000D01*
X129293470Y-152607339D01*
X129128532Y-152557305D01*
X128976524Y-152476056D01*
X128843288Y-152366712D01*
X128733944Y-152233476D01*
X128652695Y-152081468D01*
X128602661Y-151916530D01*
X128585767Y-151745000D01*
X128602661Y-151573470D01*
X128652695Y-151408532D01*
X128733944Y-151256524D01*
X128843288Y-151123288D01*
X128976524Y-151013944D01*
X129128532Y-150932695D01*
X129293470Y-150882661D01*
X129422021Y-150870000D01*
X129507979Y-150870000D01*
X129636530Y-150882661D01*
X129636530Y-150882661D01*
G37*
G36*
X132176530Y-150882661D02*
G01*
X132341468Y-150932695D01*
X132493476Y-151013944D01*
X132626712Y-151123288D01*
X132736056Y-151256524D01*
X132817305Y-151408532D01*
X132867339Y-151573470D01*
X132884233Y-151745000D01*
X132867339Y-151916530D01*
X132817305Y-152081468D01*
X132736056Y-152233476D01*
X132626712Y-152366712D01*
X132493476Y-152476056D01*
X132341468Y-152557305D01*
X132176530Y-152607339D01*
X132047979Y-152620000D01*
X131962021Y-152620000D01*
X131833470Y-152607339D01*
X131668532Y-152557305D01*
X131516524Y-152476056D01*
X131383288Y-152366712D01*
X131273944Y-152233476D01*
X131192695Y-152081468D01*
X131142661Y-151916530D01*
X131125767Y-151745000D01*
X131142661Y-151573470D01*
X131192695Y-151408532D01*
X131273944Y-151256524D01*
X131383288Y-151123288D01*
X131516524Y-151013944D01*
X131668532Y-150932695D01*
X131833470Y-150882661D01*
X131962021Y-150870000D01*
X132047979Y-150870000D01*
X132176530Y-150882661D01*
X132176530Y-150882661D01*
G37*
G36*
X134673442Y-150878407D02*
G01*
X134800231Y-150903626D01*
X134959465Y-150969583D01*
X134959468Y-150969585D01*
X135102780Y-151065343D01*
X135224657Y-151187220D01*
X135286483Y-151279749D01*
X135320417Y-151330535D01*
X135386374Y-151489769D01*
X135403023Y-151573470D01*
X135420000Y-151658820D01*
X135420000Y-151831180D01*
X135416670Y-151847919D01*
X135386374Y-152000231D01*
X135320417Y-152159465D01*
X135320415Y-152159468D01*
X135224657Y-152302780D01*
X135102780Y-152424657D01*
X134959468Y-152520415D01*
X134959465Y-152520417D01*
X134800231Y-152586374D01*
X134694836Y-152607338D01*
X134631180Y-152620000D01*
X134458820Y-152620000D01*
X134395164Y-152607338D01*
X134289769Y-152586374D01*
X134130535Y-152520417D01*
X134130532Y-152520415D01*
X133987220Y-152424657D01*
X133865343Y-152302780D01*
X133769585Y-152159468D01*
X133769583Y-152159465D01*
X133703626Y-152000231D01*
X133673330Y-151847919D01*
X133670000Y-151831180D01*
X133670000Y-151658820D01*
X133686977Y-151573470D01*
X133703626Y-151489769D01*
X133769583Y-151330535D01*
X133803517Y-151279749D01*
X133865343Y-151187220D01*
X133987220Y-151065343D01*
X134130532Y-150969585D01*
X134130535Y-150969583D01*
X134289769Y-150903626D01*
X134416558Y-150878407D01*
X134458820Y-150870000D01*
X134631180Y-150870000D01*
X134673442Y-150878407D01*
X134673442Y-150878407D01*
G37*
G36*
X123337300Y-151712300D02*
G01*
X122449999Y-151712300D01*
X122434392Y-151713837D01*
X122419385Y-151718390D01*
X122405554Y-151725782D01*
X122393431Y-151735731D01*
X122383482Y-151747854D01*
X122376090Y-151761685D01*
X122371537Y-151776692D01*
X122370000Y-151792299D01*
X122370000Y-151796707D01*
X122349824Y-151898140D01*
X122310251Y-151993677D01*
X122310249Y-151993681D01*
X122252794Y-152079668D01*
X122179668Y-152152794D01*
X122093681Y-152210249D01*
X122093678Y-152210250D01*
X122093677Y-152210251D01*
X121998140Y-152249824D01*
X121934900Y-152262403D01*
X121896708Y-152270000D01*
X121793292Y-152270000D01*
X121755100Y-152262403D01*
X121691860Y-152249824D01*
X121596323Y-152210251D01*
X121596322Y-152210250D01*
X121596319Y-152210249D01*
X121510332Y-152152794D01*
X121437206Y-152079668D01*
X121379751Y-151993681D01*
X121379749Y-151993677D01*
X121340176Y-151898140D01*
X121320000Y-151796707D01*
X121320000Y-151693293D01*
X121340176Y-151591860D01*
X121379749Y-151496323D01*
X121379750Y-151496322D01*
X121379751Y-151496319D01*
X121437206Y-151410332D01*
X121510332Y-151337206D01*
X121596319Y-151279751D01*
X121596322Y-151279750D01*
X121596323Y-151279749D01*
X121691860Y-151240176D01*
X121767935Y-151225044D01*
X121793292Y-151220000D01*
X121896708Y-151220000D01*
X121922065Y-151225044D01*
X121998140Y-151240176D01*
X122093677Y-151279749D01*
X122093678Y-151279750D01*
X122093681Y-151279751D01*
X122179668Y-151337206D01*
X122200739Y-151358277D01*
X122212856Y-151368221D01*
X122226687Y-151375613D01*
X122241694Y-151380166D01*
X122257301Y-151381703D01*
X122272908Y-151380166D01*
X122287915Y-151375613D01*
X122301746Y-151368221D01*
X122313869Y-151358272D01*
X122323818Y-151346149D01*
X122331210Y-151332318D01*
X122335763Y-151317311D01*
X122337300Y-151301704D01*
X122337300Y-150787300D01*
X123337300Y-150787300D01*
X123337300Y-151712300D01*
X123337300Y-151712300D01*
G37*
G36*
X126989353Y-151223798D02*
G01*
X127027919Y-151227597D01*
X127069386Y-151240176D01*
X127126881Y-151257617D01*
X127218086Y-151306367D01*
X127298027Y-151371973D01*
X127363633Y-151451914D01*
X127412383Y-151543119D01*
X127442403Y-151642082D01*
X127452540Y-151745000D01*
X127442403Y-151847918D01*
X127412383Y-151946881D01*
X127363633Y-152038086D01*
X127298027Y-152118027D01*
X127218086Y-152183633D01*
X127126881Y-152232383D01*
X127077399Y-152247393D01*
X127027919Y-152262403D01*
X126989353Y-152266202D01*
X126950788Y-152270000D01*
X126899212Y-152270000D01*
X126860647Y-152266202D01*
X126822081Y-152262403D01*
X126772601Y-152247393D01*
X126723119Y-152232383D01*
X126631914Y-152183633D01*
X126551973Y-152118027D01*
X126486367Y-152038086D01*
X126437617Y-151946881D01*
X126407597Y-151847918D01*
X126397460Y-151745000D01*
X126407597Y-151642082D01*
X126437617Y-151543119D01*
X126486367Y-151451914D01*
X126551973Y-151371973D01*
X126631914Y-151306367D01*
X126723119Y-151257617D01*
X126780614Y-151240176D01*
X126822081Y-151227597D01*
X126860647Y-151223798D01*
X126899212Y-151220000D01*
X126950788Y-151220000D01*
X126989353Y-151223798D01*
X126989353Y-151223798D01*
G37*
G36*
X124449353Y-151223798D02*
G01*
X124487919Y-151227597D01*
X124529386Y-151240176D01*
X124586881Y-151257617D01*
X124678086Y-151306367D01*
X124758027Y-151371973D01*
X124823633Y-151451914D01*
X124872383Y-151543119D01*
X124902403Y-151642082D01*
X124912540Y-151745000D01*
X124902403Y-151847918D01*
X124872383Y-151946881D01*
X124823633Y-152038086D01*
X124758027Y-152118027D01*
X124678086Y-152183633D01*
X124586881Y-152232383D01*
X124537399Y-152247393D01*
X124487919Y-152262403D01*
X124449353Y-152266202D01*
X124410788Y-152270000D01*
X124359212Y-152270000D01*
X124320647Y-152266202D01*
X124282081Y-152262403D01*
X124232601Y-152247393D01*
X124183119Y-152232383D01*
X124091914Y-152183633D01*
X124011973Y-152118027D01*
X123946367Y-152038086D01*
X123897617Y-151946881D01*
X123867597Y-151847918D01*
X123857460Y-151745000D01*
X123867597Y-151642082D01*
X123897617Y-151543119D01*
X123946367Y-151451914D01*
X124011973Y-151371973D01*
X124091914Y-151306367D01*
X124183119Y-151257617D01*
X124240614Y-151240176D01*
X124282081Y-151227597D01*
X124320647Y-151223798D01*
X124359212Y-151220000D01*
X124410788Y-151220000D01*
X124449353Y-151223798D01*
X124449353Y-151223798D01*
G37*
G36*
X137982300Y-152052300D02*
G01*
X136982300Y-152052300D01*
X136982300Y-151127300D01*
X137982300Y-151127300D01*
X137982300Y-152052300D01*
X137982300Y-152052300D01*
G37*
G36*
X137982300Y-150577300D02*
G01*
X136982300Y-150577300D01*
X136982300Y-149652300D01*
X137982300Y-149652300D01*
X137982300Y-150577300D01*
X137982300Y-150577300D01*
G37*
G36*
X121922065Y-148685044D02*
G01*
X121998140Y-148700176D01*
X122093677Y-148739749D01*
X122093678Y-148739750D01*
X122093681Y-148739751D01*
X122179668Y-148797206D01*
X122252794Y-148870332D01*
X122310249Y-148956319D01*
X122310250Y-148956322D01*
X122310251Y-148956323D01*
X122349824Y-149051860D01*
X122368929Y-149147908D01*
X122373482Y-149162915D01*
X122380874Y-149176746D01*
X122390823Y-149188869D01*
X122402946Y-149198818D01*
X122416777Y-149206211D01*
X122431784Y-149210763D01*
X122447391Y-149212300D01*
X123337300Y-149212300D01*
X123337300Y-150137300D01*
X122337300Y-150137300D01*
X122337300Y-149648296D01*
X122335763Y-149632689D01*
X122331210Y-149617682D01*
X122323818Y-149603851D01*
X122313869Y-149591728D01*
X122301746Y-149581779D01*
X122287915Y-149574387D01*
X122272908Y-149569834D01*
X122257301Y-149568297D01*
X122241694Y-149569834D01*
X122226687Y-149574387D01*
X122212856Y-149581779D01*
X122200739Y-149591723D01*
X122179668Y-149612794D01*
X122093681Y-149670249D01*
X122093678Y-149670250D01*
X122093677Y-149670251D01*
X121998140Y-149709824D01*
X121922065Y-149724956D01*
X121896708Y-149730000D01*
X121793292Y-149730000D01*
X121767935Y-149724956D01*
X121691860Y-149709824D01*
X121596323Y-149670251D01*
X121596322Y-149670250D01*
X121596319Y-149670249D01*
X121510332Y-149612794D01*
X121437206Y-149539668D01*
X121379751Y-149453681D01*
X121379749Y-149453677D01*
X121340176Y-149358140D01*
X121320000Y-149256707D01*
X121320000Y-149153293D01*
X121340176Y-149051860D01*
X121379749Y-148956323D01*
X121379750Y-148956322D01*
X121379751Y-148956319D01*
X121437206Y-148870332D01*
X121510332Y-148797206D01*
X121596319Y-148739751D01*
X121596322Y-148739750D01*
X121596323Y-148739749D01*
X121691860Y-148700176D01*
X121767935Y-148685044D01*
X121793292Y-148680000D01*
X121896708Y-148680000D01*
X121922065Y-148685044D01*
X121922065Y-148685044D01*
G37*
G36*
X132176530Y-148342661D02*
G01*
X132341468Y-148392695D01*
X132493476Y-148473944D01*
X132626712Y-148583288D01*
X132736056Y-148716524D01*
X132817305Y-148868532D01*
X132867339Y-149033470D01*
X132884233Y-149205000D01*
X132867339Y-149376530D01*
X132817305Y-149541468D01*
X132736056Y-149693476D01*
X132626712Y-149826712D01*
X132493476Y-149936056D01*
X132341468Y-150017305D01*
X132176530Y-150067339D01*
X132047979Y-150080000D01*
X131962021Y-150080000D01*
X131833470Y-150067339D01*
X131668532Y-150017305D01*
X131516524Y-149936056D01*
X131383288Y-149826712D01*
X131273944Y-149693476D01*
X131192695Y-149541468D01*
X131142661Y-149376530D01*
X131125767Y-149205000D01*
X131142661Y-149033470D01*
X131192695Y-148868532D01*
X131273944Y-148716524D01*
X131383288Y-148583288D01*
X131516524Y-148473944D01*
X131668532Y-148392695D01*
X131833470Y-148342661D01*
X131962021Y-148330000D01*
X132047979Y-148330000D01*
X132176530Y-148342661D01*
X132176530Y-148342661D01*
G37*
G36*
X124556530Y-148342661D02*
G01*
X124721468Y-148392695D01*
X124873476Y-148473944D01*
X125006712Y-148583288D01*
X125116056Y-148716524D01*
X125197305Y-148868532D01*
X125247339Y-149033470D01*
X125264233Y-149205000D01*
X125247339Y-149376530D01*
X125197305Y-149541468D01*
X125116056Y-149693476D01*
X125006712Y-149826712D01*
X124873476Y-149936056D01*
X124721468Y-150017305D01*
X124556530Y-150067339D01*
X124427979Y-150080000D01*
X124342021Y-150080000D01*
X124213470Y-150067339D01*
X124048532Y-150017305D01*
X123896524Y-149936056D01*
X123763288Y-149826712D01*
X123653944Y-149693476D01*
X123572695Y-149541468D01*
X123522661Y-149376530D01*
X123505767Y-149205000D01*
X123522661Y-149033470D01*
X123572695Y-148868532D01*
X123653944Y-148716524D01*
X123763288Y-148583288D01*
X123896524Y-148473944D01*
X124048532Y-148392695D01*
X124213470Y-148342661D01*
X124342021Y-148330000D01*
X124427979Y-148330000D01*
X124556530Y-148342661D01*
X124556530Y-148342661D01*
G37*
G36*
X129636530Y-148342661D02*
G01*
X129801468Y-148392695D01*
X129953476Y-148473944D01*
X130086712Y-148583288D01*
X130196056Y-148716524D01*
X130277305Y-148868532D01*
X130327339Y-149033470D01*
X130344233Y-149205000D01*
X130327339Y-149376530D01*
X130277305Y-149541468D01*
X130196056Y-149693476D01*
X130086712Y-149826712D01*
X129953476Y-149936056D01*
X129801468Y-150017305D01*
X129636530Y-150067339D01*
X129507979Y-150080000D01*
X129422021Y-150080000D01*
X129293470Y-150067339D01*
X129128532Y-150017305D01*
X128976524Y-149936056D01*
X128843288Y-149826712D01*
X128733944Y-149693476D01*
X128652695Y-149541468D01*
X128602661Y-149376530D01*
X128585767Y-149205000D01*
X128602661Y-149033470D01*
X128652695Y-148868532D01*
X128733944Y-148716524D01*
X128843288Y-148583288D01*
X128976524Y-148473944D01*
X129128532Y-148392695D01*
X129293470Y-148342661D01*
X129422021Y-148330000D01*
X129507979Y-148330000D01*
X129636530Y-148342661D01*
X129636530Y-148342661D01*
G37*
G36*
X134673442Y-148338407D02*
G01*
X134800231Y-148363626D01*
X134959465Y-148429583D01*
X134959468Y-148429585D01*
X135102780Y-148525343D01*
X135224657Y-148647220D01*
X135260041Y-148700176D01*
X135320417Y-148790535D01*
X135386374Y-148949769D01*
X135420000Y-149118821D01*
X135420000Y-149291179D01*
X135386374Y-149460231D01*
X135320417Y-149619465D01*
X135320415Y-149619468D01*
X135224657Y-149762780D01*
X135102780Y-149884657D01*
X134959468Y-149980415D01*
X134959465Y-149980417D01*
X134800231Y-150046374D01*
X134694836Y-150067338D01*
X134631180Y-150080000D01*
X134458820Y-150080000D01*
X134395164Y-150067338D01*
X134289769Y-150046374D01*
X134130535Y-149980417D01*
X134130532Y-149980415D01*
X133987220Y-149884657D01*
X133865343Y-149762780D01*
X133769585Y-149619468D01*
X133769583Y-149619465D01*
X133703626Y-149460231D01*
X133670000Y-149291179D01*
X133670000Y-149118821D01*
X133703626Y-148949769D01*
X133769583Y-148790535D01*
X133829959Y-148700176D01*
X133865343Y-148647220D01*
X133987220Y-148525343D01*
X134130532Y-148429585D01*
X134130535Y-148429583D01*
X134289769Y-148363626D01*
X134416558Y-148338407D01*
X134458820Y-148330000D01*
X134631180Y-148330000D01*
X134673442Y-148338407D01*
X134673442Y-148338407D01*
G37*
G36*
X127002065Y-148685044D02*
G01*
X127078140Y-148700176D01*
X127173677Y-148739749D01*
X127173678Y-148739750D01*
X127173681Y-148739751D01*
X127259668Y-148797206D01*
X127332794Y-148870332D01*
X127390249Y-148956319D01*
X127390250Y-148956322D01*
X127390251Y-148956323D01*
X127429824Y-149051860D01*
X127450000Y-149153293D01*
X127450000Y-149256707D01*
X127429824Y-149358140D01*
X127390251Y-149453677D01*
X127390249Y-149453681D01*
X127332794Y-149539668D01*
X127259668Y-149612794D01*
X127173681Y-149670249D01*
X127173678Y-149670250D01*
X127173677Y-149670251D01*
X127078140Y-149709824D01*
X127002065Y-149724956D01*
X126976708Y-149730000D01*
X126873292Y-149730000D01*
X126847935Y-149724956D01*
X126771860Y-149709824D01*
X126676323Y-149670251D01*
X126676322Y-149670250D01*
X126676319Y-149670249D01*
X126590332Y-149612794D01*
X126517206Y-149539668D01*
X126459751Y-149453681D01*
X126459749Y-149453677D01*
X126420176Y-149358140D01*
X126400000Y-149256707D01*
X126400000Y-149153293D01*
X126420176Y-149051860D01*
X126459749Y-148956323D01*
X126459750Y-148956322D01*
X126459751Y-148956319D01*
X126517206Y-148870332D01*
X126590332Y-148797206D01*
X126676319Y-148739751D01*
X126676322Y-148739750D01*
X126676323Y-148739749D01*
X126771860Y-148700176D01*
X126847935Y-148685044D01*
X126873292Y-148680000D01*
X126976708Y-148680000D01*
X127002065Y-148685044D01*
X127002065Y-148685044D01*
G37*
G36*
X137982300Y-149002300D02*
G01*
X136982300Y-149002300D01*
X136982300Y-148077300D01*
X137982300Y-148077300D01*
X137982300Y-149002300D01*
X137982300Y-149002300D01*
G37*
G36*
X127922700Y-147742300D02*
G01*
X126997700Y-147742300D01*
X126997700Y-146742300D01*
X127922700Y-146742300D01*
X127922700Y-147742300D01*
X127922700Y-147742300D01*
G37*
G36*
X129397700Y-147742300D02*
G01*
X128472700Y-147742300D01*
X128472700Y-146742300D01*
X129397700Y-146742300D01*
X129397700Y-147742300D01*
X129397700Y-147742300D01*
G37*
G36*
X130972700Y-147742300D02*
G01*
X130047700Y-147742300D01*
X130047700Y-146742300D01*
X130972700Y-146742300D01*
X130972700Y-147742300D01*
X130972700Y-147742300D01*
G37*
G36*
X132447700Y-147742300D02*
G01*
X131522700Y-147742300D01*
X131522700Y-146742300D01*
X132447700Y-146742300D01*
X132447700Y-147742300D01*
X132447700Y-147742300D01*
G37*
G36*
X134022700Y-147742300D02*
G01*
X133097700Y-147742300D01*
X133097700Y-146742300D01*
X134022700Y-146742300D01*
X134022700Y-147742300D01*
X134022700Y-147742300D01*
G37*
G36*
X126347700Y-147742300D02*
G01*
X125422700Y-147742300D01*
X125422700Y-146742300D01*
X126347700Y-146742300D01*
X126347700Y-147742300D01*
X126347700Y-147742300D01*
G37*
G36*
X123297700Y-147742300D02*
G01*
X122372700Y-147742300D01*
X122372700Y-146742300D01*
X123297700Y-146742300D01*
X123297700Y-147742300D01*
X123297700Y-147742300D01*
G37*
G36*
X124872700Y-147742300D02*
G01*
X123947700Y-147742300D01*
X123947700Y-146742300D01*
X124872700Y-146742300D01*
X124872700Y-147742300D01*
X124872700Y-147742300D01*
G37*
M02*
