%TF.GenerationSoftware,KiCad,Pcbnew,(5.1.2-1)-1*%
%TF.CreationDate,2020-09-09T12:05:02+02:00*%
%TF.ProjectId,N64 RGB AMP v1,4e363420-5247-4422-9041-4d502076312e,2.21*%
%TF.SameCoordinates,Original*%
%TF.FileFunction,Paste,Top*%
%TF.FilePolarity,Positive*%
%FSLAX46Y46*%
G04 Gerber Fmt 4.6, Leading zero omitted, Abs format (unit mm)*
G04 Created by KiCad (PCBNEW (5.1.2-1)-1) date 2020-09-09 12:05:02*
%MOMM*%
%LPD*%
G04 APERTURE LIST*
%ADD10R,0.750000X1.000000*%
%ADD11R,1.000000X0.400000*%
%ADD12R,1.050000X2.100000*%
%ADD13R,0.950000X0.875000*%
%ADD14R,0.975000X1.400000*%
%ADD15R,0.875000X0.950000*%
G04 APERTURE END LIST*
D10*
X137375000Y-165557500D03*
D11*
X135195000Y-154845000D03*
X135195000Y-155495000D03*
X135195000Y-156145000D03*
X135195000Y-156795000D03*
X135195000Y-157445000D03*
X135195000Y-158095000D03*
X135195000Y-158745000D03*
X129295000Y-158745000D03*
X129295000Y-158095000D03*
X129295000Y-157445000D03*
X129295000Y-156795000D03*
X129295000Y-156145000D03*
X129295000Y-155495000D03*
X129295000Y-154845000D03*
D12*
X131465000Y-165915000D03*
X129865000Y-165915000D03*
X134665000Y-165915000D03*
X133065000Y-165915000D03*
D13*
X137482300Y-160739800D03*
X137482300Y-162314800D03*
X137482300Y-159264800D03*
X137482300Y-157689800D03*
X137482300Y-154639800D03*
X137482300Y-156214800D03*
X137482300Y-153164800D03*
X137482300Y-151589800D03*
X137482300Y-148539800D03*
X137482300Y-150114800D03*
D14*
X122470000Y-154071000D03*
X124345000Y-154071000D03*
D15*
X131985200Y-147242300D03*
X133560200Y-147242300D03*
X125885200Y-147242300D03*
X127460200Y-147242300D03*
X124410200Y-147242300D03*
X122835200Y-147242300D03*
X130510200Y-147242300D03*
X128935200Y-147242300D03*
D13*
X127032300Y-162314800D03*
X127032300Y-160739800D03*
X129122300Y-160739800D03*
X129122300Y-162314800D03*
X131212300Y-162314800D03*
X131212300Y-160739800D03*
X133302300Y-160739800D03*
X133302300Y-162314800D03*
X135392300Y-162314800D03*
X135392300Y-160739800D03*
D15*
X126005200Y-154832300D03*
X127580200Y-154832300D03*
X127580200Y-156922300D03*
X126005200Y-156922300D03*
X126005200Y-159012300D03*
X127580200Y-159012300D03*
D13*
X122837300Y-149674800D03*
X122837300Y-151249800D03*
M02*
