M48
; DRILL file {KiCad (5.1.2-1)-1} date Mittwoch, 09. September 2020 um 12:05:15
; FORMAT={-:-/ absolute / inch / decimal}
; #@! TF.CreationDate,2020-09-09T12:05:15+02:00
; #@! TF.GenerationSoftware,Kicad,Pcbnew,(5.1.2-1)-1
FMAT,2
INCH
T1C0.0098
T2C0.0118
T3C0.0394
T4C0.0394
%
G90
G05
T1
X4.7421Y-5.85
X4.7421Y-5.9209
X4.7421Y-5.9917
X4.7421Y-6.0626
X4.836Y-5.85
X4.9268Y-5.7555
X5.1545Y-6.1754
X5.1644Y-6.1537
X5.1644Y-6.197
X5.1742Y-6.1754
X5.1841Y-6.1537
X5.1841Y-6.197
X5.1939Y-6.1754
X5.2037Y-6.1537
X5.2037Y-6.197
X5.2136Y-6.1754
X5.3478Y-6.5636
X5.3675Y-6.5636
X5.3872Y-6.5636
X5.4026Y-6.4297
X5.4069Y-6.5636
X5.4222Y-6.4297
X5.4425Y-5.8783
X5.4425Y-5.9984
X5.4425Y-6.1185
X5.4425Y-6.2386
X5.4425Y-6.3587
T2
X4.8955Y-6.0658
X5.0013Y-6.3903
X5.0228Y-6.0958
X5.0228Y-6.178
X5.0228Y-6.2603
X5.0836Y-6.3283
X5.1658Y-6.3283
X5.1963Y-5.7969
X5.2481Y-6.3283
X5.2583Y-5.7969
X5.3304Y-6.3283
X5.3728Y-6.518
X5.4127Y-5.9681
X5.4127Y-6.0882
X5.4127Y-6.2083
X5.4127Y-6.3283
T3
X4.897Y-5.8742
X5.097Y-5.8742
X5.097Y-5.9742
X5.197Y-5.8742
X5.197Y-5.9742
X5.297Y-5.8742
X5.297Y-5.9742
T4
X4.797Y-5.8742
X4.797Y-5.9742
X4.897Y-5.9742
X4.997Y-5.8742
X4.997Y-5.9742
T0
M30
