%TF.GenerationSoftware,KiCad,Pcbnew,(5.1.2-1)-1*%
%TF.CreationDate,2020-12-17T17:00:40+01:00*%
%TF.ProjectId,n64_rgb_amp,6e36345f-7267-4625-9f61-6d702e6b6963,1.1*%
%TF.SameCoordinates,Original*%
%TF.FileFunction,Legend,Bot*%
%TF.FilePolarity,Positive*%
%FSLAX46Y46*%
G04 Gerber Fmt 4.6, Leading zero omitted, Abs format (unit mm)*
G04 Created by KiCad (PCBNEW (5.1.2-1)-1) date 2020-12-17 17:00:40*
%MOMM*%
%LPD*%
G04 APERTURE LIST*
%ADD10C,0.137500*%
%ADD11C,0.270000*%
%ADD12C,0.010000*%
G04 APERTURE END LIST*
D10*
X156870952Y-102256666D02*
X156870952Y-101556666D01*
X156556666Y-102256666D01*
X156556666Y-101556666D01*
X156294761Y-101556666D02*
X156294761Y-102123333D01*
X156268571Y-102190000D01*
X156242380Y-102223333D01*
X156190000Y-102256666D01*
X156085238Y-102256666D01*
X156032857Y-102223333D01*
X156006666Y-102190000D01*
X155980476Y-102123333D01*
X155980476Y-101556666D01*
X155744761Y-102223333D02*
X155666190Y-102256666D01*
X155535238Y-102256666D01*
X155482857Y-102223333D01*
X155456666Y-102190000D01*
X155430476Y-102123333D01*
X155430476Y-102056666D01*
X155456666Y-101990000D01*
X155482857Y-101956666D01*
X155535238Y-101923333D01*
X155640000Y-101890000D01*
X155692380Y-101856666D01*
X155718571Y-101823333D01*
X155744761Y-101756666D01*
X155744761Y-101690000D01*
X155718571Y-101623333D01*
X155692380Y-101590000D01*
X155640000Y-101556666D01*
X155509047Y-101556666D01*
X155430476Y-101590000D01*
X155194761Y-101990000D02*
X154775714Y-101990000D01*
X154199523Y-102190000D02*
X154225714Y-102223333D01*
X154304285Y-102256666D01*
X154356666Y-102256666D01*
X154435238Y-102223333D01*
X154487619Y-102156666D01*
X154513809Y-102090000D01*
X154540000Y-101956666D01*
X154540000Y-101856666D01*
X154513809Y-101723333D01*
X154487619Y-101656666D01*
X154435238Y-101590000D01*
X154356666Y-101556666D01*
X154304285Y-101556666D01*
X154225714Y-101590000D01*
X154199523Y-101623333D01*
X153963809Y-102256666D02*
X153963809Y-101556666D01*
X153754285Y-101556666D01*
X153701904Y-101590000D01*
X153675714Y-101623333D01*
X153649523Y-101690000D01*
X153649523Y-101790000D01*
X153675714Y-101856666D01*
X153701904Y-101890000D01*
X153754285Y-101923333D01*
X153963809Y-101923333D01*
X153413809Y-101556666D02*
X153413809Y-102123333D01*
X153387619Y-102190000D01*
X153361428Y-102223333D01*
X153309047Y-102256666D01*
X153204285Y-102256666D01*
X153151904Y-102223333D01*
X153125714Y-102190000D01*
X153099523Y-102123333D01*
X153099523Y-101556666D01*
X152837619Y-101990000D02*
X152418571Y-101990000D01*
X152051904Y-101556666D02*
X151999523Y-101556666D01*
X151947142Y-101590000D01*
X151920952Y-101623333D01*
X151894761Y-101690000D01*
X151868571Y-101823333D01*
X151868571Y-101990000D01*
X151894761Y-102123333D01*
X151920952Y-102190000D01*
X151947142Y-102223333D01*
X151999523Y-102256666D01*
X152051904Y-102256666D01*
X152104285Y-102223333D01*
X152130476Y-102190000D01*
X152156666Y-102123333D01*
X152182857Y-101990000D01*
X152182857Y-101823333D01*
X152156666Y-101690000D01*
X152130476Y-101623333D01*
X152104285Y-101590000D01*
X152051904Y-101556666D01*
X151344761Y-102256666D02*
X151659047Y-102256666D01*
X151501904Y-102256666D02*
X151501904Y-101556666D01*
X151554285Y-101656666D01*
X151606666Y-101723333D01*
X151659047Y-101756666D01*
X150716190Y-101523333D02*
X151187619Y-102423333D01*
X150428095Y-101556666D02*
X150375714Y-101556666D01*
X150323333Y-101590000D01*
X150297142Y-101623333D01*
X150270952Y-101690000D01*
X150244761Y-101823333D01*
X150244761Y-101990000D01*
X150270952Y-102123333D01*
X150297142Y-102190000D01*
X150323333Y-102223333D01*
X150375714Y-102256666D01*
X150428095Y-102256666D01*
X150480476Y-102223333D01*
X150506666Y-102190000D01*
X150532857Y-102123333D01*
X150559047Y-101990000D01*
X150559047Y-101823333D01*
X150532857Y-101690000D01*
X150506666Y-101623333D01*
X150480476Y-101590000D01*
X150428095Y-101556666D01*
X150035238Y-101623333D02*
X150009047Y-101590000D01*
X149956666Y-101556666D01*
X149825714Y-101556666D01*
X149773333Y-101590000D01*
X149747142Y-101623333D01*
X149720952Y-101690000D01*
X149720952Y-101756666D01*
X149747142Y-101856666D01*
X150061428Y-102256666D01*
X149720952Y-102256666D01*
X149092380Y-101523333D02*
X149563809Y-102423333D01*
X148804285Y-101556666D02*
X148751904Y-101556666D01*
X148699523Y-101590000D01*
X148673333Y-101623333D01*
X148647142Y-101690000D01*
X148620952Y-101823333D01*
X148620952Y-101990000D01*
X148647142Y-102123333D01*
X148673333Y-102190000D01*
X148699523Y-102223333D01*
X148751904Y-102256666D01*
X148804285Y-102256666D01*
X148856666Y-102223333D01*
X148882857Y-102190000D01*
X148909047Y-102123333D01*
X148935238Y-101990000D01*
X148935238Y-101823333D01*
X148909047Y-101690000D01*
X148882857Y-101623333D01*
X148856666Y-101590000D01*
X148804285Y-101556666D01*
X148437619Y-101556666D02*
X148097142Y-101556666D01*
X148280476Y-101823333D01*
X148201904Y-101823333D01*
X148149523Y-101856666D01*
X148123333Y-101890000D01*
X148097142Y-101956666D01*
X148097142Y-102123333D01*
X148123333Y-102190000D01*
X148149523Y-102223333D01*
X148201904Y-102256666D01*
X148359047Y-102256666D01*
X148411428Y-102223333D01*
X148437619Y-102190000D01*
X147468571Y-101523333D02*
X147939999Y-102423333D01*
X147180476Y-101556666D02*
X147128095Y-101556666D01*
X147075714Y-101590000D01*
X147049523Y-101623333D01*
X147023333Y-101690000D01*
X146997142Y-101823333D01*
X146997142Y-101990000D01*
X147023333Y-102123333D01*
X147049523Y-102190000D01*
X147075714Y-102223333D01*
X147128095Y-102256666D01*
X147180476Y-102256666D01*
X147232857Y-102223333D01*
X147259047Y-102190000D01*
X147285238Y-102123333D01*
X147311428Y-101990000D01*
X147311428Y-101823333D01*
X147285238Y-101690000D01*
X147259047Y-101623333D01*
X147232857Y-101590000D01*
X147180476Y-101556666D01*
X146525714Y-101790000D02*
X146525714Y-102256666D01*
X146656666Y-101523333D02*
X146787619Y-102023333D01*
X146447142Y-102023333D01*
X145635238Y-101890000D02*
X145556666Y-101923333D01*
X145530476Y-101956666D01*
X145504285Y-102023333D01*
X145504285Y-102123333D01*
X145530476Y-102190000D01*
X145556666Y-102223333D01*
X145609047Y-102256666D01*
X145818571Y-102256666D01*
X145818571Y-101556666D01*
X145635238Y-101556666D01*
X145582857Y-101590000D01*
X145556666Y-101623333D01*
X145530476Y-101690000D01*
X145530476Y-101756666D01*
X145556666Y-101823333D01*
X145582857Y-101856666D01*
X145635238Y-101890000D01*
X145818571Y-101890000D01*
X145163809Y-101556666D02*
X145059047Y-101556666D01*
X145006666Y-101590000D01*
X144954285Y-101656666D01*
X144928095Y-101790000D01*
X144928095Y-102023333D01*
X144954285Y-102156666D01*
X145006666Y-102223333D01*
X145059047Y-102256666D01*
X145163809Y-102256666D01*
X145216190Y-102223333D01*
X145268571Y-102156666D01*
X145294761Y-102023333D01*
X145294761Y-101790000D01*
X145268571Y-101656666D01*
X145216190Y-101590000D01*
X145163809Y-101556666D01*
X144718571Y-102056666D02*
X144456666Y-102056666D01*
X144770952Y-102256666D02*
X144587619Y-101556666D01*
X144404285Y-102256666D01*
X143906666Y-102256666D02*
X144089999Y-101923333D01*
X144220952Y-102256666D02*
X144220952Y-101556666D01*
X144011428Y-101556666D01*
X143959047Y-101590000D01*
X143932857Y-101623333D01*
X143906666Y-101690000D01*
X143906666Y-101790000D01*
X143932857Y-101856666D01*
X143959047Y-101890000D01*
X144011428Y-101923333D01*
X144220952Y-101923333D01*
X143670952Y-102256666D02*
X143670952Y-101556666D01*
X143539999Y-101556666D01*
X143461428Y-101590000D01*
X143409047Y-101656666D01*
X143382857Y-101723333D01*
X143356666Y-101856666D01*
X143356666Y-101956666D01*
X143382857Y-102090000D01*
X143409047Y-102156666D01*
X143461428Y-102223333D01*
X143539999Y-102256666D01*
X143670952Y-102256666D01*
X143147142Y-102223333D02*
X143068571Y-102256666D01*
X142937619Y-102256666D01*
X142885238Y-102223333D01*
X142859047Y-102190000D01*
X142832857Y-102123333D01*
X142832857Y-102056666D01*
X142859047Y-101990000D01*
X142885238Y-101956666D01*
X142937619Y-101923333D01*
X143042380Y-101890000D01*
X143094761Y-101856666D01*
X143120952Y-101823333D01*
X143147142Y-101756666D01*
X143147142Y-101690000D01*
X143120952Y-101623333D01*
X143094761Y-101590000D01*
X143042380Y-101556666D01*
X142911428Y-101556666D01*
X142832857Y-101590000D01*
X142073333Y-101556666D02*
X141968571Y-101556666D01*
X141916190Y-101590000D01*
X141863809Y-101656666D01*
X141837619Y-101790000D01*
X141837619Y-102023333D01*
X141863809Y-102156666D01*
X141916190Y-102223333D01*
X141968571Y-102256666D01*
X142073333Y-102256666D01*
X142125714Y-102223333D01*
X142178095Y-102156666D01*
X142204285Y-102023333D01*
X142204285Y-101790000D01*
X142178095Y-101656666D01*
X142125714Y-101590000D01*
X142073333Y-101556666D01*
X141601904Y-102256666D02*
X141601904Y-101556666D01*
X141287619Y-102256666D01*
X141287619Y-101556666D01*
X140763809Y-102256666D02*
X141025714Y-102256666D01*
X141025714Y-101556666D01*
X140475714Y-101923333D02*
X140475714Y-102256666D01*
X140659047Y-101556666D02*
X140475714Y-101923333D01*
X140292380Y-101556666D01*
X140109047Y-102190000D02*
X140082857Y-102223333D01*
X140109047Y-102256666D01*
X140135238Y-102223333D01*
X140109047Y-102190000D01*
X140109047Y-102256666D01*
X140109047Y-101990000D02*
X140135238Y-101590000D01*
X140109047Y-101556666D01*
X140082857Y-101590000D01*
X140109047Y-101990000D01*
X140109047Y-101556666D01*
D11*
X152730000Y-96228095D02*
X152730000Y-94928095D01*
X152112857Y-96228095D01*
X152112857Y-94928095D01*
X151135714Y-94928095D02*
X151341428Y-94928095D01*
X151444285Y-94990000D01*
X151495714Y-95051904D01*
X151598571Y-95237619D01*
X151650000Y-95485238D01*
X151650000Y-95980476D01*
X151598571Y-96104285D01*
X151547142Y-96166190D01*
X151444285Y-96228095D01*
X151238571Y-96228095D01*
X151135714Y-96166190D01*
X151084285Y-96104285D01*
X151032857Y-95980476D01*
X151032857Y-95670952D01*
X151084285Y-95547142D01*
X151135714Y-95485238D01*
X151238571Y-95423333D01*
X151444285Y-95423333D01*
X151547142Y-95485238D01*
X151598571Y-95547142D01*
X151650000Y-95670952D01*
X150107142Y-95361428D02*
X150107142Y-96228095D01*
X150364285Y-94866190D02*
X150621428Y-95794761D01*
X149952857Y-95794761D01*
X148101428Y-96228095D02*
X148461428Y-95609047D01*
X148718571Y-96228095D02*
X148718571Y-94928095D01*
X148307142Y-94928095D01*
X148204285Y-94990000D01*
X148152857Y-95051904D01*
X148101428Y-95175714D01*
X148101428Y-95361428D01*
X148152857Y-95485238D01*
X148204285Y-95547142D01*
X148307142Y-95609047D01*
X148718571Y-95609047D01*
X147072857Y-94990000D02*
X147175714Y-94928095D01*
X147330000Y-94928095D01*
X147484285Y-94990000D01*
X147587142Y-95113809D01*
X147638571Y-95237619D01*
X147690000Y-95485238D01*
X147690000Y-95670952D01*
X147638571Y-95918571D01*
X147587142Y-96042380D01*
X147484285Y-96166190D01*
X147330000Y-96228095D01*
X147227142Y-96228095D01*
X147072857Y-96166190D01*
X147021428Y-96104285D01*
X147021428Y-95670952D01*
X147227142Y-95670952D01*
X146198571Y-95547142D02*
X146044285Y-95609047D01*
X145992857Y-95670952D01*
X145941428Y-95794761D01*
X145941428Y-95980476D01*
X145992857Y-96104285D01*
X146044285Y-96166190D01*
X146147142Y-96228095D01*
X146558571Y-96228095D01*
X146558571Y-94928095D01*
X146198571Y-94928095D01*
X146095714Y-94990000D01*
X146044285Y-95051904D01*
X145992857Y-95175714D01*
X145992857Y-95299523D01*
X146044285Y-95423333D01*
X146095714Y-95485238D01*
X146198571Y-95547142D01*
X146558571Y-95547142D01*
X144707142Y-95856666D02*
X144192857Y-95856666D01*
X144810000Y-96228095D02*
X144450000Y-94928095D01*
X144090000Y-96228095D01*
X143730000Y-96228095D02*
X143730000Y-94928095D01*
X143370000Y-95856666D01*
X143010000Y-94928095D01*
X143010000Y-96228095D01*
X142495714Y-96228095D02*
X142495714Y-94928095D01*
X142084285Y-94928095D01*
X141981428Y-94990000D01*
X141930000Y-95051904D01*
X141878571Y-95175714D01*
X141878571Y-95361428D01*
X141930000Y-95485238D01*
X141981428Y-95547142D01*
X142084285Y-95609047D01*
X142495714Y-95609047D01*
D12*
G36*
X151557694Y-105458596D02*
G01*
X151521707Y-105466370D01*
X151470526Y-105479396D01*
X151428144Y-105491096D01*
X151288950Y-105530670D01*
X151280131Y-105624029D01*
X151275236Y-105689281D01*
X151271989Y-105758213D01*
X151271212Y-105798350D01*
X151271111Y-105879312D01*
X151369537Y-105928878D01*
X151417780Y-105952393D01*
X151456590Y-105969872D01*
X151478896Y-105978165D01*
X151480817Y-105978444D01*
X151496177Y-105969407D01*
X151526635Y-105945179D01*
X151566904Y-105910092D01*
X151589366Y-105889550D01*
X151685059Y-105800655D01*
X151631416Y-105632022D01*
X151610645Y-105567516D01*
X151592752Y-105513421D01*
X151579535Y-105475074D01*
X151572795Y-105457808D01*
X151572555Y-105457456D01*
X151557694Y-105458596D01*
X151557694Y-105458596D01*
G37*
X151557694Y-105458596D02*
X151521707Y-105466370D01*
X151470526Y-105479396D01*
X151428144Y-105491096D01*
X151288950Y-105530670D01*
X151280131Y-105624029D01*
X151275236Y-105689281D01*
X151271989Y-105758213D01*
X151271212Y-105798350D01*
X151271111Y-105879312D01*
X151369537Y-105928878D01*
X151417780Y-105952393D01*
X151456590Y-105969872D01*
X151478896Y-105978165D01*
X151480817Y-105978444D01*
X151496177Y-105969407D01*
X151526635Y-105945179D01*
X151566904Y-105910092D01*
X151589366Y-105889550D01*
X151685059Y-105800655D01*
X151631416Y-105632022D01*
X151610645Y-105567516D01*
X151592752Y-105513421D01*
X151579535Y-105475074D01*
X151572795Y-105457808D01*
X151572555Y-105457456D01*
X151557694Y-105458596D01*
G36*
X149952826Y-105348124D02*
G01*
X149933505Y-105359071D01*
X149899015Y-105381663D01*
X149855028Y-105411855D01*
X149807217Y-105445604D01*
X149761253Y-105478867D01*
X149722809Y-105507602D01*
X149697558Y-105527765D01*
X149690667Y-105534987D01*
X149696165Y-105549017D01*
X149710977Y-105582958D01*
X149732583Y-105631099D01*
X149749121Y-105667397D01*
X149778047Y-105728714D01*
X149800842Y-105767768D01*
X149822737Y-105788127D01*
X149848961Y-105793362D01*
X149884746Y-105787045D01*
X149912917Y-105779213D01*
X149958778Y-105765971D01*
X149958778Y-105620177D01*
X149959708Y-105550021D01*
X149962204Y-105482357D01*
X149965824Y-105427327D01*
X149968076Y-105406543D01*
X149972558Y-105366401D01*
X149970432Y-105348100D01*
X149960153Y-105345721D01*
X149952826Y-105348124D01*
X149952826Y-105348124D01*
G37*
X149952826Y-105348124D02*
X149933505Y-105359071D01*
X149899015Y-105381663D01*
X149855028Y-105411855D01*
X149807217Y-105445604D01*
X149761253Y-105478867D01*
X149722809Y-105507602D01*
X149697558Y-105527765D01*
X149690667Y-105534987D01*
X149696165Y-105549017D01*
X149710977Y-105582958D01*
X149732583Y-105631099D01*
X149749121Y-105667397D01*
X149778047Y-105728714D01*
X149800842Y-105767768D01*
X149822737Y-105788127D01*
X149848961Y-105793362D01*
X149884746Y-105787045D01*
X149912917Y-105779213D01*
X149958778Y-105765971D01*
X149958778Y-105620177D01*
X149959708Y-105550021D01*
X149962204Y-105482357D01*
X149965824Y-105427327D01*
X149968076Y-105406543D01*
X149972558Y-105366401D01*
X149970432Y-105348100D01*
X149960153Y-105345721D01*
X149952826Y-105348124D01*
G36*
X148386632Y-105464808D02*
G01*
X148357743Y-105483792D01*
X148317065Y-105512051D01*
X148269953Y-105545707D01*
X148221763Y-105580880D01*
X148177850Y-105613691D01*
X148143572Y-105640261D01*
X148124284Y-105656710D01*
X148122354Y-105658894D01*
X148123841Y-105676625D01*
X148135468Y-105713202D01*
X148155012Y-105762097D01*
X148165747Y-105786272D01*
X148196718Y-105848655D01*
X148223833Y-105887124D01*
X148251817Y-105904655D01*
X148285398Y-105904220D01*
X148328945Y-105888947D01*
X148371278Y-105870644D01*
X148386321Y-105667017D01*
X148391461Y-105594508D01*
X148395426Y-105532766D01*
X148397922Y-105486884D01*
X148398653Y-105461958D01*
X148398374Y-105458979D01*
X148386632Y-105464808D01*
X148386632Y-105464808D01*
G37*
X148386632Y-105464808D02*
X148357743Y-105483792D01*
X148317065Y-105512051D01*
X148269953Y-105545707D01*
X148221763Y-105580880D01*
X148177850Y-105613691D01*
X148143572Y-105640261D01*
X148124284Y-105656710D01*
X148122354Y-105658894D01*
X148123841Y-105676625D01*
X148135468Y-105713202D01*
X148155012Y-105762097D01*
X148165747Y-105786272D01*
X148196718Y-105848655D01*
X148223833Y-105887124D01*
X148251817Y-105904655D01*
X148285398Y-105904220D01*
X148328945Y-105888947D01*
X148371278Y-105870644D01*
X148386321Y-105667017D01*
X148391461Y-105594508D01*
X148395426Y-105532766D01*
X148397922Y-105486884D01*
X148398653Y-105461958D01*
X148398374Y-105458979D01*
X148386632Y-105464808D01*
G36*
X151971388Y-108292012D02*
G01*
X151952577Y-108359757D01*
X151936879Y-108417327D01*
X151925699Y-108459486D01*
X151920445Y-108480996D01*
X151920222Y-108482512D01*
X151933770Y-108485836D01*
X151972270Y-108487418D01*
X152032507Y-108487287D01*
X152111266Y-108485469D01*
X152205334Y-108481989D01*
X152254418Y-108479764D01*
X152355781Y-108474913D01*
X152343396Y-108436706D01*
X152334180Y-108407377D01*
X152319181Y-108358676D01*
X152300746Y-108298258D01*
X152287288Y-108253861D01*
X152243566Y-108109222D01*
X152022554Y-108109222D01*
X151971388Y-108292012D01*
X151971388Y-108292012D01*
G37*
X151971388Y-108292012D02*
X151952577Y-108359757D01*
X151936879Y-108417327D01*
X151925699Y-108459486D01*
X151920445Y-108480996D01*
X151920222Y-108482512D01*
X151933770Y-108485836D01*
X151972270Y-108487418D01*
X152032507Y-108487287D01*
X152111266Y-108485469D01*
X152205334Y-108481989D01*
X152254418Y-108479764D01*
X152355781Y-108474913D01*
X152343396Y-108436706D01*
X152334180Y-108407377D01*
X152319181Y-108358676D01*
X152300746Y-108298258D01*
X152287288Y-108253861D01*
X152243566Y-108109222D01*
X152022554Y-108109222D01*
X151971388Y-108292012D01*
G36*
X151321646Y-104301776D02*
G01*
X151233192Y-104303172D01*
X151157260Y-104305930D01*
X151098943Y-104310117D01*
X151069304Y-104314343D01*
X151009850Y-104332497D01*
X150949133Y-104360199D01*
X150895530Y-104392754D01*
X150857419Y-104425471D01*
X150847917Y-104438356D01*
X150825776Y-104474869D01*
X150809721Y-104489903D01*
X150792014Y-104486586D01*
X150768310Y-104470522D01*
X150723458Y-104447710D01*
X150654380Y-104427486D01*
X150560007Y-104409635D01*
X150439274Y-104393942D01*
X150339778Y-104384238D01*
X150242787Y-104377100D01*
X150137066Y-104371598D01*
X150027227Y-104367750D01*
X149917885Y-104365579D01*
X149813653Y-104365105D01*
X149719144Y-104366349D01*
X149638973Y-104369334D01*
X149577752Y-104374079D01*
X149540163Y-104380584D01*
X149489368Y-104405550D01*
X149425275Y-104453147D01*
X149377036Y-104495893D01*
X149272692Y-104593339D01*
X149229155Y-104565774D01*
X149192263Y-104545963D01*
X149148758Y-104530171D01*
X149095510Y-104518086D01*
X149029389Y-104509394D01*
X148947265Y-104503781D01*
X148846007Y-104500934D01*
X148722485Y-104500539D01*
X148592256Y-104501980D01*
X148441259Y-104505063D01*
X148315100Y-104509664D01*
X148210407Y-104516542D01*
X148123805Y-104526455D01*
X148051922Y-104540162D01*
X147991383Y-104558420D01*
X147938816Y-104581988D01*
X147890847Y-104611622D01*
X147844103Y-104648083D01*
X147810833Y-104677586D01*
X147772500Y-104712820D01*
X147719111Y-104677735D01*
X147660417Y-104645945D01*
X147594569Y-104624403D01*
X147518320Y-104613051D01*
X147428421Y-104611833D01*
X147321622Y-104620692D01*
X147194675Y-104639571D01*
X147055384Y-104666133D01*
X146968887Y-104687472D01*
X146906845Y-104711316D01*
X146875913Y-104730253D01*
X146824488Y-104780300D01*
X146775915Y-104846019D01*
X146738482Y-104915389D01*
X146726940Y-104946334D01*
X146712989Y-104988482D01*
X146699750Y-105023154D01*
X146698522Y-105025944D01*
X146690253Y-105047623D01*
X146674674Y-105091436D01*
X146653361Y-105152731D01*
X146627889Y-105226855D01*
X146599835Y-105309156D01*
X146570775Y-105394982D01*
X146542285Y-105479679D01*
X146515941Y-105558597D01*
X146493320Y-105627082D01*
X146475996Y-105680482D01*
X146466675Y-105710333D01*
X146453332Y-105754063D01*
X146434868Y-105813561D01*
X146414739Y-105877709D01*
X146409658Y-105893778D01*
X146381984Y-105983757D01*
X146349281Y-106094315D01*
X146313302Y-106219153D01*
X146275799Y-106351973D01*
X146238526Y-106486477D01*
X146203234Y-106616367D01*
X146171676Y-106735345D01*
X146145604Y-106837113D01*
X146134153Y-106883825D01*
X146118550Y-106953792D01*
X146110448Y-107005984D01*
X146109035Y-107049597D01*
X146113501Y-107093826D01*
X146114864Y-107102547D01*
X146121313Y-107155189D01*
X146119138Y-107192608D01*
X146107324Y-107226761D01*
X146103675Y-107234333D01*
X146093468Y-107262129D01*
X146077963Y-107313935D01*
X146058039Y-107386224D01*
X146034571Y-107475466D01*
X146008436Y-107578133D01*
X145980511Y-107690698D01*
X145951673Y-107809631D01*
X145922798Y-107931405D01*
X145894763Y-108052491D01*
X145868444Y-108169361D01*
X145847716Y-108264444D01*
X145807496Y-108459775D01*
X145768156Y-108664895D01*
X145730933Y-108872615D01*
X145697065Y-109075743D01*
X145667788Y-109267088D01*
X145644341Y-109439460D01*
X145641324Y-109463889D01*
X145632395Y-109534885D01*
X145622863Y-109606809D01*
X145614388Y-109667240D01*
X145612095Y-109682611D01*
X145590828Y-109837186D01*
X145575672Y-109980782D01*
X145566765Y-110110217D01*
X145564246Y-110222314D01*
X145568254Y-110313891D01*
X145578927Y-110381770D01*
X145581247Y-110390167D01*
X145613315Y-110454748D01*
X145665971Y-110514707D01*
X145731698Y-110562837D01*
X145787001Y-110587466D01*
X145856940Y-110602336D01*
X145952998Y-110611030D01*
X146073747Y-110613502D01*
X146217757Y-110609705D01*
X146311056Y-110604632D01*
X146450367Y-110594294D01*
X146564812Y-110582084D01*
X146657729Y-110567181D01*
X146732453Y-110548761D01*
X146792322Y-110526001D01*
X146840673Y-110498078D01*
X146880843Y-110464170D01*
X146880896Y-110464118D01*
X146913996Y-110426064D01*
X146940058Y-110382970D01*
X146960617Y-110330039D01*
X146977210Y-110262474D01*
X146991373Y-110175480D01*
X147002418Y-110084778D01*
X147019452Y-109932305D01*
X147034590Y-109800840D01*
X147047675Y-109691650D01*
X147058547Y-109605998D01*
X147067049Y-109545152D01*
X147073022Y-109510376D01*
X147075302Y-109502588D01*
X147088394Y-109505347D01*
X147115802Y-109523482D01*
X147148158Y-109550114D01*
X147192638Y-109585912D01*
X147237722Y-109616418D01*
X147263556Y-109630292D01*
X147315748Y-109644426D01*
X147383770Y-109651361D01*
X147456108Y-109650888D01*
X147521248Y-109642795D01*
X147548436Y-109635512D01*
X147601353Y-109607290D01*
X147656461Y-109562168D01*
X147704265Y-109508933D01*
X147730631Y-109466900D01*
X147752830Y-109421063D01*
X147770626Y-109481282D01*
X147788687Y-109532836D01*
X147810445Y-109582883D01*
X147814520Y-109590889D01*
X147829158Y-109621536D01*
X147851665Y-109672223D01*
X147879378Y-109736804D01*
X147909637Y-109809133D01*
X147921438Y-109837833D01*
X147952574Y-109911873D01*
X147983085Y-109980765D01*
X148010090Y-110038254D01*
X148030709Y-110078080D01*
X148036191Y-110087161D01*
X148096912Y-110154470D01*
X148177811Y-110202491D01*
X148259031Y-110227147D01*
X148309025Y-110235509D01*
X148351375Y-110236756D01*
X148398266Y-110230353D01*
X148449531Y-110218806D01*
X148503048Y-110205124D01*
X148547404Y-110192636D01*
X148574042Y-110183771D01*
X148575889Y-110182948D01*
X148622385Y-110162256D01*
X148675697Y-110142467D01*
X148744678Y-110120387D01*
X148772495Y-110112023D01*
X148877378Y-110080833D01*
X148906550Y-110115648D01*
X148973691Y-110174043D01*
X149061287Y-110214334D01*
X149167888Y-110236212D01*
X149292048Y-110239371D01*
X149422556Y-110225149D01*
X149470957Y-110218185D01*
X149536838Y-110210045D01*
X149609563Y-110202002D01*
X149648333Y-110198110D01*
X149750741Y-110186753D01*
X149837838Y-110174061D01*
X149906105Y-110160688D01*
X149952022Y-110147286D01*
X149968417Y-110138707D01*
X149994655Y-110134998D01*
X150017806Y-110145745D01*
X150052615Y-110163751D01*
X150094653Y-110177316D01*
X150147544Y-110186780D01*
X150214911Y-110192481D01*
X150300380Y-110194760D01*
X150407574Y-110193955D01*
X150506148Y-110191479D01*
X150639183Y-110186532D01*
X150747311Y-110180089D01*
X150833835Y-110171440D01*
X150902061Y-110159875D01*
X150955292Y-110144681D01*
X150996831Y-110125148D01*
X151029984Y-110100564D01*
X151055630Y-110073229D01*
X151066320Y-110064392D01*
X151083227Y-110061200D01*
X151111703Y-110064169D01*
X151157098Y-110073817D01*
X151217908Y-110088909D01*
X151288428Y-110107214D01*
X151358225Y-110125873D01*
X151416835Y-110142065D01*
X151440445Y-110148878D01*
X151529497Y-110174789D01*
X151597177Y-110192848D01*
X151648972Y-110203873D01*
X151690369Y-110208679D01*
X151726854Y-110208083D01*
X151763915Y-110202901D01*
X151781034Y-110199540D01*
X151874919Y-110170778D01*
X151948462Y-110126091D01*
X152004004Y-110062914D01*
X152043882Y-109978682D01*
X152067884Y-109885066D01*
X152080228Y-109819962D01*
X152092612Y-109755891D01*
X152102641Y-109705221D01*
X152103869Y-109699173D01*
X152112335Y-109649144D01*
X152117265Y-109603410D01*
X152117778Y-109589812D01*
X152120262Y-109562962D01*
X152133193Y-109551304D01*
X152164791Y-109548580D01*
X152171962Y-109548556D01*
X152226147Y-109548556D01*
X152242790Y-109643806D01*
X152253591Y-109709833D01*
X152264943Y-109785760D01*
X152273034Y-109844889D01*
X152291565Y-109958295D01*
X152314846Y-110048775D01*
X152342285Y-110114264D01*
X152356486Y-110135871D01*
X152409039Y-110189684D01*
X152472002Y-110228653D01*
X152548258Y-110253315D01*
X152640689Y-110264207D01*
X152752178Y-110261866D01*
X152885607Y-110246830D01*
X152922111Y-110241249D01*
X152944863Y-110238074D01*
X152967693Y-110236461D01*
X152993597Y-110236922D01*
X153025572Y-110239974D01*
X153066612Y-110246131D01*
X153119713Y-110255908D01*
X153187871Y-110269819D01*
X153274080Y-110288380D01*
X153381338Y-110312106D01*
X153512639Y-110341511D01*
X153535945Y-110346747D01*
X153627951Y-110365907D01*
X153700368Y-110376749D01*
X153760477Y-110379579D01*
X153815561Y-110374705D01*
X153872901Y-110362434D01*
X153877655Y-110361182D01*
X153952086Y-110333116D01*
X154013011Y-110290378D01*
X154063292Y-110229555D01*
X154105790Y-110147234D01*
X154141370Y-110046631D01*
X154162389Y-109977862D01*
X154187995Y-109894867D01*
X154216095Y-109804347D01*
X154244596Y-109713005D01*
X154271408Y-109627542D01*
X154294438Y-109554660D01*
X154311595Y-109501060D01*
X154313517Y-109495146D01*
X154325652Y-109453108D01*
X154332592Y-109419767D01*
X154333222Y-109412196D01*
X154340201Y-109412911D01*
X154358912Y-109433536D01*
X154386022Y-109470120D01*
X154402125Y-109493828D01*
X154454593Y-109565581D01*
X154505061Y-109615738D01*
X154560444Y-109649481D01*
X154627658Y-109671991D01*
X154645387Y-109676096D01*
X154736829Y-109683854D01*
X154826702Y-109669496D01*
X154908715Y-109635377D01*
X154976579Y-109583850D01*
X155012227Y-109538796D01*
X155031948Y-109509885D01*
X155045208Y-109495930D01*
X155047204Y-109495833D01*
X155053446Y-109513045D01*
X155063370Y-109553300D01*
X155076042Y-109611799D01*
X155090529Y-109683744D01*
X155105900Y-109764335D01*
X155121220Y-109848773D01*
X155135556Y-109932259D01*
X155147977Y-110009994D01*
X155150727Y-110028333D01*
X155162849Y-110107971D01*
X155175063Y-110183911D01*
X155186134Y-110248744D01*
X155194827Y-110295060D01*
X155196621Y-110303500D01*
X155227941Y-110392479D01*
X155278968Y-110462783D01*
X155351228Y-110515885D01*
X155446246Y-110553260D01*
X155458407Y-110556540D01*
X155486792Y-110563364D01*
X155513942Y-110567980D01*
X155544070Y-110570238D01*
X155581392Y-110569991D01*
X155630121Y-110567091D01*
X155694472Y-110561390D01*
X155778659Y-110552739D01*
X155880342Y-110541709D01*
X155981984Y-110530614D01*
X156080788Y-110519918D01*
X156171140Y-110510221D01*
X156247424Y-110502124D01*
X156304026Y-110496230D01*
X156322889Y-110494326D01*
X156401741Y-110485129D01*
X156460144Y-110474235D01*
X156505866Y-110459488D01*
X156546678Y-110438731D01*
X156565177Y-110427076D01*
X156625906Y-110371580D01*
X156674036Y-110296735D01*
X156705938Y-110209950D01*
X156715967Y-110133915D01*
X156372278Y-110133915D01*
X156019500Y-110171267D01*
X155920914Y-110181763D01*
X155830100Y-110191543D01*
X155751322Y-110200137D01*
X155688844Y-110207079D01*
X155646928Y-110211900D01*
X155631445Y-110213858D01*
X155594958Y-110219386D01*
X155567975Y-110221136D01*
X155548355Y-110215558D01*
X155533955Y-110199100D01*
X155522633Y-110168211D01*
X155512246Y-110119340D01*
X155500651Y-110048935D01*
X155489730Y-109978944D01*
X155472975Y-109876836D01*
X155453054Y-109762686D01*
X155432148Y-109648608D01*
X155412442Y-109546715D01*
X155407090Y-109520333D01*
X155391636Y-109448308D01*
X155372288Y-109362924D01*
X155350083Y-109268308D01*
X155326059Y-109168590D01*
X155301254Y-109067899D01*
X155276707Y-108970363D01*
X155253454Y-108880112D01*
X155232534Y-108801275D01*
X155214986Y-108737979D01*
X155201846Y-108694355D01*
X155194678Y-108675379D01*
X155186002Y-108676622D01*
X155167367Y-108695485D01*
X155137853Y-108733217D01*
X155096541Y-108791067D01*
X155042514Y-108870284D01*
X154974853Y-108972116D01*
X154961539Y-108992359D01*
X154904158Y-109079553D01*
X154851570Y-109159151D01*
X154805829Y-109228067D01*
X154768991Y-109283215D01*
X154743112Y-109321509D01*
X154730248Y-109339862D01*
X154729446Y-109340839D01*
X154717887Y-109334536D01*
X154694904Y-109308824D01*
X154664171Y-109268138D01*
X154639245Y-109231969D01*
X154600269Y-109174465D01*
X154549121Y-109100541D01*
X154490294Y-109016554D01*
X154428278Y-108928861D01*
X154367565Y-108843822D01*
X154312647Y-108767793D01*
X154277236Y-108719528D01*
X154253459Y-108690639D01*
X154235771Y-108674736D01*
X154232720Y-108673667D01*
X154225925Y-108686611D01*
X154211701Y-108723362D01*
X154191068Y-108780799D01*
X154165045Y-108855801D01*
X154134651Y-108945245D01*
X154100903Y-109046012D01*
X154064822Y-109154979D01*
X154027426Y-109269025D01*
X153989733Y-109385029D01*
X153952764Y-109499869D01*
X153917535Y-109610425D01*
X153885067Y-109713574D01*
X153856377Y-109806196D01*
X153832486Y-109885169D01*
X153814411Y-109947371D01*
X153803176Y-109989661D01*
X153792260Y-110020772D01*
X153781209Y-110036427D01*
X153761997Y-110037357D01*
X153723675Y-110032318D01*
X153674462Y-110022400D01*
X153673411Y-110022156D01*
X153629678Y-110012200D01*
X153564468Y-109997615D01*
X153483886Y-109979754D01*
X153394038Y-109959971D01*
X153301026Y-109939617D01*
X153294548Y-109938205D01*
X153010818Y-109876351D01*
X152885326Y-109895937D01*
X152819282Y-109906079D01*
X152755124Y-109915652D01*
X152704261Y-109922960D01*
X152694048Y-109924358D01*
X152628263Y-109933192D01*
X152618205Y-109850235D01*
X152612851Y-109810211D01*
X152603943Y-109748253D01*
X152592364Y-109670296D01*
X152578996Y-109582277D01*
X152564721Y-109490134D01*
X152563926Y-109485056D01*
X152519705Y-109202833D01*
X152182125Y-109199044D01*
X152087066Y-109198462D01*
X152001367Y-109198861D01*
X151929075Y-109200147D01*
X151874235Y-109202226D01*
X151840891Y-109205004D01*
X151832622Y-109207179D01*
X151826411Y-109225152D01*
X151818337Y-109265245D01*
X151809449Y-109321505D01*
X151800869Y-109387357D01*
X151791405Y-109463593D01*
X151780478Y-109545100D01*
X151768864Y-109626789D01*
X151757338Y-109703568D01*
X151746676Y-109770348D01*
X151737655Y-109822039D01*
X151731049Y-109853550D01*
X151728778Y-109860354D01*
X151714257Y-109859419D01*
X151676712Y-109851916D01*
X151620314Y-109838821D01*
X151549235Y-109821112D01*
X151467646Y-109799764D01*
X151451539Y-109795441D01*
X151357249Y-109770514D01*
X151262094Y-109746200D01*
X151173251Y-109724274D01*
X151097898Y-109706511D01*
X151047123Y-109695463D01*
X150989397Y-109682280D01*
X150942965Y-109668763D01*
X150914263Y-109656936D01*
X150908321Y-109651773D01*
X150910554Y-109631440D01*
X150922634Y-109586304D01*
X150944062Y-109517817D01*
X150974338Y-109427432D01*
X151012962Y-109316604D01*
X151059436Y-109186784D01*
X151113260Y-109039428D01*
X151173935Y-108875987D01*
X151186284Y-108843000D01*
X151225597Y-108737655D01*
X151271818Y-108613021D01*
X151322276Y-108476354D01*
X151374297Y-108334911D01*
X151425208Y-108195948D01*
X151472334Y-108066720D01*
X151477403Y-108052778D01*
X151542226Y-107874342D01*
X151598088Y-107720587D01*
X151645714Y-107589684D01*
X151685828Y-107479807D01*
X151719157Y-107389127D01*
X151746426Y-107315817D01*
X151768359Y-107258049D01*
X151769443Y-107255292D01*
X151401903Y-107255292D01*
X151393707Y-107286055D01*
X151377311Y-107339477D01*
X151376597Y-107335160D01*
X151028191Y-107335160D01*
X151027031Y-107368080D01*
X151024296Y-107412842D01*
X151019873Y-107471252D01*
X151013653Y-107545121D01*
X151005525Y-107636256D01*
X150995378Y-107746466D01*
X150983104Y-107877560D01*
X150968590Y-108031346D01*
X150951726Y-108209633D01*
X150932556Y-108412611D01*
X150917045Y-108577269D01*
X150901681Y-108740689D01*
X150886779Y-108899487D01*
X150872657Y-109050279D01*
X150859631Y-109189680D01*
X150848016Y-109314306D01*
X150838130Y-109420772D01*
X150830288Y-109505694D01*
X150825080Y-109562667D01*
X150817167Y-109645636D01*
X150809439Y-109718730D01*
X150802441Y-109777372D01*
X150796719Y-109816985D01*
X150792857Y-109832952D01*
X150776786Y-109836185D01*
X150736814Y-109839924D01*
X150677251Y-109843893D01*
X150602407Y-109847814D01*
X150516593Y-109851411D01*
X150491702Y-109852305D01*
X150199127Y-109862428D01*
X150195369Y-109477400D01*
X150191611Y-109092373D01*
X150022278Y-109052914D01*
X149954550Y-109037581D01*
X149895011Y-109024931D01*
X149850057Y-109016268D01*
X149826086Y-109012896D01*
X149825983Y-109012894D01*
X149818218Y-109013697D01*
X149812202Y-109018481D01*
X149807803Y-109030263D01*
X149804886Y-109052063D01*
X149803319Y-109086901D01*
X149802967Y-109137794D01*
X149803697Y-109207762D01*
X149805375Y-109299823D01*
X149807868Y-109416997D01*
X149807947Y-109420590D01*
X149816871Y-109828846D01*
X149743186Y-109838031D01*
X149701405Y-109843285D01*
X149639428Y-109851137D01*
X149565052Y-109860598D01*
X149486075Y-109870676D01*
X149471945Y-109872483D01*
X149395850Y-109881897D01*
X149325719Y-109889995D01*
X149268337Y-109896033D01*
X149230491Y-109899266D01*
X149225000Y-109899545D01*
X149175611Y-109901339D01*
X149176763Y-109635409D01*
X149083889Y-109635409D01*
X149070246Y-109649134D01*
X149030094Y-109667897D01*
X148964596Y-109691196D01*
X148925139Y-109703647D01*
X148852623Y-109726286D01*
X148763327Y-109754851D01*
X148667174Y-109786132D01*
X148574086Y-109816919D01*
X148547667Y-109825771D01*
X148473877Y-109849858D01*
X148409615Y-109869453D01*
X148359522Y-109883249D01*
X148328242Y-109889943D01*
X148320066Y-109889749D01*
X148310472Y-109872147D01*
X148291522Y-109830893D01*
X148264291Y-109768561D01*
X148229854Y-109687723D01*
X148189285Y-109590954D01*
X148143659Y-109480824D01*
X148094050Y-109359908D01*
X148041532Y-109230777D01*
X147987181Y-109096006D01*
X147954907Y-109015433D01*
X147905512Y-108892796D01*
X147865189Y-108795014D01*
X147833205Y-108720476D01*
X147808827Y-108667571D01*
X147791324Y-108634691D01*
X147779963Y-108620223D01*
X147775160Y-108620321D01*
X147765157Y-108637340D01*
X147744402Y-108676153D01*
X147714694Y-108733275D01*
X147677829Y-108805220D01*
X147635606Y-108888504D01*
X147589821Y-108979642D01*
X147589350Y-108980583D01*
X147544122Y-109070625D01*
X147502971Y-109151797D01*
X147467576Y-109220848D01*
X147439617Y-109274525D01*
X147420772Y-109309577D01*
X147412722Y-109322751D01*
X147412639Y-109322778D01*
X147401916Y-109312897D01*
X147374520Y-109285041D01*
X147333011Y-109241888D01*
X147279952Y-109186116D01*
X147217901Y-109120404D01*
X147149589Y-109047611D01*
X147080907Y-108974591D01*
X147018391Y-108908853D01*
X146964652Y-108853085D01*
X146922299Y-108809970D01*
X146893941Y-108782195D01*
X146882208Y-108772444D01*
X146876020Y-108785486D01*
X146865533Y-108821425D01*
X146851978Y-108875485D01*
X146836589Y-108942891D01*
X146828491Y-108980583D01*
X146803495Y-109100135D01*
X146782477Y-109203255D01*
X146764683Y-109294837D01*
X146749361Y-109379774D01*
X146735757Y-109462960D01*
X146723116Y-109549287D01*
X146710686Y-109643649D01*
X146697713Y-109750940D01*
X146683443Y-109876052D01*
X146667123Y-110023879D01*
X146665430Y-110039358D01*
X146657389Y-110106586D01*
X146649294Y-110163377D01*
X146642059Y-110203952D01*
X146636599Y-110222534D01*
X146636370Y-110222803D01*
X146617767Y-110228682D01*
X146576425Y-110234679D01*
X146516819Y-110240594D01*
X146443422Y-110246231D01*
X146360709Y-110251390D01*
X146273153Y-110255875D01*
X146185229Y-110259486D01*
X146101412Y-110262026D01*
X146026174Y-110263298D01*
X145963992Y-110263102D01*
X145919338Y-110261242D01*
X145896686Y-110257519D01*
X145894778Y-110255618D01*
X145896411Y-110230816D01*
X145900976Y-110182458D01*
X145907974Y-110114999D01*
X145916903Y-110032896D01*
X145927263Y-109940606D01*
X145938553Y-109842584D01*
X145950274Y-109743286D01*
X145961924Y-109647170D01*
X145973003Y-109558690D01*
X145973396Y-109555611D01*
X145991093Y-109424937D01*
X146012765Y-109277149D01*
X146037386Y-109118407D01*
X146063928Y-108954872D01*
X146091364Y-108792701D01*
X146118665Y-108638056D01*
X146144804Y-108497096D01*
X146168753Y-108375981D01*
X146175865Y-108342056D01*
X146200218Y-108230506D01*
X146226649Y-108114020D01*
X146254318Y-107995899D01*
X146282385Y-107879440D01*
X146310010Y-107767944D01*
X146336354Y-107664711D01*
X146360577Y-107573039D01*
X146381837Y-107496228D01*
X146399297Y-107437579D01*
X146412115Y-107400390D01*
X146418687Y-107388145D01*
X146441032Y-107382515D01*
X146483706Y-107378189D01*
X146538825Y-107375869D01*
X146559360Y-107375660D01*
X146635471Y-107374418D01*
X146721921Y-107371351D01*
X146800937Y-107367101D01*
X146806305Y-107366736D01*
X146931945Y-107358029D01*
X147005328Y-107518431D01*
X147061886Y-107641266D01*
X147113258Y-107751272D01*
X147158424Y-107846356D01*
X147196362Y-107924423D01*
X147226053Y-107983379D01*
X147246477Y-108021131D01*
X147256613Y-108035583D01*
X147257273Y-108035542D01*
X147262832Y-108020886D01*
X147275278Y-107982823D01*
X147293474Y-107925004D01*
X147316283Y-107851079D01*
X147342568Y-107764698D01*
X147367980Y-107680242D01*
X147396340Y-107585936D01*
X147422153Y-107500914D01*
X147444296Y-107428805D01*
X147461647Y-107373243D01*
X147473084Y-107337857D01*
X147477384Y-107326270D01*
X147493417Y-107322812D01*
X147532368Y-107318361D01*
X147589121Y-107313248D01*
X147658560Y-107307804D01*
X147735568Y-107302357D01*
X147815028Y-107297239D01*
X147891825Y-107292778D01*
X147960841Y-107289305D01*
X148016960Y-107287150D01*
X148055065Y-107286643D01*
X148069993Y-107288054D01*
X148077469Y-107303212D01*
X148094009Y-107341135D01*
X148118181Y-107398390D01*
X148148550Y-107471545D01*
X148183683Y-107557168D01*
X148222145Y-107651827D01*
X148227357Y-107664722D01*
X148355241Y-107976422D01*
X148488929Y-108293138D01*
X148623868Y-108604238D01*
X148755509Y-108899085D01*
X148757894Y-108904341D01*
X148793055Y-108982108D01*
X148823835Y-109050786D01*
X148848457Y-109106361D01*
X148865145Y-109144819D01*
X148872121Y-109162147D01*
X148872222Y-109162642D01*
X148877973Y-109176871D01*
X148893924Y-109212343D01*
X148918129Y-109264826D01*
X148948638Y-109330089D01*
X148978056Y-109392419D01*
X149012565Y-109466316D01*
X149042364Y-109532190D01*
X149065472Y-109585492D01*
X149079910Y-109621677D01*
X149083889Y-109635409D01*
X149176763Y-109635409D01*
X149178104Y-109326308D01*
X149179101Y-109183684D01*
X149180824Y-109034590D01*
X149183159Y-108884902D01*
X149185992Y-108740497D01*
X149189209Y-108607251D01*
X149192695Y-108491040D01*
X149195984Y-108405556D01*
X149203541Y-108241483D01*
X149211362Y-108082345D01*
X149219292Y-107930571D01*
X149227179Y-107788592D01*
X149234871Y-107658839D01*
X149242215Y-107543744D01*
X149249060Y-107445736D01*
X149255251Y-107367246D01*
X149258061Y-107337744D01*
X148912682Y-107337744D01*
X148909475Y-107374465D01*
X148909261Y-107376179D01*
X148906362Y-107408233D01*
X148902561Y-107463546D01*
X148898145Y-107537184D01*
X148893404Y-107624208D01*
X148888624Y-107719682D01*
X148886241Y-107770556D01*
X148881527Y-107869589D01*
X148876696Y-107963770D01*
X148872042Y-108047894D01*
X148867860Y-108116759D01*
X148864442Y-108165162D01*
X148863144Y-108179754D01*
X148855205Y-108257342D01*
X148821997Y-108193865D01*
X148799888Y-108148705D01*
X148772945Y-108089568D01*
X148746739Y-108028712D01*
X148745015Y-108024556D01*
X148716985Y-107956863D01*
X148684867Y-107879413D01*
X148655419Y-107808501D01*
X148654309Y-107805833D01*
X148614559Y-107708700D01*
X148566126Y-107587716D01*
X148510065Y-107445521D01*
X148495750Y-107408934D01*
X148505388Y-107399272D01*
X148542621Y-107391042D01*
X148607736Y-107384182D01*
X148613852Y-107383713D01*
X148706905Y-107374609D01*
X148787162Y-107362578D01*
X148849970Y-107348525D01*
X148890678Y-107333352D01*
X148898200Y-107328470D01*
X148909279Y-107323946D01*
X148912682Y-107337744D01*
X149258061Y-107337744D01*
X149260638Y-107310706D01*
X149265066Y-107278547D01*
X149267103Y-107272057D01*
X149285204Y-107265898D01*
X149327225Y-107257961D01*
X149388961Y-107248791D01*
X149466208Y-107238932D01*
X149554759Y-107228928D01*
X149650410Y-107219325D01*
X149727725Y-107212422D01*
X149842395Y-107202772D01*
X149848224Y-107683597D01*
X149849836Y-107797341D01*
X149851765Y-107901967D01*
X149853916Y-107994165D01*
X149856194Y-108070623D01*
X149858502Y-108128030D01*
X149860745Y-108163075D01*
X149862367Y-108172737D01*
X149878760Y-108178136D01*
X149916763Y-108186560D01*
X149970218Y-108196963D01*
X150032968Y-108208295D01*
X150098858Y-108219511D01*
X150161730Y-108229561D01*
X150215428Y-108237399D01*
X150253795Y-108241976D01*
X150270674Y-108242245D01*
X150270715Y-108242222D01*
X150273556Y-108227263D01*
X150276890Y-108188087D01*
X150280492Y-108128690D01*
X150284137Y-108053067D01*
X150287600Y-107965214D01*
X150289489Y-107908564D01*
X150293830Y-107777474D01*
X150298519Y-107650746D01*
X150303402Y-107531441D01*
X150308327Y-107422623D01*
X150313141Y-107327355D01*
X150317690Y-107248699D01*
X150321823Y-107189717D01*
X150325387Y-107153473D01*
X150327689Y-107142940D01*
X150341983Y-107144587D01*
X150379477Y-107151396D01*
X150435811Y-107162454D01*
X150506625Y-107176846D01*
X150587560Y-107193657D01*
X150674256Y-107211971D01*
X150762352Y-107230875D01*
X150847489Y-107249452D01*
X150925307Y-107266789D01*
X150991446Y-107281970D01*
X151001438Y-107284323D01*
X151008222Y-107285002D01*
X151014204Y-107284861D01*
X151019271Y-107285709D01*
X151023314Y-107289354D01*
X151026221Y-107297605D01*
X151027884Y-107312271D01*
X151028191Y-107335160D01*
X151376597Y-107335160D01*
X151368032Y-107283377D01*
X151363307Y-107246904D01*
X151362859Y-107224484D01*
X151363713Y-107222007D01*
X151379178Y-107221596D01*
X151389387Y-107224685D01*
X151401627Y-107234489D01*
X151401903Y-107255292D01*
X151769443Y-107255292D01*
X151785682Y-107213997D01*
X151799121Y-107181831D01*
X151809399Y-107159726D01*
X151817244Y-107145852D01*
X151823379Y-107138383D01*
X151828530Y-107135492D01*
X151833423Y-107135349D01*
X151838782Y-107136129D01*
X151841089Y-107136287D01*
X151868817Y-107138352D01*
X151916513Y-107143313D01*
X151978951Y-107150497D01*
X152050902Y-107159231D01*
X152127139Y-107168843D01*
X152202436Y-107178662D01*
X152271565Y-107188014D01*
X152329299Y-107196228D01*
X152370410Y-107202630D01*
X152389672Y-107206549D01*
X152390420Y-107206944D01*
X152394869Y-107214964D01*
X152405162Y-107235846D01*
X152422033Y-107271158D01*
X152446215Y-107322469D01*
X152478443Y-107391347D01*
X152519450Y-107479360D01*
X152569969Y-107588077D01*
X152630735Y-107719068D01*
X152702480Y-107873899D01*
X152713437Y-107897556D01*
X152769203Y-108019255D01*
X152828051Y-108150000D01*
X152888231Y-108285720D01*
X152947993Y-108422343D01*
X153005584Y-108555797D01*
X153059256Y-108682010D01*
X153107255Y-108796910D01*
X153147833Y-108896427D01*
X153179238Y-108976487D01*
X153191263Y-109008806D01*
X153212000Y-109064117D01*
X153229760Y-109107807D01*
X153242147Y-109134178D01*
X153246137Y-109139333D01*
X153253416Y-109126012D01*
X153266204Y-109087841D01*
X153283840Y-109027511D01*
X153305665Y-108947713D01*
X153331019Y-108851138D01*
X153359242Y-108740475D01*
X153389674Y-108618416D01*
X153421656Y-108487652D01*
X153454528Y-108350872D01*
X153487629Y-108210767D01*
X153520301Y-108070028D01*
X153551882Y-107931346D01*
X153581715Y-107797411D01*
X153609138Y-107670913D01*
X153626780Y-107587111D01*
X153646884Y-107490332D01*
X153665437Y-107401267D01*
X153681560Y-107324110D01*
X153690300Y-107282471D01*
X153345445Y-107282471D01*
X153342404Y-107303890D01*
X153334189Y-107346054D01*
X153322164Y-107402253D01*
X153311765Y-107448277D01*
X153296470Y-107516796D01*
X153282737Y-107582369D01*
X153272499Y-107635576D01*
X153268834Y-107657667D01*
X153260913Y-107703005D01*
X153248996Y-107760296D01*
X153234400Y-107824368D01*
X153218444Y-107890046D01*
X153202446Y-107952158D01*
X153187724Y-108005532D01*
X153175596Y-108044993D01*
X153167380Y-108065368D01*
X153164787Y-108066015D01*
X153156728Y-108044903D01*
X153140001Y-108004748D01*
X153117442Y-107952278D01*
X153102744Y-107918722D01*
X153069232Y-107844112D01*
X153030430Y-107759786D01*
X152993529Y-107681338D01*
X152985565Y-107664722D01*
X152951052Y-107592501D01*
X152911492Y-107508856D01*
X152873603Y-107428013D01*
X152860647Y-107400139D01*
X152796901Y-107262556D01*
X153071173Y-107262556D01*
X153167817Y-107262868D01*
X153239603Y-107263968D01*
X153289889Y-107266099D01*
X153322033Y-107269505D01*
X153339394Y-107274431D01*
X153345330Y-107281119D01*
X153345445Y-107282471D01*
X153690300Y-107282471D01*
X153694375Y-107263059D01*
X153703005Y-107222308D01*
X153706197Y-107207607D01*
X153711394Y-107190709D01*
X153721560Y-107181261D01*
X153742963Y-107177898D01*
X153781870Y-107179250D01*
X153822473Y-107182240D01*
X153882964Y-107187296D01*
X153960151Y-107194271D01*
X154042664Y-107202119D01*
X154097898Y-107207611D01*
X154264739Y-107224566D01*
X154456467Y-107606922D01*
X154648196Y-107989278D01*
X154667129Y-107918722D01*
X154676463Y-107883580D01*
X154691512Y-107826501D01*
X154710863Y-107752855D01*
X154733107Y-107668014D01*
X154756833Y-107577348D01*
X154761658Y-107558889D01*
X154837253Y-107269611D01*
X154927432Y-107273841D01*
X154992214Y-107277729D01*
X155067626Y-107283604D01*
X155148589Y-107290915D01*
X155230022Y-107299106D01*
X155306847Y-107307626D01*
X155373983Y-107315921D01*
X155426352Y-107323438D01*
X155458872Y-107329623D01*
X155466888Y-107332592D01*
X155476832Y-107349758D01*
X155495999Y-107389547D01*
X155522899Y-107448472D01*
X155556039Y-107523048D01*
X155593929Y-107609788D01*
X155635077Y-107705206D01*
X155677992Y-107805815D01*
X155721182Y-107908129D01*
X155763156Y-108008662D01*
X155802422Y-108103928D01*
X155837491Y-108190441D01*
X155866869Y-108264713D01*
X155877933Y-108293472D01*
X156004546Y-108645498D01*
X156115020Y-108994796D01*
X156213340Y-109354262D01*
X156244241Y-109479152D01*
X156265212Y-109568771D01*
X156286850Y-109666029D01*
X156308052Y-109765469D01*
X156327711Y-109861632D01*
X156344724Y-109949063D01*
X156357985Y-110022305D01*
X156366390Y-110075902D01*
X156368252Y-110091708D01*
X156372278Y-110133915D01*
X156715967Y-110133915D01*
X156717983Y-110118635D01*
X156718000Y-110115136D01*
X156714607Y-110075261D01*
X156704980Y-110011867D01*
X156689952Y-109928761D01*
X156670354Y-109829749D01*
X156647017Y-109718638D01*
X156620773Y-109599232D01*
X156592452Y-109475337D01*
X156562886Y-109350761D01*
X156532907Y-109229308D01*
X156503345Y-109114785D01*
X156483284Y-109040556D01*
X156460410Y-108960633D01*
X156432286Y-108866901D01*
X156400261Y-108763452D01*
X156365685Y-108654384D01*
X156329910Y-108543792D01*
X156294284Y-108435770D01*
X156260159Y-108334415D01*
X156228884Y-108243821D01*
X156201810Y-108168085D01*
X156180286Y-108111301D01*
X156166036Y-108078296D01*
X156149491Y-108042742D01*
X156126361Y-107989400D01*
X156100289Y-107926788D01*
X156084543Y-107887796D01*
X156026751Y-107744721D01*
X155975216Y-107621071D01*
X155931076Y-107519540D01*
X155905866Y-107464513D01*
X155887117Y-107423390D01*
X155874576Y-107393252D01*
X155871334Y-107382785D01*
X155865757Y-107366740D01*
X155851037Y-107332252D01*
X155830190Y-107286345D01*
X155827047Y-107279606D01*
X155797387Y-107205327D01*
X155782198Y-107134958D01*
X155778167Y-107086167D01*
X155773712Y-107024445D01*
X155766766Y-106963654D01*
X155760156Y-106923889D01*
X155750985Y-106877018D01*
X155739946Y-106815696D01*
X155729653Y-106754556D01*
X155719938Y-106699175D01*
X155705956Y-106625642D01*
X155689544Y-106543360D01*
X155672537Y-106461731D01*
X155671787Y-106458222D01*
X155647271Y-106344339D01*
X155628255Y-106255233D01*
X155614818Y-106187985D01*
X155607039Y-106139674D01*
X155604997Y-106107382D01*
X155608770Y-106088189D01*
X155618438Y-106079174D01*
X155634079Y-106077419D01*
X155655773Y-106080004D01*
X155681908Y-106083801D01*
X155788547Y-106085412D01*
X155882911Y-106063213D01*
X155962756Y-106018654D01*
X156025837Y-105953183D01*
X156069913Y-105868249D01*
X156082708Y-105825079D01*
X156091226Y-105778863D01*
X156094532Y-105729558D01*
X156093866Y-105713701D01*
X155756504Y-105713701D01*
X155756437Y-105728149D01*
X155754509Y-105733084D01*
X155738943Y-105734270D01*
X155699541Y-105733529D01*
X155640607Y-105731052D01*
X155566448Y-105727025D01*
X155481370Y-105721638D01*
X155460162Y-105720188D01*
X155372994Y-105714396D01*
X155295603Y-105709728D01*
X155232330Y-105706407D01*
X155187514Y-105704656D01*
X155165497Y-105704698D01*
X155164107Y-105704988D01*
X155163898Y-105719670D01*
X155169722Y-105756233D01*
X155180561Y-105809230D01*
X155195397Y-105873214D01*
X155196035Y-105875824D01*
X155217035Y-105964688D01*
X155241431Y-106072943D01*
X155268013Y-106194768D01*
X155295573Y-106324344D01*
X155322902Y-106455850D01*
X155348791Y-106583466D01*
X155372033Y-106701372D01*
X155391417Y-106803748D01*
X155405735Y-106884775D01*
X155406370Y-106888611D01*
X155417869Y-106957429D01*
X155428346Y-107018468D01*
X155436621Y-107064958D01*
X155441415Y-107089694D01*
X155442954Y-107114083D01*
X155437686Y-107121309D01*
X155420305Y-107119807D01*
X155380481Y-107115798D01*
X155323824Y-107109862D01*
X155255945Y-107102577D01*
X155243389Y-107101214D01*
X155164781Y-107093316D01*
X155067700Y-107084561D01*
X154961848Y-107075768D01*
X154856923Y-107067757D01*
X154800643Y-107063814D01*
X154541341Y-107046373D01*
X154550694Y-106960436D01*
X154554474Y-106914340D01*
X154558591Y-106844419D01*
X154558682Y-106842527D01*
X153952389Y-106842527D01*
X153952222Y-106909331D01*
X153560639Y-106913315D01*
X153431376Y-106914613D01*
X153286920Y-106916036D01*
X153137015Y-106917489D01*
X152991401Y-106918878D01*
X152859823Y-106920110D01*
X152807116Y-106920594D01*
X152445175Y-106923889D01*
X152436471Y-106751028D01*
X152428968Y-106596442D01*
X152422694Y-106455616D01*
X152417711Y-106330644D01*
X152414085Y-106223621D01*
X152411879Y-106136640D01*
X152411227Y-106078005D01*
X152380609Y-106078005D01*
X152160999Y-106335656D01*
X152073901Y-106437380D01*
X151989044Y-106535621D01*
X151908420Y-106628140D01*
X151834025Y-106712695D01*
X151767852Y-106787048D01*
X151711894Y-106848960D01*
X151668146Y-106896191D01*
X151638600Y-106926502D01*
X151625250Y-106937652D01*
X151625061Y-106937668D01*
X151610192Y-106933340D01*
X151571634Y-106921188D01*
X151512504Y-106902219D01*
X151435918Y-106877442D01*
X151344991Y-106847864D01*
X151242841Y-106814492D01*
X151151167Y-106784437D01*
X150685500Y-106631539D01*
X150661209Y-106428464D01*
X150649183Y-106322455D01*
X150635838Y-106195385D01*
X150621860Y-106054340D01*
X150607936Y-105906410D01*
X150594751Y-105758683D01*
X150584001Y-105630741D01*
X150575827Y-105529981D01*
X150724453Y-105292074D01*
X150781239Y-105200821D01*
X150843200Y-105100659D01*
X150904850Y-105000492D01*
X150960702Y-104909229D01*
X150992685Y-104856611D01*
X151055403Y-104753019D01*
X150583082Y-104753019D01*
X150574450Y-104811871D01*
X150569335Y-104851320D01*
X150562597Y-104909570D01*
X150555287Y-104977328D01*
X150551043Y-105018889D01*
X150544702Y-105080224D01*
X150535893Y-105162287D01*
X150525418Y-105257773D01*
X150514079Y-105359378D01*
X150502676Y-105459797D01*
X150502264Y-105463389D01*
X150475855Y-105696322D01*
X150452945Y-105904533D01*
X150433200Y-106091260D01*
X150416287Y-106259739D01*
X150401872Y-106413210D01*
X150389620Y-106554910D01*
X150389448Y-106557000D01*
X150382020Y-106645631D01*
X150374721Y-106729767D01*
X150368102Y-106803265D01*
X150362716Y-106859986D01*
X150359521Y-106890393D01*
X150351074Y-106962730D01*
X150083486Y-106972999D01*
X149999531Y-106975851D01*
X149925613Y-106977657D01*
X149866218Y-106978365D01*
X149825833Y-106977924D01*
X149808944Y-106976282D01*
X149808803Y-106976174D01*
X149809000Y-106960758D01*
X149813669Y-106921866D01*
X149822176Y-106863778D01*
X149833886Y-106790773D01*
X149848167Y-106707133D01*
X149851293Y-106689404D01*
X149869443Y-106584862D01*
X149882175Y-106505852D01*
X149889684Y-106450246D01*
X149892165Y-106415919D01*
X149889813Y-106400743D01*
X149882823Y-106402592D01*
X149876872Y-106410398D01*
X149865109Y-106424356D01*
X149836828Y-106456303D01*
X149794573Y-106503416D01*
X149740886Y-106562872D01*
X149678310Y-106631846D01*
X149609388Y-106707515D01*
X149602497Y-106715065D01*
X149337939Y-107004874D01*
X149095319Y-106879361D01*
X149019897Y-106840199D01*
X148953403Y-106805399D01*
X148899783Y-106777049D01*
X148862987Y-106757238D01*
X148846961Y-106748054D01*
X148846662Y-106747810D01*
X148853867Y-106736001D01*
X148877332Y-106706048D01*
X148914584Y-106660916D01*
X148963148Y-106603571D01*
X149020553Y-106536976D01*
X149064562Y-106486568D01*
X149127153Y-106414554D01*
X149183000Y-106348989D01*
X149229530Y-106293001D01*
X149264172Y-106249718D01*
X149284351Y-106222268D01*
X149288500Y-106214265D01*
X149281361Y-106196550D01*
X149261804Y-106159993D01*
X149232615Y-106109529D01*
X149196583Y-106050090D01*
X149187134Y-106034889D01*
X149085767Y-105872611D01*
X149121153Y-105639778D01*
X149134741Y-105549995D01*
X149148451Y-105458766D01*
X149161011Y-105374584D01*
X149171153Y-105305940D01*
X149174625Y-105282137D01*
X149192711Y-105157329D01*
X149424050Y-104924424D01*
X149495085Y-104852907D01*
X149049286Y-104852907D01*
X149048138Y-104867355D01*
X149042576Y-104904177D01*
X149033472Y-104958024D01*
X149021698Y-105023548D01*
X149019950Y-105033000D01*
X148994502Y-105175307D01*
X148966616Y-105340262D01*
X148937100Y-105522478D01*
X148906762Y-105716566D01*
X148876408Y-105917140D01*
X148846845Y-106118811D01*
X148818881Y-106316194D01*
X148793324Y-106503899D01*
X148770979Y-106676541D01*
X148758846Y-106775722D01*
X148749024Y-106856915D01*
X148740143Y-106927764D01*
X148732793Y-106983778D01*
X148727561Y-107020465D01*
X148725103Y-107033312D01*
X148709831Y-107035965D01*
X148671796Y-107039446D01*
X148616361Y-107043471D01*
X148548887Y-107047751D01*
X148474738Y-107052001D01*
X148399276Y-107055934D01*
X148327862Y-107059265D01*
X148265860Y-107061705D01*
X148218632Y-107062970D01*
X148191540Y-107062772D01*
X148187228Y-107062043D01*
X148187809Y-107046708D01*
X148193537Y-107008027D01*
X148203661Y-106950250D01*
X148217426Y-106877630D01*
X148234081Y-106794418D01*
X148237810Y-106776310D01*
X148255077Y-106691677D01*
X148269840Y-106617007D01*
X148281309Y-106556493D01*
X148288696Y-106514323D01*
X148291210Y-106494689D01*
X148291042Y-106493819D01*
X148280788Y-106502835D01*
X148253925Y-106530200D01*
X148212834Y-106573386D01*
X148159896Y-106629862D01*
X148097490Y-106697101D01*
X148027998Y-106772574D01*
X148004389Y-106798339D01*
X147933091Y-106876120D01*
X147868164Y-106946720D01*
X147811987Y-107007570D01*
X147766938Y-107056103D01*
X147735398Y-107089750D01*
X147719746Y-107105941D01*
X147718482Y-107107016D01*
X147705331Y-107101105D01*
X147670914Y-107084463D01*
X147619183Y-107059031D01*
X147554089Y-107026753D01*
X147479581Y-106989571D01*
X147475066Y-106987310D01*
X147400257Y-106949264D01*
X147334982Y-106914932D01*
X147283142Y-106886460D01*
X147248637Y-106865994D01*
X147235370Y-106855679D01*
X147235333Y-106855455D01*
X147244484Y-106842029D01*
X147270084Y-106811123D01*
X147309356Y-106765914D01*
X147359523Y-106709583D01*
X147417807Y-106645308D01*
X147441771Y-106619173D01*
X147504350Y-106551115D01*
X147561889Y-106488502D01*
X147611133Y-106434881D01*
X147648825Y-106393797D01*
X147671710Y-106368797D01*
X147675383Y-106364762D01*
X147686015Y-106351894D01*
X147690652Y-106339017D01*
X147687518Y-106321600D01*
X147674837Y-106295113D01*
X147650832Y-106255023D01*
X147613727Y-106196800D01*
X147603000Y-106180131D01*
X147565613Y-106120383D01*
X147534631Y-106067707D01*
X147512987Y-106027322D01*
X147503611Y-106004450D01*
X147503445Y-106002880D01*
X147506029Y-105983082D01*
X147513282Y-105939758D01*
X147524452Y-105877080D01*
X147538785Y-105799219D01*
X147555531Y-105710345D01*
X147566545Y-105652842D01*
X147591063Y-105529650D01*
X147611975Y-105433438D01*
X147629525Y-105363226D01*
X147643955Y-105318035D01*
X147654581Y-105297829D01*
X147672249Y-105280157D01*
X147707173Y-105246731D01*
X147755819Y-105200880D01*
X147814651Y-105145931D01*
X147880132Y-105085214D01*
X147896070Y-105070499D01*
X147968882Y-105003569D01*
X148024616Y-104953352D01*
X148025470Y-104952622D01*
X147512437Y-104952622D01*
X147511487Y-104967460D01*
X147505729Y-105005810D01*
X147495881Y-105063507D01*
X147482661Y-105136388D01*
X147466788Y-105220288D01*
X147461808Y-105245998D01*
X147417396Y-105482995D01*
X147374190Y-105730625D01*
X147333123Y-105982698D01*
X147295132Y-106233023D01*
X147261151Y-106475408D01*
X147232115Y-106703663D01*
X147208959Y-106911597D01*
X147206312Y-106938000D01*
X147199474Y-107002979D01*
X147192963Y-107057366D01*
X147187548Y-107095167D01*
X147184193Y-107110150D01*
X147167828Y-107114586D01*
X147133162Y-107114678D01*
X147111468Y-107112926D01*
X147076995Y-107109887D01*
X147019839Y-107105562D01*
X146945488Y-107100335D01*
X146859431Y-107094590D01*
X146767157Y-107088711D01*
X146752035Y-107087775D01*
X146663973Y-107081970D01*
X146585678Y-107076097D01*
X146521453Y-107070537D01*
X146475600Y-107065671D01*
X146452423Y-107061880D01*
X146450584Y-107061065D01*
X146450020Y-107043495D01*
X146456900Y-107001684D01*
X146470512Y-106938412D01*
X146490144Y-106856454D01*
X146515083Y-106758589D01*
X146544616Y-106647594D01*
X146578030Y-106526248D01*
X146614613Y-106397327D01*
X146653652Y-106263609D01*
X146665015Y-106225389D01*
X146686563Y-106154810D01*
X146714381Y-106066159D01*
X146747124Y-105963515D01*
X146783446Y-105850959D01*
X146822002Y-105732572D01*
X146861448Y-105612432D01*
X146900438Y-105494622D01*
X146937627Y-105383221D01*
X146971670Y-105282309D01*
X147001222Y-105195966D01*
X147024937Y-105128274D01*
X147041472Y-105083311D01*
X147041728Y-105082652D01*
X147060870Y-105036428D01*
X147077170Y-105010020D01*
X147097072Y-104996593D01*
X147127018Y-104989311D01*
X147130245Y-104988755D01*
X147172802Y-104982509D01*
X147229185Y-104975612D01*
X147293222Y-104968646D01*
X147358744Y-104962195D01*
X147419581Y-104956842D01*
X147469561Y-104953171D01*
X147502515Y-104951764D01*
X147512437Y-104952622D01*
X148025470Y-104952622D01*
X148066812Y-104917288D01*
X148099010Y-104892820D01*
X148124753Y-104877390D01*
X148147579Y-104868439D01*
X148171031Y-104863409D01*
X148185506Y-104861384D01*
X148213737Y-104859369D01*
X148263768Y-104857432D01*
X148331391Y-104855615D01*
X148412396Y-104853959D01*
X148502577Y-104852506D01*
X148597724Y-104851297D01*
X148693628Y-104850372D01*
X148786082Y-104849774D01*
X148870877Y-104849544D01*
X148943804Y-104849723D01*
X149000655Y-104850352D01*
X149037221Y-104851472D01*
X149049286Y-104852907D01*
X149495085Y-104852907D01*
X149655389Y-104691518D01*
X149860000Y-104700118D01*
X149956741Y-104704707D01*
X150063019Y-104710632D01*
X150172596Y-104717465D01*
X150279234Y-104724777D01*
X150376694Y-104732139D01*
X150458739Y-104739123D01*
X150519131Y-104745300D01*
X150521402Y-104745571D01*
X150583082Y-104753019D01*
X151055403Y-104753019D01*
X151112292Y-104659056D01*
X151244618Y-104650052D01*
X151314772Y-104646210D01*
X151400915Y-104642866D01*
X151490815Y-104640441D01*
X151554061Y-104639468D01*
X151731177Y-104637889D01*
X151857450Y-104754558D01*
X151922953Y-104814260D01*
X151999005Y-104882318D01*
X152074569Y-104948905D01*
X152120308Y-104988560D01*
X152256893Y-105105891D01*
X152266312Y-105199973D01*
X152270705Y-105239099D01*
X152278287Y-105301430D01*
X152288451Y-105382206D01*
X152300592Y-105476668D01*
X152314104Y-105580056D01*
X152328171Y-105686030D01*
X152380609Y-106078005D01*
X152411227Y-106078005D01*
X152411157Y-106071796D01*
X152411984Y-106031183D01*
X152414050Y-106017140D01*
X152431203Y-106014725D01*
X152467610Y-106018779D01*
X152513704Y-106028054D01*
X152643667Y-106058819D01*
X152748262Y-106083282D01*
X152829523Y-106101891D01*
X152889486Y-106115094D01*
X152930184Y-106123340D01*
X152953652Y-106127078D01*
X152961841Y-106126863D01*
X152957224Y-106112297D01*
X152936631Y-106077899D01*
X152901607Y-106025964D01*
X152853699Y-105958784D01*
X152795212Y-105879667D01*
X152760479Y-105832226D01*
X152714471Y-105767757D01*
X152661679Y-105692637D01*
X152606593Y-105613244D01*
X152566715Y-105555088D01*
X152417590Y-105336343D01*
X152400480Y-105042468D01*
X152395607Y-104954532D01*
X152391759Y-104876613D01*
X152389107Y-104812935D01*
X152387821Y-104767721D01*
X152388069Y-104745196D01*
X152388464Y-104743499D01*
X152403727Y-104741476D01*
X152443747Y-104738953D01*
X152505093Y-104736028D01*
X152584336Y-104732798D01*
X152678044Y-104729363D01*
X152782787Y-104725818D01*
X152895135Y-104722263D01*
X153011657Y-104718794D01*
X153128923Y-104715510D01*
X153243502Y-104712508D01*
X153351963Y-104709886D01*
X153450877Y-104707743D01*
X153536812Y-104706174D01*
X153606338Y-104705280D01*
X153656025Y-104705156D01*
X153682442Y-104705901D01*
X153685807Y-104706527D01*
X153690983Y-104722430D01*
X153700577Y-104761925D01*
X153713684Y-104820890D01*
X153729399Y-104895202D01*
X153746817Y-104980737D01*
X153754396Y-105018889D01*
X153773563Y-105115891D01*
X153792403Y-105210926D01*
X153809703Y-105297892D01*
X153824249Y-105370691D01*
X153834826Y-105423222D01*
X153836479Y-105431351D01*
X153846194Y-105483270D01*
X153852079Y-105523498D01*
X153853150Y-105544971D01*
X153852556Y-105546575D01*
X153836762Y-105547191D01*
X153800219Y-105543401D01*
X153749918Y-105535990D01*
X153733500Y-105533231D01*
X153656089Y-105520775D01*
X153575336Y-105509340D01*
X153496168Y-105499443D01*
X153423506Y-105491599D01*
X153362275Y-105486323D01*
X153317399Y-105484131D01*
X153293801Y-105485540D01*
X153291492Y-105486948D01*
X153298552Y-105500756D01*
X153320911Y-105532857D01*
X153355942Y-105579746D01*
X153401019Y-105637918D01*
X153453514Y-105703868D01*
X153461240Y-105713441D01*
X153528471Y-105797075D01*
X153601978Y-105889302D01*
X153675144Y-105981774D01*
X153741355Y-106066141D01*
X153777392Y-106112500D01*
X153919233Y-106295944D01*
X153935894Y-106535833D01*
X153941511Y-106620795D01*
X153946299Y-106701024D01*
X153949913Y-106770100D01*
X153952006Y-106821602D01*
X153952389Y-106842527D01*
X154558682Y-106842527D01*
X154562900Y-106755068D01*
X154567255Y-106650679D01*
X154571511Y-106535646D01*
X154575520Y-106414364D01*
X154579138Y-106291224D01*
X154582218Y-106170622D01*
X154583574Y-106106277D01*
X154248556Y-106106277D01*
X154246110Y-106148782D01*
X154239312Y-106168665D01*
X154234445Y-106168944D01*
X154220624Y-106148250D01*
X154220020Y-106143417D01*
X154211702Y-106121203D01*
X154192140Y-106091370D01*
X154192111Y-106091333D01*
X154169692Y-106058819D01*
X154168430Y-106041673D01*
X154189454Y-106035382D01*
X154206222Y-106034889D01*
X154231176Y-106036399D01*
X154243687Y-106045757D01*
X154248049Y-106070199D01*
X154248556Y-106106277D01*
X154583574Y-106106277D01*
X154584615Y-106056951D01*
X154586181Y-105954603D01*
X154586763Y-105874898D01*
X154587222Y-105637297D01*
X154534306Y-105645683D01*
X154504063Y-105649719D01*
X154451772Y-105655936D01*
X154383463Y-105663675D01*
X154305166Y-105672278D01*
X154222912Y-105681089D01*
X154142732Y-105689448D01*
X154070656Y-105696697D01*
X154036889Y-105699951D01*
X154001611Y-105703278D01*
X153985157Y-105505722D01*
X153977826Y-105422503D01*
X153969747Y-105338606D01*
X153961860Y-105263370D01*
X153955105Y-105206130D01*
X153954605Y-105202333D01*
X153947349Y-105139982D01*
X153939809Y-105062307D01*
X153933190Y-104982166D01*
X153930765Y-104947687D01*
X153921022Y-104798874D01*
X154335261Y-104838333D01*
X154426504Y-104847501D01*
X154531762Y-104858881D01*
X154647464Y-104872016D01*
X154770038Y-104886451D01*
X154895911Y-104901729D01*
X155021513Y-104917394D01*
X155143271Y-104932990D01*
X155257615Y-104948060D01*
X155360971Y-104962150D01*
X155449769Y-104974802D01*
X155520436Y-104985561D01*
X155569401Y-104993970D01*
X155590163Y-104998584D01*
X155599937Y-105008981D01*
X155611469Y-105036439D01*
X155625453Y-105083399D01*
X155642584Y-105152301D01*
X155663555Y-105245586D01*
X155673263Y-105290693D01*
X155699540Y-105414547D01*
X155720203Y-105513510D01*
X155735742Y-105590244D01*
X155746646Y-105647412D01*
X155753404Y-105687677D01*
X155756504Y-105713701D01*
X156093866Y-105713701D01*
X156092151Y-105672883D01*
X156083606Y-105604556D01*
X156068423Y-105520297D01*
X156046125Y-105415825D01*
X156028866Y-105340514D01*
X156008190Y-105251313D01*
X155987786Y-105162284D01*
X155969355Y-105080927D01*
X155954602Y-105014744D01*
X155947883Y-104983844D01*
X155916102Y-104877893D01*
X155870263Y-104795473D01*
X155808809Y-104734808D01*
X155730178Y-104694125D01*
X155680833Y-104680020D01*
X155608731Y-104665133D01*
X155515727Y-104647718D01*
X155408897Y-104628950D01*
X155295320Y-104610003D01*
X155182071Y-104592051D01*
X155076227Y-104576269D01*
X154984866Y-104563831D01*
X154968222Y-104561759D01*
X154824730Y-104544348D01*
X154706276Y-104530202D01*
X154609905Y-104519009D01*
X154532663Y-104510458D01*
X154471592Y-104504238D01*
X154423738Y-104500039D01*
X154386144Y-104497548D01*
X154355855Y-104496456D01*
X154346733Y-104496348D01*
X154288106Y-104493808D01*
X154216707Y-104487378D01*
X154138680Y-104477998D01*
X154060166Y-104466610D01*
X153987311Y-104454152D01*
X153926256Y-104441568D01*
X153883146Y-104429797D01*
X153867556Y-104422963D01*
X153812400Y-104395190D01*
X153743398Y-104375618D01*
X153657109Y-104363769D01*
X153550093Y-104359165D01*
X153423056Y-104361175D01*
X153208506Y-104368807D01*
X153022063Y-104375136D01*
X152863644Y-104380163D01*
X152733164Y-104383891D01*
X152630538Y-104386322D01*
X152555682Y-104387458D01*
X152508512Y-104387303D01*
X152498778Y-104386957D01*
X152422613Y-104390127D01*
X152341434Y-104405258D01*
X152263059Y-104429775D01*
X152195304Y-104461106D01*
X152145986Y-104496677D01*
X152137473Y-104505906D01*
X152126012Y-104511233D01*
X152106809Y-104504192D01*
X152076036Y-104482455D01*
X152029864Y-104443690D01*
X152017529Y-104432881D01*
X151966786Y-104390961D01*
X151917781Y-104355206D01*
X151878005Y-104330891D01*
X151863778Y-104324624D01*
X151830227Y-104318327D01*
X151773559Y-104312931D01*
X151698863Y-104308502D01*
X151611232Y-104305106D01*
X151515758Y-104302809D01*
X151417533Y-104301678D01*
X151321646Y-104301776D01*
X151321646Y-104301776D01*
G37*
X151321646Y-104301776D02*
X151233192Y-104303172D01*
X151157260Y-104305930D01*
X151098943Y-104310117D01*
X151069304Y-104314343D01*
X151009850Y-104332497D01*
X150949133Y-104360199D01*
X150895530Y-104392754D01*
X150857419Y-104425471D01*
X150847917Y-104438356D01*
X150825776Y-104474869D01*
X150809721Y-104489903D01*
X150792014Y-104486586D01*
X150768310Y-104470522D01*
X150723458Y-104447710D01*
X150654380Y-104427486D01*
X150560007Y-104409635D01*
X150439274Y-104393942D01*
X150339778Y-104384238D01*
X150242787Y-104377100D01*
X150137066Y-104371598D01*
X150027227Y-104367750D01*
X149917885Y-104365579D01*
X149813653Y-104365105D01*
X149719144Y-104366349D01*
X149638973Y-104369334D01*
X149577752Y-104374079D01*
X149540163Y-104380584D01*
X149489368Y-104405550D01*
X149425275Y-104453147D01*
X149377036Y-104495893D01*
X149272692Y-104593339D01*
X149229155Y-104565774D01*
X149192263Y-104545963D01*
X149148758Y-104530171D01*
X149095510Y-104518086D01*
X149029389Y-104509394D01*
X148947265Y-104503781D01*
X148846007Y-104500934D01*
X148722485Y-104500539D01*
X148592256Y-104501980D01*
X148441259Y-104505063D01*
X148315100Y-104509664D01*
X148210407Y-104516542D01*
X148123805Y-104526455D01*
X148051922Y-104540162D01*
X147991383Y-104558420D01*
X147938816Y-104581988D01*
X147890847Y-104611622D01*
X147844103Y-104648083D01*
X147810833Y-104677586D01*
X147772500Y-104712820D01*
X147719111Y-104677735D01*
X147660417Y-104645945D01*
X147594569Y-104624403D01*
X147518320Y-104613051D01*
X147428421Y-104611833D01*
X147321622Y-104620692D01*
X147194675Y-104639571D01*
X147055384Y-104666133D01*
X146968887Y-104687472D01*
X146906845Y-104711316D01*
X146875913Y-104730253D01*
X146824488Y-104780300D01*
X146775915Y-104846019D01*
X146738482Y-104915389D01*
X146726940Y-104946334D01*
X146712989Y-104988482D01*
X146699750Y-105023154D01*
X146698522Y-105025944D01*
X146690253Y-105047623D01*
X146674674Y-105091436D01*
X146653361Y-105152731D01*
X146627889Y-105226855D01*
X146599835Y-105309156D01*
X146570775Y-105394982D01*
X146542285Y-105479679D01*
X146515941Y-105558597D01*
X146493320Y-105627082D01*
X146475996Y-105680482D01*
X146466675Y-105710333D01*
X146453332Y-105754063D01*
X146434868Y-105813561D01*
X146414739Y-105877709D01*
X146409658Y-105893778D01*
X146381984Y-105983757D01*
X146349281Y-106094315D01*
X146313302Y-106219153D01*
X146275799Y-106351973D01*
X146238526Y-106486477D01*
X146203234Y-106616367D01*
X146171676Y-106735345D01*
X146145604Y-106837113D01*
X146134153Y-106883825D01*
X146118550Y-106953792D01*
X146110448Y-107005984D01*
X146109035Y-107049597D01*
X146113501Y-107093826D01*
X146114864Y-107102547D01*
X146121313Y-107155189D01*
X146119138Y-107192608D01*
X146107324Y-107226761D01*
X146103675Y-107234333D01*
X146093468Y-107262129D01*
X146077963Y-107313935D01*
X146058039Y-107386224D01*
X146034571Y-107475466D01*
X146008436Y-107578133D01*
X145980511Y-107690698D01*
X145951673Y-107809631D01*
X145922798Y-107931405D01*
X145894763Y-108052491D01*
X145868444Y-108169361D01*
X145847716Y-108264444D01*
X145807496Y-108459775D01*
X145768156Y-108664895D01*
X145730933Y-108872615D01*
X145697065Y-109075743D01*
X145667788Y-109267088D01*
X145644341Y-109439460D01*
X145641324Y-109463889D01*
X145632395Y-109534885D01*
X145622863Y-109606809D01*
X145614388Y-109667240D01*
X145612095Y-109682611D01*
X145590828Y-109837186D01*
X145575672Y-109980782D01*
X145566765Y-110110217D01*
X145564246Y-110222314D01*
X145568254Y-110313891D01*
X145578927Y-110381770D01*
X145581247Y-110390167D01*
X145613315Y-110454748D01*
X145665971Y-110514707D01*
X145731698Y-110562837D01*
X145787001Y-110587466D01*
X145856940Y-110602336D01*
X145952998Y-110611030D01*
X146073747Y-110613502D01*
X146217757Y-110609705D01*
X146311056Y-110604632D01*
X146450367Y-110594294D01*
X146564812Y-110582084D01*
X146657729Y-110567181D01*
X146732453Y-110548761D01*
X146792322Y-110526001D01*
X146840673Y-110498078D01*
X146880843Y-110464170D01*
X146880896Y-110464118D01*
X146913996Y-110426064D01*
X146940058Y-110382970D01*
X146960617Y-110330039D01*
X146977210Y-110262474D01*
X146991373Y-110175480D01*
X147002418Y-110084778D01*
X147019452Y-109932305D01*
X147034590Y-109800840D01*
X147047675Y-109691650D01*
X147058547Y-109605998D01*
X147067049Y-109545152D01*
X147073022Y-109510376D01*
X147075302Y-109502588D01*
X147088394Y-109505347D01*
X147115802Y-109523482D01*
X147148158Y-109550114D01*
X147192638Y-109585912D01*
X147237722Y-109616418D01*
X147263556Y-109630292D01*
X147315748Y-109644426D01*
X147383770Y-109651361D01*
X147456108Y-109650888D01*
X147521248Y-109642795D01*
X147548436Y-109635512D01*
X147601353Y-109607290D01*
X147656461Y-109562168D01*
X147704265Y-109508933D01*
X147730631Y-109466900D01*
X147752830Y-109421063D01*
X147770626Y-109481282D01*
X147788687Y-109532836D01*
X147810445Y-109582883D01*
X147814520Y-109590889D01*
X147829158Y-109621536D01*
X147851665Y-109672223D01*
X147879378Y-109736804D01*
X147909637Y-109809133D01*
X147921438Y-109837833D01*
X147952574Y-109911873D01*
X147983085Y-109980765D01*
X148010090Y-110038254D01*
X148030709Y-110078080D01*
X148036191Y-110087161D01*
X148096912Y-110154470D01*
X148177811Y-110202491D01*
X148259031Y-110227147D01*
X148309025Y-110235509D01*
X148351375Y-110236756D01*
X148398266Y-110230353D01*
X148449531Y-110218806D01*
X148503048Y-110205124D01*
X148547404Y-110192636D01*
X148574042Y-110183771D01*
X148575889Y-110182948D01*
X148622385Y-110162256D01*
X148675697Y-110142467D01*
X148744678Y-110120387D01*
X148772495Y-110112023D01*
X148877378Y-110080833D01*
X148906550Y-110115648D01*
X148973691Y-110174043D01*
X149061287Y-110214334D01*
X149167888Y-110236212D01*
X149292048Y-110239371D01*
X149422556Y-110225149D01*
X149470957Y-110218185D01*
X149536838Y-110210045D01*
X149609563Y-110202002D01*
X149648333Y-110198110D01*
X149750741Y-110186753D01*
X149837838Y-110174061D01*
X149906105Y-110160688D01*
X149952022Y-110147286D01*
X149968417Y-110138707D01*
X149994655Y-110134998D01*
X150017806Y-110145745D01*
X150052615Y-110163751D01*
X150094653Y-110177316D01*
X150147544Y-110186780D01*
X150214911Y-110192481D01*
X150300380Y-110194760D01*
X150407574Y-110193955D01*
X150506148Y-110191479D01*
X150639183Y-110186532D01*
X150747311Y-110180089D01*
X150833835Y-110171440D01*
X150902061Y-110159875D01*
X150955292Y-110144681D01*
X150996831Y-110125148D01*
X151029984Y-110100564D01*
X151055630Y-110073229D01*
X151066320Y-110064392D01*
X151083227Y-110061200D01*
X151111703Y-110064169D01*
X151157098Y-110073817D01*
X151217908Y-110088909D01*
X151288428Y-110107214D01*
X151358225Y-110125873D01*
X151416835Y-110142065D01*
X151440445Y-110148878D01*
X151529497Y-110174789D01*
X151597177Y-110192848D01*
X151648972Y-110203873D01*
X151690369Y-110208679D01*
X151726854Y-110208083D01*
X151763915Y-110202901D01*
X151781034Y-110199540D01*
X151874919Y-110170778D01*
X151948462Y-110126091D01*
X152004004Y-110062914D01*
X152043882Y-109978682D01*
X152067884Y-109885066D01*
X152080228Y-109819962D01*
X152092612Y-109755891D01*
X152102641Y-109705221D01*
X152103869Y-109699173D01*
X152112335Y-109649144D01*
X152117265Y-109603410D01*
X152117778Y-109589812D01*
X152120262Y-109562962D01*
X152133193Y-109551304D01*
X152164791Y-109548580D01*
X152171962Y-109548556D01*
X152226147Y-109548556D01*
X152242790Y-109643806D01*
X152253591Y-109709833D01*
X152264943Y-109785760D01*
X152273034Y-109844889D01*
X152291565Y-109958295D01*
X152314846Y-110048775D01*
X152342285Y-110114264D01*
X152356486Y-110135871D01*
X152409039Y-110189684D01*
X152472002Y-110228653D01*
X152548258Y-110253315D01*
X152640689Y-110264207D01*
X152752178Y-110261866D01*
X152885607Y-110246830D01*
X152922111Y-110241249D01*
X152944863Y-110238074D01*
X152967693Y-110236461D01*
X152993597Y-110236922D01*
X153025572Y-110239974D01*
X153066612Y-110246131D01*
X153119713Y-110255908D01*
X153187871Y-110269819D01*
X153274080Y-110288380D01*
X153381338Y-110312106D01*
X153512639Y-110341511D01*
X153535945Y-110346747D01*
X153627951Y-110365907D01*
X153700368Y-110376749D01*
X153760477Y-110379579D01*
X153815561Y-110374705D01*
X153872901Y-110362434D01*
X153877655Y-110361182D01*
X153952086Y-110333116D01*
X154013011Y-110290378D01*
X154063292Y-110229555D01*
X154105790Y-110147234D01*
X154141370Y-110046631D01*
X154162389Y-109977862D01*
X154187995Y-109894867D01*
X154216095Y-109804347D01*
X154244596Y-109713005D01*
X154271408Y-109627542D01*
X154294438Y-109554660D01*
X154311595Y-109501060D01*
X154313517Y-109495146D01*
X154325652Y-109453108D01*
X154332592Y-109419767D01*
X154333222Y-109412196D01*
X154340201Y-109412911D01*
X154358912Y-109433536D01*
X154386022Y-109470120D01*
X154402125Y-109493828D01*
X154454593Y-109565581D01*
X154505061Y-109615738D01*
X154560444Y-109649481D01*
X154627658Y-109671991D01*
X154645387Y-109676096D01*
X154736829Y-109683854D01*
X154826702Y-109669496D01*
X154908715Y-109635377D01*
X154976579Y-109583850D01*
X155012227Y-109538796D01*
X155031948Y-109509885D01*
X155045208Y-109495930D01*
X155047204Y-109495833D01*
X155053446Y-109513045D01*
X155063370Y-109553300D01*
X155076042Y-109611799D01*
X155090529Y-109683744D01*
X155105900Y-109764335D01*
X155121220Y-109848773D01*
X155135556Y-109932259D01*
X155147977Y-110009994D01*
X155150727Y-110028333D01*
X155162849Y-110107971D01*
X155175063Y-110183911D01*
X155186134Y-110248744D01*
X155194827Y-110295060D01*
X155196621Y-110303500D01*
X155227941Y-110392479D01*
X155278968Y-110462783D01*
X155351228Y-110515885D01*
X155446246Y-110553260D01*
X155458407Y-110556540D01*
X155486792Y-110563364D01*
X155513942Y-110567980D01*
X155544070Y-110570238D01*
X155581392Y-110569991D01*
X155630121Y-110567091D01*
X155694472Y-110561390D01*
X155778659Y-110552739D01*
X155880342Y-110541709D01*
X155981984Y-110530614D01*
X156080788Y-110519918D01*
X156171140Y-110510221D01*
X156247424Y-110502124D01*
X156304026Y-110496230D01*
X156322889Y-110494326D01*
X156401741Y-110485129D01*
X156460144Y-110474235D01*
X156505866Y-110459488D01*
X156546678Y-110438731D01*
X156565177Y-110427076D01*
X156625906Y-110371580D01*
X156674036Y-110296735D01*
X156705938Y-110209950D01*
X156715967Y-110133915D01*
X156372278Y-110133915D01*
X156019500Y-110171267D01*
X155920914Y-110181763D01*
X155830100Y-110191543D01*
X155751322Y-110200137D01*
X155688844Y-110207079D01*
X155646928Y-110211900D01*
X155631445Y-110213858D01*
X155594958Y-110219386D01*
X155567975Y-110221136D01*
X155548355Y-110215558D01*
X155533955Y-110199100D01*
X155522633Y-110168211D01*
X155512246Y-110119340D01*
X155500651Y-110048935D01*
X155489730Y-109978944D01*
X155472975Y-109876836D01*
X155453054Y-109762686D01*
X155432148Y-109648608D01*
X155412442Y-109546715D01*
X155407090Y-109520333D01*
X155391636Y-109448308D01*
X155372288Y-109362924D01*
X155350083Y-109268308D01*
X155326059Y-109168590D01*
X155301254Y-109067899D01*
X155276707Y-108970363D01*
X155253454Y-108880112D01*
X155232534Y-108801275D01*
X155214986Y-108737979D01*
X155201846Y-108694355D01*
X155194678Y-108675379D01*
X155186002Y-108676622D01*
X155167367Y-108695485D01*
X155137853Y-108733217D01*
X155096541Y-108791067D01*
X155042514Y-108870284D01*
X154974853Y-108972116D01*
X154961539Y-108992359D01*
X154904158Y-109079553D01*
X154851570Y-109159151D01*
X154805829Y-109228067D01*
X154768991Y-109283215D01*
X154743112Y-109321509D01*
X154730248Y-109339862D01*
X154729446Y-109340839D01*
X154717887Y-109334536D01*
X154694904Y-109308824D01*
X154664171Y-109268138D01*
X154639245Y-109231969D01*
X154600269Y-109174465D01*
X154549121Y-109100541D01*
X154490294Y-109016554D01*
X154428278Y-108928861D01*
X154367565Y-108843822D01*
X154312647Y-108767793D01*
X154277236Y-108719528D01*
X154253459Y-108690639D01*
X154235771Y-108674736D01*
X154232720Y-108673667D01*
X154225925Y-108686611D01*
X154211701Y-108723362D01*
X154191068Y-108780799D01*
X154165045Y-108855801D01*
X154134651Y-108945245D01*
X154100903Y-109046012D01*
X154064822Y-109154979D01*
X154027426Y-109269025D01*
X153989733Y-109385029D01*
X153952764Y-109499869D01*
X153917535Y-109610425D01*
X153885067Y-109713574D01*
X153856377Y-109806196D01*
X153832486Y-109885169D01*
X153814411Y-109947371D01*
X153803176Y-109989661D01*
X153792260Y-110020772D01*
X153781209Y-110036427D01*
X153761997Y-110037357D01*
X153723675Y-110032318D01*
X153674462Y-110022400D01*
X153673411Y-110022156D01*
X153629678Y-110012200D01*
X153564468Y-109997615D01*
X153483886Y-109979754D01*
X153394038Y-109959971D01*
X153301026Y-109939617D01*
X153294548Y-109938205D01*
X153010818Y-109876351D01*
X152885326Y-109895937D01*
X152819282Y-109906079D01*
X152755124Y-109915652D01*
X152704261Y-109922960D01*
X152694048Y-109924358D01*
X152628263Y-109933192D01*
X152618205Y-109850235D01*
X152612851Y-109810211D01*
X152603943Y-109748253D01*
X152592364Y-109670296D01*
X152578996Y-109582277D01*
X152564721Y-109490134D01*
X152563926Y-109485056D01*
X152519705Y-109202833D01*
X152182125Y-109199044D01*
X152087066Y-109198462D01*
X152001367Y-109198861D01*
X151929075Y-109200147D01*
X151874235Y-109202226D01*
X151840891Y-109205004D01*
X151832622Y-109207179D01*
X151826411Y-109225152D01*
X151818337Y-109265245D01*
X151809449Y-109321505D01*
X151800869Y-109387357D01*
X151791405Y-109463593D01*
X151780478Y-109545100D01*
X151768864Y-109626789D01*
X151757338Y-109703568D01*
X151746676Y-109770348D01*
X151737655Y-109822039D01*
X151731049Y-109853550D01*
X151728778Y-109860354D01*
X151714257Y-109859419D01*
X151676712Y-109851916D01*
X151620314Y-109838821D01*
X151549235Y-109821112D01*
X151467646Y-109799764D01*
X151451539Y-109795441D01*
X151357249Y-109770514D01*
X151262094Y-109746200D01*
X151173251Y-109724274D01*
X151097898Y-109706511D01*
X151047123Y-109695463D01*
X150989397Y-109682280D01*
X150942965Y-109668763D01*
X150914263Y-109656936D01*
X150908321Y-109651773D01*
X150910554Y-109631440D01*
X150922634Y-109586304D01*
X150944062Y-109517817D01*
X150974338Y-109427432D01*
X151012962Y-109316604D01*
X151059436Y-109186784D01*
X151113260Y-109039428D01*
X151173935Y-108875987D01*
X151186284Y-108843000D01*
X151225597Y-108737655D01*
X151271818Y-108613021D01*
X151322276Y-108476354D01*
X151374297Y-108334911D01*
X151425208Y-108195948D01*
X151472334Y-108066720D01*
X151477403Y-108052778D01*
X151542226Y-107874342D01*
X151598088Y-107720587D01*
X151645714Y-107589684D01*
X151685828Y-107479807D01*
X151719157Y-107389127D01*
X151746426Y-107315817D01*
X151768359Y-107258049D01*
X151769443Y-107255292D01*
X151401903Y-107255292D01*
X151393707Y-107286055D01*
X151377311Y-107339477D01*
X151376597Y-107335160D01*
X151028191Y-107335160D01*
X151027031Y-107368080D01*
X151024296Y-107412842D01*
X151019873Y-107471252D01*
X151013653Y-107545121D01*
X151005525Y-107636256D01*
X150995378Y-107746466D01*
X150983104Y-107877560D01*
X150968590Y-108031346D01*
X150951726Y-108209633D01*
X150932556Y-108412611D01*
X150917045Y-108577269D01*
X150901681Y-108740689D01*
X150886779Y-108899487D01*
X150872657Y-109050279D01*
X150859631Y-109189680D01*
X150848016Y-109314306D01*
X150838130Y-109420772D01*
X150830288Y-109505694D01*
X150825080Y-109562667D01*
X150817167Y-109645636D01*
X150809439Y-109718730D01*
X150802441Y-109777372D01*
X150796719Y-109816985D01*
X150792857Y-109832952D01*
X150776786Y-109836185D01*
X150736814Y-109839924D01*
X150677251Y-109843893D01*
X150602407Y-109847814D01*
X150516593Y-109851411D01*
X150491702Y-109852305D01*
X150199127Y-109862428D01*
X150195369Y-109477400D01*
X150191611Y-109092373D01*
X150022278Y-109052914D01*
X149954550Y-109037581D01*
X149895011Y-109024931D01*
X149850057Y-109016268D01*
X149826086Y-109012896D01*
X149825983Y-109012894D01*
X149818218Y-109013697D01*
X149812202Y-109018481D01*
X149807803Y-109030263D01*
X149804886Y-109052063D01*
X149803319Y-109086901D01*
X149802967Y-109137794D01*
X149803697Y-109207762D01*
X149805375Y-109299823D01*
X149807868Y-109416997D01*
X149807947Y-109420590D01*
X149816871Y-109828846D01*
X149743186Y-109838031D01*
X149701405Y-109843285D01*
X149639428Y-109851137D01*
X149565052Y-109860598D01*
X149486075Y-109870676D01*
X149471945Y-109872483D01*
X149395850Y-109881897D01*
X149325719Y-109889995D01*
X149268337Y-109896033D01*
X149230491Y-109899266D01*
X149225000Y-109899545D01*
X149175611Y-109901339D01*
X149176763Y-109635409D01*
X149083889Y-109635409D01*
X149070246Y-109649134D01*
X149030094Y-109667897D01*
X148964596Y-109691196D01*
X148925139Y-109703647D01*
X148852623Y-109726286D01*
X148763327Y-109754851D01*
X148667174Y-109786132D01*
X148574086Y-109816919D01*
X148547667Y-109825771D01*
X148473877Y-109849858D01*
X148409615Y-109869453D01*
X148359522Y-109883249D01*
X148328242Y-109889943D01*
X148320066Y-109889749D01*
X148310472Y-109872147D01*
X148291522Y-109830893D01*
X148264291Y-109768561D01*
X148229854Y-109687723D01*
X148189285Y-109590954D01*
X148143659Y-109480824D01*
X148094050Y-109359908D01*
X148041532Y-109230777D01*
X147987181Y-109096006D01*
X147954907Y-109015433D01*
X147905512Y-108892796D01*
X147865189Y-108795014D01*
X147833205Y-108720476D01*
X147808827Y-108667571D01*
X147791324Y-108634691D01*
X147779963Y-108620223D01*
X147775160Y-108620321D01*
X147765157Y-108637340D01*
X147744402Y-108676153D01*
X147714694Y-108733275D01*
X147677829Y-108805220D01*
X147635606Y-108888504D01*
X147589821Y-108979642D01*
X147589350Y-108980583D01*
X147544122Y-109070625D01*
X147502971Y-109151797D01*
X147467576Y-109220848D01*
X147439617Y-109274525D01*
X147420772Y-109309577D01*
X147412722Y-109322751D01*
X147412639Y-109322778D01*
X147401916Y-109312897D01*
X147374520Y-109285041D01*
X147333011Y-109241888D01*
X147279952Y-109186116D01*
X147217901Y-109120404D01*
X147149589Y-109047611D01*
X147080907Y-108974591D01*
X147018391Y-108908853D01*
X146964652Y-108853085D01*
X146922299Y-108809970D01*
X146893941Y-108782195D01*
X146882208Y-108772444D01*
X146876020Y-108785486D01*
X146865533Y-108821425D01*
X146851978Y-108875485D01*
X146836589Y-108942891D01*
X146828491Y-108980583D01*
X146803495Y-109100135D01*
X146782477Y-109203255D01*
X146764683Y-109294837D01*
X146749361Y-109379774D01*
X146735757Y-109462960D01*
X146723116Y-109549287D01*
X146710686Y-109643649D01*
X146697713Y-109750940D01*
X146683443Y-109876052D01*
X146667123Y-110023879D01*
X146665430Y-110039358D01*
X146657389Y-110106586D01*
X146649294Y-110163377D01*
X146642059Y-110203952D01*
X146636599Y-110222534D01*
X146636370Y-110222803D01*
X146617767Y-110228682D01*
X146576425Y-110234679D01*
X146516819Y-110240594D01*
X146443422Y-110246231D01*
X146360709Y-110251390D01*
X146273153Y-110255875D01*
X146185229Y-110259486D01*
X146101412Y-110262026D01*
X146026174Y-110263298D01*
X145963992Y-110263102D01*
X145919338Y-110261242D01*
X145896686Y-110257519D01*
X145894778Y-110255618D01*
X145896411Y-110230816D01*
X145900976Y-110182458D01*
X145907974Y-110114999D01*
X145916903Y-110032896D01*
X145927263Y-109940606D01*
X145938553Y-109842584D01*
X145950274Y-109743286D01*
X145961924Y-109647170D01*
X145973003Y-109558690D01*
X145973396Y-109555611D01*
X145991093Y-109424937D01*
X146012765Y-109277149D01*
X146037386Y-109118407D01*
X146063928Y-108954872D01*
X146091364Y-108792701D01*
X146118665Y-108638056D01*
X146144804Y-108497096D01*
X146168753Y-108375981D01*
X146175865Y-108342056D01*
X146200218Y-108230506D01*
X146226649Y-108114020D01*
X146254318Y-107995899D01*
X146282385Y-107879440D01*
X146310010Y-107767944D01*
X146336354Y-107664711D01*
X146360577Y-107573039D01*
X146381837Y-107496228D01*
X146399297Y-107437579D01*
X146412115Y-107400390D01*
X146418687Y-107388145D01*
X146441032Y-107382515D01*
X146483706Y-107378189D01*
X146538825Y-107375869D01*
X146559360Y-107375660D01*
X146635471Y-107374418D01*
X146721921Y-107371351D01*
X146800937Y-107367101D01*
X146806305Y-107366736D01*
X146931945Y-107358029D01*
X147005328Y-107518431D01*
X147061886Y-107641266D01*
X147113258Y-107751272D01*
X147158424Y-107846356D01*
X147196362Y-107924423D01*
X147226053Y-107983379D01*
X147246477Y-108021131D01*
X147256613Y-108035583D01*
X147257273Y-108035542D01*
X147262832Y-108020886D01*
X147275278Y-107982823D01*
X147293474Y-107925004D01*
X147316283Y-107851079D01*
X147342568Y-107764698D01*
X147367980Y-107680242D01*
X147396340Y-107585936D01*
X147422153Y-107500914D01*
X147444296Y-107428805D01*
X147461647Y-107373243D01*
X147473084Y-107337857D01*
X147477384Y-107326270D01*
X147493417Y-107322812D01*
X147532368Y-107318361D01*
X147589121Y-107313248D01*
X147658560Y-107307804D01*
X147735568Y-107302357D01*
X147815028Y-107297239D01*
X147891825Y-107292778D01*
X147960841Y-107289305D01*
X148016960Y-107287150D01*
X148055065Y-107286643D01*
X148069993Y-107288054D01*
X148077469Y-107303212D01*
X148094009Y-107341135D01*
X148118181Y-107398390D01*
X148148550Y-107471545D01*
X148183683Y-107557168D01*
X148222145Y-107651827D01*
X148227357Y-107664722D01*
X148355241Y-107976422D01*
X148488929Y-108293138D01*
X148623868Y-108604238D01*
X148755509Y-108899085D01*
X148757894Y-108904341D01*
X148793055Y-108982108D01*
X148823835Y-109050786D01*
X148848457Y-109106361D01*
X148865145Y-109144819D01*
X148872121Y-109162147D01*
X148872222Y-109162642D01*
X148877973Y-109176871D01*
X148893924Y-109212343D01*
X148918129Y-109264826D01*
X148948638Y-109330089D01*
X148978056Y-109392419D01*
X149012565Y-109466316D01*
X149042364Y-109532190D01*
X149065472Y-109585492D01*
X149079910Y-109621677D01*
X149083889Y-109635409D01*
X149176763Y-109635409D01*
X149178104Y-109326308D01*
X149179101Y-109183684D01*
X149180824Y-109034590D01*
X149183159Y-108884902D01*
X149185992Y-108740497D01*
X149189209Y-108607251D01*
X149192695Y-108491040D01*
X149195984Y-108405556D01*
X149203541Y-108241483D01*
X149211362Y-108082345D01*
X149219292Y-107930571D01*
X149227179Y-107788592D01*
X149234871Y-107658839D01*
X149242215Y-107543744D01*
X149249060Y-107445736D01*
X149255251Y-107367246D01*
X149258061Y-107337744D01*
X148912682Y-107337744D01*
X148909475Y-107374465D01*
X148909261Y-107376179D01*
X148906362Y-107408233D01*
X148902561Y-107463546D01*
X148898145Y-107537184D01*
X148893404Y-107624208D01*
X148888624Y-107719682D01*
X148886241Y-107770556D01*
X148881527Y-107869589D01*
X148876696Y-107963770D01*
X148872042Y-108047894D01*
X148867860Y-108116759D01*
X148864442Y-108165162D01*
X148863144Y-108179754D01*
X148855205Y-108257342D01*
X148821997Y-108193865D01*
X148799888Y-108148705D01*
X148772945Y-108089568D01*
X148746739Y-108028712D01*
X148745015Y-108024556D01*
X148716985Y-107956863D01*
X148684867Y-107879413D01*
X148655419Y-107808501D01*
X148654309Y-107805833D01*
X148614559Y-107708700D01*
X148566126Y-107587716D01*
X148510065Y-107445521D01*
X148495750Y-107408934D01*
X148505388Y-107399272D01*
X148542621Y-107391042D01*
X148607736Y-107384182D01*
X148613852Y-107383713D01*
X148706905Y-107374609D01*
X148787162Y-107362578D01*
X148849970Y-107348525D01*
X148890678Y-107333352D01*
X148898200Y-107328470D01*
X148909279Y-107323946D01*
X148912682Y-107337744D01*
X149258061Y-107337744D01*
X149260638Y-107310706D01*
X149265066Y-107278547D01*
X149267103Y-107272057D01*
X149285204Y-107265898D01*
X149327225Y-107257961D01*
X149388961Y-107248791D01*
X149466208Y-107238932D01*
X149554759Y-107228928D01*
X149650410Y-107219325D01*
X149727725Y-107212422D01*
X149842395Y-107202772D01*
X149848224Y-107683597D01*
X149849836Y-107797341D01*
X149851765Y-107901967D01*
X149853916Y-107994165D01*
X149856194Y-108070623D01*
X149858502Y-108128030D01*
X149860745Y-108163075D01*
X149862367Y-108172737D01*
X149878760Y-108178136D01*
X149916763Y-108186560D01*
X149970218Y-108196963D01*
X150032968Y-108208295D01*
X150098858Y-108219511D01*
X150161730Y-108229561D01*
X150215428Y-108237399D01*
X150253795Y-108241976D01*
X150270674Y-108242245D01*
X150270715Y-108242222D01*
X150273556Y-108227263D01*
X150276890Y-108188087D01*
X150280492Y-108128690D01*
X150284137Y-108053067D01*
X150287600Y-107965214D01*
X150289489Y-107908564D01*
X150293830Y-107777474D01*
X150298519Y-107650746D01*
X150303402Y-107531441D01*
X150308327Y-107422623D01*
X150313141Y-107327355D01*
X150317690Y-107248699D01*
X150321823Y-107189717D01*
X150325387Y-107153473D01*
X150327689Y-107142940D01*
X150341983Y-107144587D01*
X150379477Y-107151396D01*
X150435811Y-107162454D01*
X150506625Y-107176846D01*
X150587560Y-107193657D01*
X150674256Y-107211971D01*
X150762352Y-107230875D01*
X150847489Y-107249452D01*
X150925307Y-107266789D01*
X150991446Y-107281970D01*
X151001438Y-107284323D01*
X151008222Y-107285002D01*
X151014204Y-107284861D01*
X151019271Y-107285709D01*
X151023314Y-107289354D01*
X151026221Y-107297605D01*
X151027884Y-107312271D01*
X151028191Y-107335160D01*
X151376597Y-107335160D01*
X151368032Y-107283377D01*
X151363307Y-107246904D01*
X151362859Y-107224484D01*
X151363713Y-107222007D01*
X151379178Y-107221596D01*
X151389387Y-107224685D01*
X151401627Y-107234489D01*
X151401903Y-107255292D01*
X151769443Y-107255292D01*
X151785682Y-107213997D01*
X151799121Y-107181831D01*
X151809399Y-107159726D01*
X151817244Y-107145852D01*
X151823379Y-107138383D01*
X151828530Y-107135492D01*
X151833423Y-107135349D01*
X151838782Y-107136129D01*
X151841089Y-107136287D01*
X151868817Y-107138352D01*
X151916513Y-107143313D01*
X151978951Y-107150497D01*
X152050902Y-107159231D01*
X152127139Y-107168843D01*
X152202436Y-107178662D01*
X152271565Y-107188014D01*
X152329299Y-107196228D01*
X152370410Y-107202630D01*
X152389672Y-107206549D01*
X152390420Y-107206944D01*
X152394869Y-107214964D01*
X152405162Y-107235846D01*
X152422033Y-107271158D01*
X152446215Y-107322469D01*
X152478443Y-107391347D01*
X152519450Y-107479360D01*
X152569969Y-107588077D01*
X152630735Y-107719068D01*
X152702480Y-107873899D01*
X152713437Y-107897556D01*
X152769203Y-108019255D01*
X152828051Y-108150000D01*
X152888231Y-108285720D01*
X152947993Y-108422343D01*
X153005584Y-108555797D01*
X153059256Y-108682010D01*
X153107255Y-108796910D01*
X153147833Y-108896427D01*
X153179238Y-108976487D01*
X153191263Y-109008806D01*
X153212000Y-109064117D01*
X153229760Y-109107807D01*
X153242147Y-109134178D01*
X153246137Y-109139333D01*
X153253416Y-109126012D01*
X153266204Y-109087841D01*
X153283840Y-109027511D01*
X153305665Y-108947713D01*
X153331019Y-108851138D01*
X153359242Y-108740475D01*
X153389674Y-108618416D01*
X153421656Y-108487652D01*
X153454528Y-108350872D01*
X153487629Y-108210767D01*
X153520301Y-108070028D01*
X153551882Y-107931346D01*
X153581715Y-107797411D01*
X153609138Y-107670913D01*
X153626780Y-107587111D01*
X153646884Y-107490332D01*
X153665437Y-107401267D01*
X153681560Y-107324110D01*
X153690300Y-107282471D01*
X153345445Y-107282471D01*
X153342404Y-107303890D01*
X153334189Y-107346054D01*
X153322164Y-107402253D01*
X153311765Y-107448277D01*
X153296470Y-107516796D01*
X153282737Y-107582369D01*
X153272499Y-107635576D01*
X153268834Y-107657667D01*
X153260913Y-107703005D01*
X153248996Y-107760296D01*
X153234400Y-107824368D01*
X153218444Y-107890046D01*
X153202446Y-107952158D01*
X153187724Y-108005532D01*
X153175596Y-108044993D01*
X153167380Y-108065368D01*
X153164787Y-108066015D01*
X153156728Y-108044903D01*
X153140001Y-108004748D01*
X153117442Y-107952278D01*
X153102744Y-107918722D01*
X153069232Y-107844112D01*
X153030430Y-107759786D01*
X152993529Y-107681338D01*
X152985565Y-107664722D01*
X152951052Y-107592501D01*
X152911492Y-107508856D01*
X152873603Y-107428013D01*
X152860647Y-107400139D01*
X152796901Y-107262556D01*
X153071173Y-107262556D01*
X153167817Y-107262868D01*
X153239603Y-107263968D01*
X153289889Y-107266099D01*
X153322033Y-107269505D01*
X153339394Y-107274431D01*
X153345330Y-107281119D01*
X153345445Y-107282471D01*
X153690300Y-107282471D01*
X153694375Y-107263059D01*
X153703005Y-107222308D01*
X153706197Y-107207607D01*
X153711394Y-107190709D01*
X153721560Y-107181261D01*
X153742963Y-107177898D01*
X153781870Y-107179250D01*
X153822473Y-107182240D01*
X153882964Y-107187296D01*
X153960151Y-107194271D01*
X154042664Y-107202119D01*
X154097898Y-107207611D01*
X154264739Y-107224566D01*
X154456467Y-107606922D01*
X154648196Y-107989278D01*
X154667129Y-107918722D01*
X154676463Y-107883580D01*
X154691512Y-107826501D01*
X154710863Y-107752855D01*
X154733107Y-107668014D01*
X154756833Y-107577348D01*
X154761658Y-107558889D01*
X154837253Y-107269611D01*
X154927432Y-107273841D01*
X154992214Y-107277729D01*
X155067626Y-107283604D01*
X155148589Y-107290915D01*
X155230022Y-107299106D01*
X155306847Y-107307626D01*
X155373983Y-107315921D01*
X155426352Y-107323438D01*
X155458872Y-107329623D01*
X155466888Y-107332592D01*
X155476832Y-107349758D01*
X155495999Y-107389547D01*
X155522899Y-107448472D01*
X155556039Y-107523048D01*
X155593929Y-107609788D01*
X155635077Y-107705206D01*
X155677992Y-107805815D01*
X155721182Y-107908129D01*
X155763156Y-108008662D01*
X155802422Y-108103928D01*
X155837491Y-108190441D01*
X155866869Y-108264713D01*
X155877933Y-108293472D01*
X156004546Y-108645498D01*
X156115020Y-108994796D01*
X156213340Y-109354262D01*
X156244241Y-109479152D01*
X156265212Y-109568771D01*
X156286850Y-109666029D01*
X156308052Y-109765469D01*
X156327711Y-109861632D01*
X156344724Y-109949063D01*
X156357985Y-110022305D01*
X156366390Y-110075902D01*
X156368252Y-110091708D01*
X156372278Y-110133915D01*
X156715967Y-110133915D01*
X156717983Y-110118635D01*
X156718000Y-110115136D01*
X156714607Y-110075261D01*
X156704980Y-110011867D01*
X156689952Y-109928761D01*
X156670354Y-109829749D01*
X156647017Y-109718638D01*
X156620773Y-109599232D01*
X156592452Y-109475337D01*
X156562886Y-109350761D01*
X156532907Y-109229308D01*
X156503345Y-109114785D01*
X156483284Y-109040556D01*
X156460410Y-108960633D01*
X156432286Y-108866901D01*
X156400261Y-108763452D01*
X156365685Y-108654384D01*
X156329910Y-108543792D01*
X156294284Y-108435770D01*
X156260159Y-108334415D01*
X156228884Y-108243821D01*
X156201810Y-108168085D01*
X156180286Y-108111301D01*
X156166036Y-108078296D01*
X156149491Y-108042742D01*
X156126361Y-107989400D01*
X156100289Y-107926788D01*
X156084543Y-107887796D01*
X156026751Y-107744721D01*
X155975216Y-107621071D01*
X155931076Y-107519540D01*
X155905866Y-107464513D01*
X155887117Y-107423390D01*
X155874576Y-107393252D01*
X155871334Y-107382785D01*
X155865757Y-107366740D01*
X155851037Y-107332252D01*
X155830190Y-107286345D01*
X155827047Y-107279606D01*
X155797387Y-107205327D01*
X155782198Y-107134958D01*
X155778167Y-107086167D01*
X155773712Y-107024445D01*
X155766766Y-106963654D01*
X155760156Y-106923889D01*
X155750985Y-106877018D01*
X155739946Y-106815696D01*
X155729653Y-106754556D01*
X155719938Y-106699175D01*
X155705956Y-106625642D01*
X155689544Y-106543360D01*
X155672537Y-106461731D01*
X155671787Y-106458222D01*
X155647271Y-106344339D01*
X155628255Y-106255233D01*
X155614818Y-106187985D01*
X155607039Y-106139674D01*
X155604997Y-106107382D01*
X155608770Y-106088189D01*
X155618438Y-106079174D01*
X155634079Y-106077419D01*
X155655773Y-106080004D01*
X155681908Y-106083801D01*
X155788547Y-106085412D01*
X155882911Y-106063213D01*
X155962756Y-106018654D01*
X156025837Y-105953183D01*
X156069913Y-105868249D01*
X156082708Y-105825079D01*
X156091226Y-105778863D01*
X156094532Y-105729558D01*
X156093866Y-105713701D01*
X155756504Y-105713701D01*
X155756437Y-105728149D01*
X155754509Y-105733084D01*
X155738943Y-105734270D01*
X155699541Y-105733529D01*
X155640607Y-105731052D01*
X155566448Y-105727025D01*
X155481370Y-105721638D01*
X155460162Y-105720188D01*
X155372994Y-105714396D01*
X155295603Y-105709728D01*
X155232330Y-105706407D01*
X155187514Y-105704656D01*
X155165497Y-105704698D01*
X155164107Y-105704988D01*
X155163898Y-105719670D01*
X155169722Y-105756233D01*
X155180561Y-105809230D01*
X155195397Y-105873214D01*
X155196035Y-105875824D01*
X155217035Y-105964688D01*
X155241431Y-106072943D01*
X155268013Y-106194768D01*
X155295573Y-106324344D01*
X155322902Y-106455850D01*
X155348791Y-106583466D01*
X155372033Y-106701372D01*
X155391417Y-106803748D01*
X155405735Y-106884775D01*
X155406370Y-106888611D01*
X155417869Y-106957429D01*
X155428346Y-107018468D01*
X155436621Y-107064958D01*
X155441415Y-107089694D01*
X155442954Y-107114083D01*
X155437686Y-107121309D01*
X155420305Y-107119807D01*
X155380481Y-107115798D01*
X155323824Y-107109862D01*
X155255945Y-107102577D01*
X155243389Y-107101214D01*
X155164781Y-107093316D01*
X155067700Y-107084561D01*
X154961848Y-107075768D01*
X154856923Y-107067757D01*
X154800643Y-107063814D01*
X154541341Y-107046373D01*
X154550694Y-106960436D01*
X154554474Y-106914340D01*
X154558591Y-106844419D01*
X154558682Y-106842527D01*
X153952389Y-106842527D01*
X153952222Y-106909331D01*
X153560639Y-106913315D01*
X153431376Y-106914613D01*
X153286920Y-106916036D01*
X153137015Y-106917489D01*
X152991401Y-106918878D01*
X152859823Y-106920110D01*
X152807116Y-106920594D01*
X152445175Y-106923889D01*
X152436471Y-106751028D01*
X152428968Y-106596442D01*
X152422694Y-106455616D01*
X152417711Y-106330644D01*
X152414085Y-106223621D01*
X152411879Y-106136640D01*
X152411227Y-106078005D01*
X152380609Y-106078005D01*
X152160999Y-106335656D01*
X152073901Y-106437380D01*
X151989044Y-106535621D01*
X151908420Y-106628140D01*
X151834025Y-106712695D01*
X151767852Y-106787048D01*
X151711894Y-106848960D01*
X151668146Y-106896191D01*
X151638600Y-106926502D01*
X151625250Y-106937652D01*
X151625061Y-106937668D01*
X151610192Y-106933340D01*
X151571634Y-106921188D01*
X151512504Y-106902219D01*
X151435918Y-106877442D01*
X151344991Y-106847864D01*
X151242841Y-106814492D01*
X151151167Y-106784437D01*
X150685500Y-106631539D01*
X150661209Y-106428464D01*
X150649183Y-106322455D01*
X150635838Y-106195385D01*
X150621860Y-106054340D01*
X150607936Y-105906410D01*
X150594751Y-105758683D01*
X150584001Y-105630741D01*
X150575827Y-105529981D01*
X150724453Y-105292074D01*
X150781239Y-105200821D01*
X150843200Y-105100659D01*
X150904850Y-105000492D01*
X150960702Y-104909229D01*
X150992685Y-104856611D01*
X151055403Y-104753019D01*
X150583082Y-104753019D01*
X150574450Y-104811871D01*
X150569335Y-104851320D01*
X150562597Y-104909570D01*
X150555287Y-104977328D01*
X150551043Y-105018889D01*
X150544702Y-105080224D01*
X150535893Y-105162287D01*
X150525418Y-105257773D01*
X150514079Y-105359378D01*
X150502676Y-105459797D01*
X150502264Y-105463389D01*
X150475855Y-105696322D01*
X150452945Y-105904533D01*
X150433200Y-106091260D01*
X150416287Y-106259739D01*
X150401872Y-106413210D01*
X150389620Y-106554910D01*
X150389448Y-106557000D01*
X150382020Y-106645631D01*
X150374721Y-106729767D01*
X150368102Y-106803265D01*
X150362716Y-106859986D01*
X150359521Y-106890393D01*
X150351074Y-106962730D01*
X150083486Y-106972999D01*
X149999531Y-106975851D01*
X149925613Y-106977657D01*
X149866218Y-106978365D01*
X149825833Y-106977924D01*
X149808944Y-106976282D01*
X149808803Y-106976174D01*
X149809000Y-106960758D01*
X149813669Y-106921866D01*
X149822176Y-106863778D01*
X149833886Y-106790773D01*
X149848167Y-106707133D01*
X149851293Y-106689404D01*
X149869443Y-106584862D01*
X149882175Y-106505852D01*
X149889684Y-106450246D01*
X149892165Y-106415919D01*
X149889813Y-106400743D01*
X149882823Y-106402592D01*
X149876872Y-106410398D01*
X149865109Y-106424356D01*
X149836828Y-106456303D01*
X149794573Y-106503416D01*
X149740886Y-106562872D01*
X149678310Y-106631846D01*
X149609388Y-106707515D01*
X149602497Y-106715065D01*
X149337939Y-107004874D01*
X149095319Y-106879361D01*
X149019897Y-106840199D01*
X148953403Y-106805399D01*
X148899783Y-106777049D01*
X148862987Y-106757238D01*
X148846961Y-106748054D01*
X148846662Y-106747810D01*
X148853867Y-106736001D01*
X148877332Y-106706048D01*
X148914584Y-106660916D01*
X148963148Y-106603571D01*
X149020553Y-106536976D01*
X149064562Y-106486568D01*
X149127153Y-106414554D01*
X149183000Y-106348989D01*
X149229530Y-106293001D01*
X149264172Y-106249718D01*
X149284351Y-106222268D01*
X149288500Y-106214265D01*
X149281361Y-106196550D01*
X149261804Y-106159993D01*
X149232615Y-106109529D01*
X149196583Y-106050090D01*
X149187134Y-106034889D01*
X149085767Y-105872611D01*
X149121153Y-105639778D01*
X149134741Y-105549995D01*
X149148451Y-105458766D01*
X149161011Y-105374584D01*
X149171153Y-105305940D01*
X149174625Y-105282137D01*
X149192711Y-105157329D01*
X149424050Y-104924424D01*
X149495085Y-104852907D01*
X149049286Y-104852907D01*
X149048138Y-104867355D01*
X149042576Y-104904177D01*
X149033472Y-104958024D01*
X149021698Y-105023548D01*
X149019950Y-105033000D01*
X148994502Y-105175307D01*
X148966616Y-105340262D01*
X148937100Y-105522478D01*
X148906762Y-105716566D01*
X148876408Y-105917140D01*
X148846845Y-106118811D01*
X148818881Y-106316194D01*
X148793324Y-106503899D01*
X148770979Y-106676541D01*
X148758846Y-106775722D01*
X148749024Y-106856915D01*
X148740143Y-106927764D01*
X148732793Y-106983778D01*
X148727561Y-107020465D01*
X148725103Y-107033312D01*
X148709831Y-107035965D01*
X148671796Y-107039446D01*
X148616361Y-107043471D01*
X148548887Y-107047751D01*
X148474738Y-107052001D01*
X148399276Y-107055934D01*
X148327862Y-107059265D01*
X148265860Y-107061705D01*
X148218632Y-107062970D01*
X148191540Y-107062772D01*
X148187228Y-107062043D01*
X148187809Y-107046708D01*
X148193537Y-107008027D01*
X148203661Y-106950250D01*
X148217426Y-106877630D01*
X148234081Y-106794418D01*
X148237810Y-106776310D01*
X148255077Y-106691677D01*
X148269840Y-106617007D01*
X148281309Y-106556493D01*
X148288696Y-106514323D01*
X148291210Y-106494689D01*
X148291042Y-106493819D01*
X148280788Y-106502835D01*
X148253925Y-106530200D01*
X148212834Y-106573386D01*
X148159896Y-106629862D01*
X148097490Y-106697101D01*
X148027998Y-106772574D01*
X148004389Y-106798339D01*
X147933091Y-106876120D01*
X147868164Y-106946720D01*
X147811987Y-107007570D01*
X147766938Y-107056103D01*
X147735398Y-107089750D01*
X147719746Y-107105941D01*
X147718482Y-107107016D01*
X147705331Y-107101105D01*
X147670914Y-107084463D01*
X147619183Y-107059031D01*
X147554089Y-107026753D01*
X147479581Y-106989571D01*
X147475066Y-106987310D01*
X147400257Y-106949264D01*
X147334982Y-106914932D01*
X147283142Y-106886460D01*
X147248637Y-106865994D01*
X147235370Y-106855679D01*
X147235333Y-106855455D01*
X147244484Y-106842029D01*
X147270084Y-106811123D01*
X147309356Y-106765914D01*
X147359523Y-106709583D01*
X147417807Y-106645308D01*
X147441771Y-106619173D01*
X147504350Y-106551115D01*
X147561889Y-106488502D01*
X147611133Y-106434881D01*
X147648825Y-106393797D01*
X147671710Y-106368797D01*
X147675383Y-106364762D01*
X147686015Y-106351894D01*
X147690652Y-106339017D01*
X147687518Y-106321600D01*
X147674837Y-106295113D01*
X147650832Y-106255023D01*
X147613727Y-106196800D01*
X147603000Y-106180131D01*
X147565613Y-106120383D01*
X147534631Y-106067707D01*
X147512987Y-106027322D01*
X147503611Y-106004450D01*
X147503445Y-106002880D01*
X147506029Y-105983082D01*
X147513282Y-105939758D01*
X147524452Y-105877080D01*
X147538785Y-105799219D01*
X147555531Y-105710345D01*
X147566545Y-105652842D01*
X147591063Y-105529650D01*
X147611975Y-105433438D01*
X147629525Y-105363226D01*
X147643955Y-105318035D01*
X147654581Y-105297829D01*
X147672249Y-105280157D01*
X147707173Y-105246731D01*
X147755819Y-105200880D01*
X147814651Y-105145931D01*
X147880132Y-105085214D01*
X147896070Y-105070499D01*
X147968882Y-105003569D01*
X148024616Y-104953352D01*
X148025470Y-104952622D01*
X147512437Y-104952622D01*
X147511487Y-104967460D01*
X147505729Y-105005810D01*
X147495881Y-105063507D01*
X147482661Y-105136388D01*
X147466788Y-105220288D01*
X147461808Y-105245998D01*
X147417396Y-105482995D01*
X147374190Y-105730625D01*
X147333123Y-105982698D01*
X147295132Y-106233023D01*
X147261151Y-106475408D01*
X147232115Y-106703663D01*
X147208959Y-106911597D01*
X147206312Y-106938000D01*
X147199474Y-107002979D01*
X147192963Y-107057366D01*
X147187548Y-107095167D01*
X147184193Y-107110150D01*
X147167828Y-107114586D01*
X147133162Y-107114678D01*
X147111468Y-107112926D01*
X147076995Y-107109887D01*
X147019839Y-107105562D01*
X146945488Y-107100335D01*
X146859431Y-107094590D01*
X146767157Y-107088711D01*
X146752035Y-107087775D01*
X146663973Y-107081970D01*
X146585678Y-107076097D01*
X146521453Y-107070537D01*
X146475600Y-107065671D01*
X146452423Y-107061880D01*
X146450584Y-107061065D01*
X146450020Y-107043495D01*
X146456900Y-107001684D01*
X146470512Y-106938412D01*
X146490144Y-106856454D01*
X146515083Y-106758589D01*
X146544616Y-106647594D01*
X146578030Y-106526248D01*
X146614613Y-106397327D01*
X146653652Y-106263609D01*
X146665015Y-106225389D01*
X146686563Y-106154810D01*
X146714381Y-106066159D01*
X146747124Y-105963515D01*
X146783446Y-105850959D01*
X146822002Y-105732572D01*
X146861448Y-105612432D01*
X146900438Y-105494622D01*
X146937627Y-105383221D01*
X146971670Y-105282309D01*
X147001222Y-105195966D01*
X147024937Y-105128274D01*
X147041472Y-105083311D01*
X147041728Y-105082652D01*
X147060870Y-105036428D01*
X147077170Y-105010020D01*
X147097072Y-104996593D01*
X147127018Y-104989311D01*
X147130245Y-104988755D01*
X147172802Y-104982509D01*
X147229185Y-104975612D01*
X147293222Y-104968646D01*
X147358744Y-104962195D01*
X147419581Y-104956842D01*
X147469561Y-104953171D01*
X147502515Y-104951764D01*
X147512437Y-104952622D01*
X148025470Y-104952622D01*
X148066812Y-104917288D01*
X148099010Y-104892820D01*
X148124753Y-104877390D01*
X148147579Y-104868439D01*
X148171031Y-104863409D01*
X148185506Y-104861384D01*
X148213737Y-104859369D01*
X148263768Y-104857432D01*
X148331391Y-104855615D01*
X148412396Y-104853959D01*
X148502577Y-104852506D01*
X148597724Y-104851297D01*
X148693628Y-104850372D01*
X148786082Y-104849774D01*
X148870877Y-104849544D01*
X148943804Y-104849723D01*
X149000655Y-104850352D01*
X149037221Y-104851472D01*
X149049286Y-104852907D01*
X149495085Y-104852907D01*
X149655389Y-104691518D01*
X149860000Y-104700118D01*
X149956741Y-104704707D01*
X150063019Y-104710632D01*
X150172596Y-104717465D01*
X150279234Y-104724777D01*
X150376694Y-104732139D01*
X150458739Y-104739123D01*
X150519131Y-104745300D01*
X150521402Y-104745571D01*
X150583082Y-104753019D01*
X151055403Y-104753019D01*
X151112292Y-104659056D01*
X151244618Y-104650052D01*
X151314772Y-104646210D01*
X151400915Y-104642866D01*
X151490815Y-104640441D01*
X151554061Y-104639468D01*
X151731177Y-104637889D01*
X151857450Y-104754558D01*
X151922953Y-104814260D01*
X151999005Y-104882318D01*
X152074569Y-104948905D01*
X152120308Y-104988560D01*
X152256893Y-105105891D01*
X152266312Y-105199973D01*
X152270705Y-105239099D01*
X152278287Y-105301430D01*
X152288451Y-105382206D01*
X152300592Y-105476668D01*
X152314104Y-105580056D01*
X152328171Y-105686030D01*
X152380609Y-106078005D01*
X152411227Y-106078005D01*
X152411157Y-106071796D01*
X152411984Y-106031183D01*
X152414050Y-106017140D01*
X152431203Y-106014725D01*
X152467610Y-106018779D01*
X152513704Y-106028054D01*
X152643667Y-106058819D01*
X152748262Y-106083282D01*
X152829523Y-106101891D01*
X152889486Y-106115094D01*
X152930184Y-106123340D01*
X152953652Y-106127078D01*
X152961841Y-106126863D01*
X152957224Y-106112297D01*
X152936631Y-106077899D01*
X152901607Y-106025964D01*
X152853699Y-105958784D01*
X152795212Y-105879667D01*
X152760479Y-105832226D01*
X152714471Y-105767757D01*
X152661679Y-105692637D01*
X152606593Y-105613244D01*
X152566715Y-105555088D01*
X152417590Y-105336343D01*
X152400480Y-105042468D01*
X152395607Y-104954532D01*
X152391759Y-104876613D01*
X152389107Y-104812935D01*
X152387821Y-104767721D01*
X152388069Y-104745196D01*
X152388464Y-104743499D01*
X152403727Y-104741476D01*
X152443747Y-104738953D01*
X152505093Y-104736028D01*
X152584336Y-104732798D01*
X152678044Y-104729363D01*
X152782787Y-104725818D01*
X152895135Y-104722263D01*
X153011657Y-104718794D01*
X153128923Y-104715510D01*
X153243502Y-104712508D01*
X153351963Y-104709886D01*
X153450877Y-104707743D01*
X153536812Y-104706174D01*
X153606338Y-104705280D01*
X153656025Y-104705156D01*
X153682442Y-104705901D01*
X153685807Y-104706527D01*
X153690983Y-104722430D01*
X153700577Y-104761925D01*
X153713684Y-104820890D01*
X153729399Y-104895202D01*
X153746817Y-104980737D01*
X153754396Y-105018889D01*
X153773563Y-105115891D01*
X153792403Y-105210926D01*
X153809703Y-105297892D01*
X153824249Y-105370691D01*
X153834826Y-105423222D01*
X153836479Y-105431351D01*
X153846194Y-105483270D01*
X153852079Y-105523498D01*
X153853150Y-105544971D01*
X153852556Y-105546575D01*
X153836762Y-105547191D01*
X153800219Y-105543401D01*
X153749918Y-105535990D01*
X153733500Y-105533231D01*
X153656089Y-105520775D01*
X153575336Y-105509340D01*
X153496168Y-105499443D01*
X153423506Y-105491599D01*
X153362275Y-105486323D01*
X153317399Y-105484131D01*
X153293801Y-105485540D01*
X153291492Y-105486948D01*
X153298552Y-105500756D01*
X153320911Y-105532857D01*
X153355942Y-105579746D01*
X153401019Y-105637918D01*
X153453514Y-105703868D01*
X153461240Y-105713441D01*
X153528471Y-105797075D01*
X153601978Y-105889302D01*
X153675144Y-105981774D01*
X153741355Y-106066141D01*
X153777392Y-106112500D01*
X153919233Y-106295944D01*
X153935894Y-106535833D01*
X153941511Y-106620795D01*
X153946299Y-106701024D01*
X153949913Y-106770100D01*
X153952006Y-106821602D01*
X153952389Y-106842527D01*
X154558682Y-106842527D01*
X154562900Y-106755068D01*
X154567255Y-106650679D01*
X154571511Y-106535646D01*
X154575520Y-106414364D01*
X154579138Y-106291224D01*
X154582218Y-106170622D01*
X154583574Y-106106277D01*
X154248556Y-106106277D01*
X154246110Y-106148782D01*
X154239312Y-106168665D01*
X154234445Y-106168944D01*
X154220624Y-106148250D01*
X154220020Y-106143417D01*
X154211702Y-106121203D01*
X154192140Y-106091370D01*
X154192111Y-106091333D01*
X154169692Y-106058819D01*
X154168430Y-106041673D01*
X154189454Y-106035382D01*
X154206222Y-106034889D01*
X154231176Y-106036399D01*
X154243687Y-106045757D01*
X154248049Y-106070199D01*
X154248556Y-106106277D01*
X154583574Y-106106277D01*
X154584615Y-106056951D01*
X154586181Y-105954603D01*
X154586763Y-105874898D01*
X154587222Y-105637297D01*
X154534306Y-105645683D01*
X154504063Y-105649719D01*
X154451772Y-105655936D01*
X154383463Y-105663675D01*
X154305166Y-105672278D01*
X154222912Y-105681089D01*
X154142732Y-105689448D01*
X154070656Y-105696697D01*
X154036889Y-105699951D01*
X154001611Y-105703278D01*
X153985157Y-105505722D01*
X153977826Y-105422503D01*
X153969747Y-105338606D01*
X153961860Y-105263370D01*
X153955105Y-105206130D01*
X153954605Y-105202333D01*
X153947349Y-105139982D01*
X153939809Y-105062307D01*
X153933190Y-104982166D01*
X153930765Y-104947687D01*
X153921022Y-104798874D01*
X154335261Y-104838333D01*
X154426504Y-104847501D01*
X154531762Y-104858881D01*
X154647464Y-104872016D01*
X154770038Y-104886451D01*
X154895911Y-104901729D01*
X155021513Y-104917394D01*
X155143271Y-104932990D01*
X155257615Y-104948060D01*
X155360971Y-104962150D01*
X155449769Y-104974802D01*
X155520436Y-104985561D01*
X155569401Y-104993970D01*
X155590163Y-104998584D01*
X155599937Y-105008981D01*
X155611469Y-105036439D01*
X155625453Y-105083399D01*
X155642584Y-105152301D01*
X155663555Y-105245586D01*
X155673263Y-105290693D01*
X155699540Y-105414547D01*
X155720203Y-105513510D01*
X155735742Y-105590244D01*
X155746646Y-105647412D01*
X155753404Y-105687677D01*
X155756504Y-105713701D01*
X156093866Y-105713701D01*
X156092151Y-105672883D01*
X156083606Y-105604556D01*
X156068423Y-105520297D01*
X156046125Y-105415825D01*
X156028866Y-105340514D01*
X156008190Y-105251313D01*
X155987786Y-105162284D01*
X155969355Y-105080927D01*
X155954602Y-105014744D01*
X155947883Y-104983844D01*
X155916102Y-104877893D01*
X155870263Y-104795473D01*
X155808809Y-104734808D01*
X155730178Y-104694125D01*
X155680833Y-104680020D01*
X155608731Y-104665133D01*
X155515727Y-104647718D01*
X155408897Y-104628950D01*
X155295320Y-104610003D01*
X155182071Y-104592051D01*
X155076227Y-104576269D01*
X154984866Y-104563831D01*
X154968222Y-104561759D01*
X154824730Y-104544348D01*
X154706276Y-104530202D01*
X154609905Y-104519009D01*
X154532663Y-104510458D01*
X154471592Y-104504238D01*
X154423738Y-104500039D01*
X154386144Y-104497548D01*
X154355855Y-104496456D01*
X154346733Y-104496348D01*
X154288106Y-104493808D01*
X154216707Y-104487378D01*
X154138680Y-104477998D01*
X154060166Y-104466610D01*
X153987311Y-104454152D01*
X153926256Y-104441568D01*
X153883146Y-104429797D01*
X153867556Y-104422963D01*
X153812400Y-104395190D01*
X153743398Y-104375618D01*
X153657109Y-104363769D01*
X153550093Y-104359165D01*
X153423056Y-104361175D01*
X153208506Y-104368807D01*
X153022063Y-104375136D01*
X152863644Y-104380163D01*
X152733164Y-104383891D01*
X152630538Y-104386322D01*
X152555682Y-104387458D01*
X152508512Y-104387303D01*
X152498778Y-104386957D01*
X152422613Y-104390127D01*
X152341434Y-104405258D01*
X152263059Y-104429775D01*
X152195304Y-104461106D01*
X152145986Y-104496677D01*
X152137473Y-104505906D01*
X152126012Y-104511233D01*
X152106809Y-104504192D01*
X152076036Y-104482455D01*
X152029864Y-104443690D01*
X152017529Y-104432881D01*
X151966786Y-104390961D01*
X151917781Y-104355206D01*
X151878005Y-104330891D01*
X151863778Y-104324624D01*
X151830227Y-104318327D01*
X151773559Y-104312931D01*
X151698863Y-104308502D01*
X151611232Y-104305106D01*
X151515758Y-104302809D01*
X151417533Y-104301678D01*
X151321646Y-104301776D01*
M02*
