%TF.GenerationSoftware,KiCad,Pcbnew,(5.1.2-1)-1*%
%TF.CreationDate,2020-12-17T17:00:40+01:00*%
%TF.ProjectId,n64_rgb_amp,6e36345f-7267-4625-9f61-6d702e6b6963,1.1*%
%TF.SameCoordinates,Original*%
%TF.FileFunction,Legend,Top*%
%TF.FilePolarity,Positive*%
%FSLAX46Y46*%
G04 Gerber Fmt 4.6, Leading zero omitted, Abs format (unit mm)*
G04 Created by KiCad (PCBNEW (5.1.2-1)-1) date 2020-12-17 17:00:40*
%MOMM*%
%LPD*%
G04 APERTURE LIST*
%ADD10C,0.152500*%
%ADD11C,0.203200*%
%ADD12C,0.150000*%
%ADD13C,0.152400*%
%ADD14C,0.160000*%
G04 APERTURE END LIST*
D10*
X142791160Y-102052000D02*
X142791160Y-103250880D01*
X142942500Y-102051000D02*
X142942500Y-103251000D01*
D11*
X154054576Y-112763075D02*
X154072285Y-112829165D01*
X154041613Y-112979053D01*
X153993232Y-113062851D01*
X153878761Y-113164358D01*
X153746582Y-113199775D01*
X153638593Y-113193293D01*
X153446806Y-113138430D01*
X153321109Y-113065859D01*
X153177703Y-112927198D01*
X153118095Y-112836918D01*
X153082678Y-112704739D01*
X153113350Y-112554851D01*
X153161731Y-112471053D01*
X153276201Y-112369546D01*
X153342291Y-112351837D01*
X154289999Y-112452072D02*
X154404470Y-112350566D01*
X154525422Y-112141070D01*
X154531904Y-112033081D01*
X154514195Y-111966991D01*
X154454588Y-111876711D01*
X154370789Y-111828330D01*
X154262801Y-111821849D01*
X154196711Y-111839557D01*
X154106431Y-111899165D01*
X153967770Y-112042571D01*
X153877490Y-112102179D01*
X153811400Y-112119888D01*
X153703411Y-112113406D01*
X153619613Y-112065025D01*
X153560005Y-111974745D01*
X153542297Y-111908655D01*
X153548779Y-111800666D01*
X153669731Y-111591171D01*
X153784201Y-111489664D01*
D12*
X144327142Y-101681428D02*
X144327142Y-102138571D01*
X144098571Y-101910000D02*
X144555714Y-101910000D01*
D11*
X149339476Y-112894619D02*
X149000809Y-112410809D01*
X148758904Y-112894619D02*
X148758904Y-111878619D01*
X149145952Y-111878619D01*
X149242714Y-111927000D01*
X149291095Y-111975380D01*
X149339476Y-112072142D01*
X149339476Y-112217285D01*
X149291095Y-112314047D01*
X149242714Y-112362428D01*
X149145952Y-112410809D01*
X148758904Y-112410809D01*
X150891095Y-111927000D02*
X150794333Y-111878619D01*
X150649190Y-111878619D01*
X150504047Y-111927000D01*
X150407285Y-112023761D01*
X150358904Y-112120523D01*
X150310523Y-112314047D01*
X150310523Y-112459190D01*
X150358904Y-112652714D01*
X150407285Y-112749476D01*
X150504047Y-112846238D01*
X150649190Y-112894619D01*
X150745952Y-112894619D01*
X150891095Y-112846238D01*
X150939476Y-112797857D01*
X150939476Y-112459190D01*
X150745952Y-112459190D01*
X152297571Y-112362428D02*
X152442714Y-112410809D01*
X152491095Y-112459190D01*
X152539476Y-112555952D01*
X152539476Y-112701095D01*
X152491095Y-112797857D01*
X152442714Y-112846238D01*
X152345952Y-112894619D01*
X151958904Y-112894619D01*
X151958904Y-111878619D01*
X152297571Y-111878619D01*
X152394333Y-111927000D01*
X152442714Y-111975380D01*
X152491095Y-112072142D01*
X152491095Y-112168904D01*
X152442714Y-112265666D01*
X152394333Y-112314047D01*
X152297571Y-112362428D01*
X151958904Y-112362428D01*
D12*
X155250000Y-112352714D02*
X155250000Y-112897000D01*
X155220333Y-113005857D01*
X155161000Y-113078428D01*
X155072000Y-113114714D01*
X155012666Y-113114714D01*
X155546666Y-113042142D02*
X155576333Y-113078428D01*
X155546666Y-113114714D01*
X155517000Y-113078428D01*
X155546666Y-113042142D01*
X155546666Y-113114714D01*
X155546666Y-112643000D02*
X155576333Y-112679285D01*
X155546666Y-112715571D01*
X155517000Y-112679285D01*
X155546666Y-112643000D01*
X155546666Y-112715571D01*
X156140000Y-113114714D02*
X155843333Y-113114714D01*
X155843333Y-112352714D01*
X156347666Y-113114714D02*
X156347666Y-112352714D01*
X156585000Y-112352714D01*
X156644333Y-112389000D01*
X156674000Y-112425285D01*
X156703666Y-112497857D01*
X156703666Y-112606714D01*
X156674000Y-112679285D01*
X156644333Y-112715571D01*
X156585000Y-112751857D01*
X156347666Y-112751857D01*
X157178333Y-112715571D02*
X156970666Y-112715571D01*
X156970666Y-113114714D02*
X156970666Y-112352714D01*
X157267333Y-112352714D01*
D13*
X157134400Y-114855000D02*
X157134400Y-113420000D01*
X155045600Y-114855000D02*
X155045600Y-113420000D01*
X157134400Y-113420000D02*
X155045600Y-113420000D01*
X157134400Y-114855000D02*
X155045600Y-114855000D01*
X149355000Y-107965000D02*
X153455000Y-107965000D01*
X149355000Y-102785000D02*
X153455000Y-102785000D01*
X149355000Y-102785000D02*
X149355000Y-107965000D01*
X153455000Y-102785000D02*
X153455000Y-107965000D01*
X150270677Y-103392317D02*
G75*
G03X150270677Y-103392317I-305857J0D01*
G01*
X156242300Y-97637300D02*
X156242300Y-98177300D01*
X157042300Y-97637300D02*
X157042300Y-98177300D01*
X156242300Y-100687300D02*
X156242300Y-101227300D01*
X157042300Y-100687300D02*
X157042300Y-101227300D01*
X156242300Y-103737300D02*
X156242300Y-104277300D01*
X157042300Y-103737300D02*
X157042300Y-104277300D01*
X156242300Y-109837300D02*
X156242300Y-110377300D01*
X157042300Y-109837300D02*
X157042300Y-110377300D01*
X154952300Y-110377300D02*
X154952300Y-109837300D01*
X154152300Y-110377300D02*
X154152300Y-109837300D01*
X145792300Y-109837300D02*
X145792300Y-110377300D01*
X146592300Y-109837300D02*
X146592300Y-110377300D01*
X146222700Y-107192300D02*
X145682700Y-107192300D01*
X146222700Y-107992300D02*
X145682700Y-107992300D01*
X146222700Y-105102300D02*
X145682700Y-105102300D01*
X146222700Y-105902300D02*
X145682700Y-105902300D01*
X146222700Y-103012300D02*
X145682700Y-103012300D01*
X146222700Y-103812300D02*
X145682700Y-103812300D01*
X142942500Y-102051000D02*
X142192500Y-102051000D01*
X142942500Y-103251000D02*
X142192500Y-103251000D01*
D12*
G36*
X153225000Y-99285000D02*
G01*
X153095000Y-99345000D01*
X153005000Y-99395000D01*
X152935000Y-99495000D01*
X152805000Y-99635000D01*
X152745000Y-99735000D01*
X152705000Y-99815000D01*
X152645000Y-99825000D01*
X152645000Y-99685000D01*
X152625000Y-99555000D01*
X152655000Y-99395000D01*
X152695000Y-99285000D01*
X152765000Y-99235000D01*
X153185000Y-99255000D01*
X153225000Y-99285000D01*
G37*
X153225000Y-99285000D02*
X153095000Y-99345000D01*
X153005000Y-99395000D01*
X152935000Y-99495000D01*
X152805000Y-99635000D01*
X152745000Y-99735000D01*
X152705000Y-99815000D01*
X152645000Y-99825000D01*
X152645000Y-99685000D01*
X152625000Y-99555000D01*
X152655000Y-99395000D01*
X152695000Y-99285000D01*
X152765000Y-99235000D01*
X153185000Y-99255000D01*
X153225000Y-99285000D01*
G36*
X152655000Y-100825000D02*
G01*
X152645000Y-100965000D01*
X152645000Y-101155000D01*
X152665000Y-101275000D01*
X152705000Y-101325000D01*
X152765000Y-101365000D01*
X152855000Y-101385000D01*
X153205000Y-101375000D01*
X152655000Y-100825000D01*
G37*
X152655000Y-100825000D02*
X152645000Y-100965000D01*
X152645000Y-101155000D01*
X152665000Y-101275000D01*
X152705000Y-101325000D01*
X152765000Y-101365000D01*
X152855000Y-101385000D01*
X153205000Y-101375000D01*
X152655000Y-100825000D01*
G36*
X154775000Y-100765000D02*
G01*
X154765000Y-101205000D01*
X154675000Y-101375000D01*
X154515000Y-101415000D01*
X154175000Y-101385000D01*
X154775000Y-100765000D01*
G37*
X154775000Y-100765000D02*
X154765000Y-101205000D01*
X154675000Y-101375000D01*
X154515000Y-101415000D01*
X154175000Y-101385000D01*
X154775000Y-100765000D01*
G36*
X154035000Y-99235000D02*
G01*
X154155000Y-99215000D01*
X154675000Y-99975000D01*
X154785000Y-99855000D01*
X154785000Y-99265000D01*
X154755000Y-99265000D01*
X154035000Y-99235000D01*
G37*
X154035000Y-99235000D02*
X154155000Y-99215000D01*
X154675000Y-99975000D01*
X154785000Y-99855000D01*
X154785000Y-99265000D01*
X154755000Y-99265000D01*
X154035000Y-99235000D01*
D14*
X154791002Y-100325000D02*
G75*
G03X154791002Y-100325000I-1086002J0D01*
G01*
X154635000Y-100325000D02*
G75*
G03X154635000Y-100325000I-930000J0D01*
G01*
D12*
X152866800Y-99209000D02*
X154568600Y-99209000D01*
X152589000Y-101163200D02*
X152589000Y-99486800D01*
D13*
X141005000Y-101441000D02*
X154543200Y-101441000D01*
X139889000Y-97785000D02*
X139889000Y-98293000D01*
X141005000Y-101441000D02*
G75*
G02X139889000Y-100325000I0J1116000D01*
G01*
X141005000Y-96669000D02*
X153705000Y-96669000D01*
X139889000Y-97785000D02*
G75*
G02X141005000Y-96669000I1116000J0D01*
G01*
D12*
X154821000Y-97785000D02*
X154821000Y-101163200D01*
D13*
X153705000Y-96669000D02*
G75*
G02X154821000Y-97785000I0J-1116000D01*
G01*
D12*
X152589000Y-99486800D02*
G75*
G02X152866800Y-99209000I277800J0D01*
G01*
D13*
X154821000Y-101163200D02*
G75*
G02X154543200Y-101441000I-277800J0D01*
G01*
D12*
X154543200Y-99209000D02*
G75*
G02X154821000Y-99486800I0J-277800D01*
G01*
X152866800Y-101441000D02*
G75*
G02X152589000Y-101163200I0J277800D01*
G01*
D13*
X139889000Y-99817000D02*
X139889000Y-100325000D01*
X141597300Y-98772300D02*
X141597300Y-99312300D01*
X142397300Y-98772300D02*
X142397300Y-99312300D01*
X156242300Y-106787300D02*
X156242300Y-107327300D01*
X157042300Y-106787300D02*
X157042300Y-107327300D01*
X152862300Y-110377300D02*
X152862300Y-109837300D01*
X152062300Y-110377300D02*
X152062300Y-109837300D01*
X150772300Y-110377300D02*
X150772300Y-109837300D01*
X149972300Y-110377300D02*
X149972300Y-109837300D01*
X148682300Y-110377300D02*
X148682300Y-109837300D01*
X147882300Y-110377300D02*
X147882300Y-109837300D01*
X152202700Y-95422300D02*
X151662700Y-95422300D01*
X152202700Y-96222300D02*
X151662700Y-96222300D01*
X149152700Y-95422300D02*
X148612700Y-95422300D01*
X149152700Y-96222300D02*
X148612700Y-96222300D01*
X146102700Y-95422300D02*
X145562700Y-95422300D01*
X146102700Y-96222300D02*
X145562700Y-96222300D01*
X143052700Y-95422300D02*
X142512700Y-95422300D01*
X143052700Y-96222300D02*
X142512700Y-96222300D01*
X147769428Y-102002714D02*
X147769428Y-102619571D01*
X147805714Y-102692142D01*
X147842000Y-102728428D01*
X147914571Y-102764714D01*
X148059714Y-102764714D01*
X148132285Y-102728428D01*
X148168571Y-102692142D01*
X148204857Y-102619571D01*
X148204857Y-102002714D01*
X148966857Y-102764714D02*
X148531428Y-102764714D01*
X148749142Y-102764714D02*
X148749142Y-102002714D01*
X148676571Y-102111571D01*
X148604000Y-102184142D01*
X148531428Y-102220428D01*
X155987014Y-98397157D02*
X155624157Y-98651157D01*
X155987014Y-98832585D02*
X155225014Y-98832585D01*
X155225014Y-98542300D01*
X155261300Y-98469728D01*
X155297585Y-98433442D01*
X155370157Y-98397157D01*
X155479014Y-98397157D01*
X155551585Y-98433442D01*
X155587871Y-98469728D01*
X155624157Y-98542300D01*
X155624157Y-98832585D01*
X155297585Y-98106871D02*
X155261300Y-98070585D01*
X155225014Y-97998014D01*
X155225014Y-97816585D01*
X155261300Y-97744014D01*
X155297585Y-97707728D01*
X155370157Y-97671442D01*
X155442728Y-97671442D01*
X155551585Y-97707728D01*
X155987014Y-98143157D01*
X155987014Y-97671442D01*
X155297585Y-97381157D02*
X155261300Y-97344871D01*
X155225014Y-97272300D01*
X155225014Y-97090871D01*
X155261300Y-97018300D01*
X155297585Y-96982014D01*
X155370157Y-96945728D01*
X155442728Y-96945728D01*
X155551585Y-96982014D01*
X155987014Y-97417442D01*
X155987014Y-96945728D01*
X155987014Y-101447157D02*
X155624157Y-101701157D01*
X155987014Y-101882585D02*
X155225014Y-101882585D01*
X155225014Y-101592300D01*
X155261300Y-101519728D01*
X155297585Y-101483442D01*
X155370157Y-101447157D01*
X155479014Y-101447157D01*
X155551585Y-101483442D01*
X155587871Y-101519728D01*
X155624157Y-101592300D01*
X155624157Y-101882585D01*
X155225014Y-101193157D02*
X155225014Y-100721442D01*
X155515300Y-100975442D01*
X155515300Y-100866585D01*
X155551585Y-100794014D01*
X155587871Y-100757728D01*
X155660442Y-100721442D01*
X155841871Y-100721442D01*
X155914442Y-100757728D01*
X155950728Y-100794014D01*
X155987014Y-100866585D01*
X155987014Y-101084300D01*
X155950728Y-101156871D01*
X155914442Y-101193157D01*
X155297585Y-100431157D02*
X155261300Y-100394871D01*
X155225014Y-100322300D01*
X155225014Y-100140871D01*
X155261300Y-100068300D01*
X155297585Y-100032014D01*
X155370157Y-99995728D01*
X155442728Y-99995728D01*
X155551585Y-100032014D01*
X155987014Y-100467442D01*
X155987014Y-99995728D01*
X155987014Y-104497157D02*
X155624157Y-104751157D01*
X155987014Y-104932585D02*
X155225014Y-104932585D01*
X155225014Y-104642300D01*
X155261300Y-104569728D01*
X155297585Y-104533442D01*
X155370157Y-104497157D01*
X155479014Y-104497157D01*
X155551585Y-104533442D01*
X155587871Y-104569728D01*
X155624157Y-104642300D01*
X155624157Y-104932585D01*
X155479014Y-103844014D02*
X155987014Y-103844014D01*
X155188728Y-104025442D02*
X155733014Y-104206871D01*
X155733014Y-103735157D01*
X155297585Y-103481157D02*
X155261300Y-103444871D01*
X155225014Y-103372300D01*
X155225014Y-103190871D01*
X155261300Y-103118300D01*
X155297585Y-103082014D01*
X155370157Y-103045728D01*
X155442728Y-103045728D01*
X155551585Y-103082014D01*
X155987014Y-103517442D01*
X155987014Y-103045728D01*
X155987014Y-110597157D02*
X155624157Y-110851157D01*
X155987014Y-111032585D02*
X155225014Y-111032585D01*
X155225014Y-110742300D01*
X155261300Y-110669728D01*
X155297585Y-110633442D01*
X155370157Y-110597157D01*
X155479014Y-110597157D01*
X155551585Y-110633442D01*
X155587871Y-110669728D01*
X155624157Y-110742300D01*
X155624157Y-111032585D01*
X155225014Y-109907728D02*
X155225014Y-110270585D01*
X155587871Y-110306871D01*
X155551585Y-110270585D01*
X155515300Y-110198014D01*
X155515300Y-110016585D01*
X155551585Y-109944014D01*
X155587871Y-109907728D01*
X155660442Y-109871442D01*
X155841871Y-109871442D01*
X155914442Y-109907728D01*
X155950728Y-109944014D01*
X155987014Y-110016585D01*
X155987014Y-110198014D01*
X155950728Y-110270585D01*
X155914442Y-110306871D01*
X155297585Y-109581157D02*
X155261300Y-109544871D01*
X155225014Y-109472300D01*
X155225014Y-109290871D01*
X155261300Y-109218300D01*
X155297585Y-109182014D01*
X155370157Y-109145728D01*
X155442728Y-109145728D01*
X155551585Y-109182014D01*
X155987014Y-109617442D01*
X155987014Y-109145728D01*
X153897014Y-110597157D02*
X153534157Y-110851157D01*
X153897014Y-111032585D02*
X153135014Y-111032585D01*
X153135014Y-110742300D01*
X153171300Y-110669728D01*
X153207585Y-110633442D01*
X153280157Y-110597157D01*
X153389014Y-110597157D01*
X153461585Y-110633442D01*
X153497871Y-110669728D01*
X153534157Y-110742300D01*
X153534157Y-111032585D01*
X153135014Y-109907728D02*
X153135014Y-110270585D01*
X153497871Y-110306871D01*
X153461585Y-110270585D01*
X153425300Y-110198014D01*
X153425300Y-110016585D01*
X153461585Y-109944014D01*
X153497871Y-109907728D01*
X153570442Y-109871442D01*
X153751871Y-109871442D01*
X153824442Y-109907728D01*
X153860728Y-109944014D01*
X153897014Y-110016585D01*
X153897014Y-110198014D01*
X153860728Y-110270585D01*
X153824442Y-110306871D01*
X153897014Y-109145728D02*
X153897014Y-109581157D01*
X153897014Y-109363442D02*
X153135014Y-109363442D01*
X153243871Y-109436014D01*
X153316442Y-109508585D01*
X153352728Y-109581157D01*
X145537014Y-110234300D02*
X145174157Y-110488300D01*
X145537014Y-110669728D02*
X144775014Y-110669728D01*
X144775014Y-110379442D01*
X144811300Y-110306871D01*
X144847585Y-110270585D01*
X144920157Y-110234300D01*
X145029014Y-110234300D01*
X145101585Y-110270585D01*
X145137871Y-110306871D01*
X145174157Y-110379442D01*
X145174157Y-110669728D01*
X145537014Y-109508585D02*
X145537014Y-109944014D01*
X145537014Y-109726300D02*
X144775014Y-109726300D01*
X144883871Y-109798871D01*
X144956442Y-109871442D01*
X144992728Y-109944014D01*
X145462842Y-106937014D02*
X145208842Y-106574157D01*
X145027414Y-106937014D02*
X145027414Y-106175014D01*
X145317700Y-106175014D01*
X145390271Y-106211300D01*
X145426557Y-106247585D01*
X145462842Y-106320157D01*
X145462842Y-106429014D01*
X145426557Y-106501585D01*
X145390271Y-106537871D01*
X145317700Y-106574157D01*
X145027414Y-106574157D01*
X146115985Y-106429014D02*
X146115985Y-106937014D01*
X145934557Y-106138728D02*
X145753128Y-106683014D01*
X146224842Y-106683014D01*
X146914271Y-106937014D02*
X146478842Y-106937014D01*
X146696557Y-106937014D02*
X146696557Y-106175014D01*
X146623985Y-106283871D01*
X146551414Y-106356442D01*
X146478842Y-106392728D01*
X145462842Y-104847014D02*
X145208842Y-104484157D01*
X145027414Y-104847014D02*
X145027414Y-104085014D01*
X145317700Y-104085014D01*
X145390271Y-104121300D01*
X145426557Y-104157585D01*
X145462842Y-104230157D01*
X145462842Y-104339014D01*
X145426557Y-104411585D01*
X145390271Y-104447871D01*
X145317700Y-104484157D01*
X145027414Y-104484157D01*
X145716842Y-104085014D02*
X146188557Y-104085014D01*
X145934557Y-104375300D01*
X146043414Y-104375300D01*
X146115985Y-104411585D01*
X146152271Y-104447871D01*
X146188557Y-104520442D01*
X146188557Y-104701871D01*
X146152271Y-104774442D01*
X146115985Y-104810728D01*
X146043414Y-104847014D01*
X145825700Y-104847014D01*
X145753128Y-104810728D01*
X145716842Y-104774442D01*
X146914271Y-104847014D02*
X146478842Y-104847014D01*
X146696557Y-104847014D02*
X146696557Y-104085014D01*
X146623985Y-104193871D01*
X146551414Y-104266442D01*
X146478842Y-104302728D01*
X145462842Y-102757014D02*
X145208842Y-102394157D01*
X145027414Y-102757014D02*
X145027414Y-101995014D01*
X145317700Y-101995014D01*
X145390271Y-102031300D01*
X145426557Y-102067585D01*
X145462842Y-102140157D01*
X145462842Y-102249014D01*
X145426557Y-102321585D01*
X145390271Y-102357871D01*
X145317700Y-102394157D01*
X145027414Y-102394157D01*
X145753128Y-102067585D02*
X145789414Y-102031300D01*
X145861985Y-101995014D01*
X146043414Y-101995014D01*
X146115985Y-102031300D01*
X146152271Y-102067585D01*
X146188557Y-102140157D01*
X146188557Y-102212728D01*
X146152271Y-102321585D01*
X145716842Y-102757014D01*
X146188557Y-102757014D01*
X146914271Y-102757014D02*
X146478842Y-102757014D01*
X146696557Y-102757014D02*
X146696557Y-101995014D01*
X146623985Y-102103871D01*
X146551414Y-102176442D01*
X146478842Y-102212728D01*
X140702142Y-102787000D02*
X140738428Y-102823285D01*
X140774714Y-102932142D01*
X140774714Y-103004714D01*
X140738428Y-103113571D01*
X140665857Y-103186142D01*
X140593285Y-103222428D01*
X140448142Y-103258714D01*
X140339285Y-103258714D01*
X140194142Y-103222428D01*
X140121571Y-103186142D01*
X140049000Y-103113571D01*
X140012714Y-103004714D01*
X140012714Y-102932142D01*
X140049000Y-102823285D01*
X140085285Y-102787000D01*
X140774714Y-102061285D02*
X140774714Y-102496714D01*
X140774714Y-102279000D02*
X140012714Y-102279000D01*
X140121571Y-102351571D01*
X140194142Y-102424142D01*
X140230428Y-102496714D01*
D12*
X140097800Y-99037071D02*
X139887800Y-99037071D01*
X139887800Y-99436214D02*
X139887800Y-98674214D01*
X140187800Y-98674214D01*
X140637800Y-99037071D02*
X140727800Y-99073357D01*
X140757800Y-99109642D01*
X140787800Y-99182214D01*
X140787800Y-99291071D01*
X140757800Y-99363642D01*
X140727800Y-99399928D01*
X140667800Y-99436214D01*
X140427800Y-99436214D01*
X140427800Y-98674214D01*
X140637800Y-98674214D01*
X140697800Y-98710500D01*
X140727800Y-98746785D01*
X140757800Y-98819357D01*
X140757800Y-98891928D01*
X140727800Y-98964500D01*
X140697800Y-99000785D01*
X140637800Y-99037071D01*
X140427800Y-99037071D01*
X141387800Y-99436214D02*
X141027800Y-99436214D01*
X141207800Y-99436214D02*
X141207800Y-98674214D01*
X141147800Y-98783071D01*
X141087800Y-98855642D01*
X141027800Y-98891928D01*
D13*
X155914442Y-107547157D02*
X155950728Y-107583442D01*
X155987014Y-107692300D01*
X155987014Y-107764871D01*
X155950728Y-107873728D01*
X155878157Y-107946300D01*
X155805585Y-107982585D01*
X155660442Y-108018871D01*
X155551585Y-108018871D01*
X155406442Y-107982585D01*
X155333871Y-107946300D01*
X155261300Y-107873728D01*
X155225014Y-107764871D01*
X155225014Y-107692300D01*
X155261300Y-107583442D01*
X155297585Y-107547157D01*
X155987014Y-106821442D02*
X155987014Y-107256871D01*
X155987014Y-107039157D02*
X155225014Y-107039157D01*
X155333871Y-107111728D01*
X155406442Y-107184300D01*
X155442728Y-107256871D01*
X155987014Y-106095728D02*
X155987014Y-106531157D01*
X155987014Y-106313442D02*
X155225014Y-106313442D01*
X155333871Y-106386014D01*
X155406442Y-106458585D01*
X155442728Y-106531157D01*
X151734442Y-110597157D02*
X151770728Y-110633442D01*
X151807014Y-110742300D01*
X151807014Y-110814871D01*
X151770728Y-110923728D01*
X151698157Y-110996300D01*
X151625585Y-111032585D01*
X151480442Y-111068871D01*
X151371585Y-111068871D01*
X151226442Y-111032585D01*
X151153871Y-110996300D01*
X151081300Y-110923728D01*
X151045014Y-110814871D01*
X151045014Y-110742300D01*
X151081300Y-110633442D01*
X151117585Y-110597157D01*
X151299014Y-109944014D02*
X151807014Y-109944014D01*
X151008728Y-110125442D02*
X151553014Y-110306871D01*
X151553014Y-109835157D01*
X151807014Y-109145728D02*
X151807014Y-109581157D01*
X151807014Y-109363442D02*
X151045014Y-109363442D01*
X151153871Y-109436014D01*
X151226442Y-109508585D01*
X151262728Y-109581157D01*
X149644442Y-110597157D02*
X149680728Y-110633442D01*
X149717014Y-110742300D01*
X149717014Y-110814871D01*
X149680728Y-110923728D01*
X149608157Y-110996300D01*
X149535585Y-111032585D01*
X149390442Y-111068871D01*
X149281585Y-111068871D01*
X149136442Y-111032585D01*
X149063871Y-110996300D01*
X148991300Y-110923728D01*
X148955014Y-110814871D01*
X148955014Y-110742300D01*
X148991300Y-110633442D01*
X149027585Y-110597157D01*
X148955014Y-110343157D02*
X148955014Y-109871442D01*
X149245300Y-110125442D01*
X149245300Y-110016585D01*
X149281585Y-109944014D01*
X149317871Y-109907728D01*
X149390442Y-109871442D01*
X149571871Y-109871442D01*
X149644442Y-109907728D01*
X149680728Y-109944014D01*
X149717014Y-110016585D01*
X149717014Y-110234300D01*
X149680728Y-110306871D01*
X149644442Y-110343157D01*
X149717014Y-109145728D02*
X149717014Y-109581157D01*
X149717014Y-109363442D02*
X148955014Y-109363442D01*
X149063871Y-109436014D01*
X149136442Y-109508585D01*
X149172728Y-109581157D01*
X147554442Y-110597157D02*
X147590728Y-110633442D01*
X147627014Y-110742300D01*
X147627014Y-110814871D01*
X147590728Y-110923728D01*
X147518157Y-110996300D01*
X147445585Y-111032585D01*
X147300442Y-111068871D01*
X147191585Y-111068871D01*
X147046442Y-111032585D01*
X146973871Y-110996300D01*
X146901300Y-110923728D01*
X146865014Y-110814871D01*
X146865014Y-110742300D01*
X146901300Y-110633442D01*
X146937585Y-110597157D01*
X146937585Y-110306871D02*
X146901300Y-110270585D01*
X146865014Y-110198014D01*
X146865014Y-110016585D01*
X146901300Y-109944014D01*
X146937585Y-109907728D01*
X147010157Y-109871442D01*
X147082728Y-109871442D01*
X147191585Y-109907728D01*
X147627014Y-110343157D01*
X147627014Y-109871442D01*
X147627014Y-109145728D02*
X147627014Y-109581157D01*
X147627014Y-109363442D02*
X146865014Y-109363442D01*
X146973871Y-109436014D01*
X147046442Y-109508585D01*
X147082728Y-109581157D01*
X151442842Y-95094442D02*
X151406557Y-95130728D01*
X151297700Y-95167014D01*
X151225128Y-95167014D01*
X151116271Y-95130728D01*
X151043700Y-95058157D01*
X151007414Y-94985585D01*
X150971128Y-94840442D01*
X150971128Y-94731585D01*
X151007414Y-94586442D01*
X151043700Y-94513871D01*
X151116271Y-94441300D01*
X151225128Y-94405014D01*
X151297700Y-94405014D01*
X151406557Y-94441300D01*
X151442842Y-94477585D01*
X152132271Y-94405014D02*
X151769414Y-94405014D01*
X151733128Y-94767871D01*
X151769414Y-94731585D01*
X151841985Y-94695300D01*
X152023414Y-94695300D01*
X152095985Y-94731585D01*
X152132271Y-94767871D01*
X152168557Y-94840442D01*
X152168557Y-95021871D01*
X152132271Y-95094442D01*
X152095985Y-95130728D01*
X152023414Y-95167014D01*
X151841985Y-95167014D01*
X151769414Y-95130728D01*
X151733128Y-95094442D01*
X152894271Y-95167014D02*
X152458842Y-95167014D01*
X152676557Y-95167014D02*
X152676557Y-94405014D01*
X152603985Y-94513871D01*
X152531414Y-94586442D01*
X152458842Y-94622728D01*
X148392842Y-95094442D02*
X148356557Y-95130728D01*
X148247700Y-95167014D01*
X148175128Y-95167014D01*
X148066271Y-95130728D01*
X147993700Y-95058157D01*
X147957414Y-94985585D01*
X147921128Y-94840442D01*
X147921128Y-94731585D01*
X147957414Y-94586442D01*
X147993700Y-94513871D01*
X148066271Y-94441300D01*
X148175128Y-94405014D01*
X148247700Y-94405014D01*
X148356557Y-94441300D01*
X148392842Y-94477585D01*
X149045985Y-94659014D02*
X149045985Y-95167014D01*
X148864557Y-94368728D02*
X148683128Y-94913014D01*
X149154842Y-94913014D01*
X149408842Y-94477585D02*
X149445128Y-94441300D01*
X149517700Y-94405014D01*
X149699128Y-94405014D01*
X149771700Y-94441300D01*
X149807985Y-94477585D01*
X149844271Y-94550157D01*
X149844271Y-94622728D01*
X149807985Y-94731585D01*
X149372557Y-95167014D01*
X149844271Y-95167014D01*
X145342842Y-95094442D02*
X145306557Y-95130728D01*
X145197700Y-95167014D01*
X145125128Y-95167014D01*
X145016271Y-95130728D01*
X144943700Y-95058157D01*
X144907414Y-94985585D01*
X144871128Y-94840442D01*
X144871128Y-94731585D01*
X144907414Y-94586442D01*
X144943700Y-94513871D01*
X145016271Y-94441300D01*
X145125128Y-94405014D01*
X145197700Y-94405014D01*
X145306557Y-94441300D01*
X145342842Y-94477585D01*
X145596842Y-94405014D02*
X146068557Y-94405014D01*
X145814557Y-94695300D01*
X145923414Y-94695300D01*
X145995985Y-94731585D01*
X146032271Y-94767871D01*
X146068557Y-94840442D01*
X146068557Y-95021871D01*
X146032271Y-95094442D01*
X145995985Y-95130728D01*
X145923414Y-95167014D01*
X145705700Y-95167014D01*
X145633128Y-95130728D01*
X145596842Y-95094442D01*
X146358842Y-94477585D02*
X146395128Y-94441300D01*
X146467700Y-94405014D01*
X146649128Y-94405014D01*
X146721700Y-94441300D01*
X146757985Y-94477585D01*
X146794271Y-94550157D01*
X146794271Y-94622728D01*
X146757985Y-94731585D01*
X146322557Y-95167014D01*
X146794271Y-95167014D01*
X142292842Y-95094442D02*
X142256557Y-95130728D01*
X142147700Y-95167014D01*
X142075128Y-95167014D01*
X141966271Y-95130728D01*
X141893700Y-95058157D01*
X141857414Y-94985585D01*
X141821128Y-94840442D01*
X141821128Y-94731585D01*
X141857414Y-94586442D01*
X141893700Y-94513871D01*
X141966271Y-94441300D01*
X142075128Y-94405014D01*
X142147700Y-94405014D01*
X142256557Y-94441300D01*
X142292842Y-94477585D01*
X142583128Y-94477585D02*
X142619414Y-94441300D01*
X142691985Y-94405014D01*
X142873414Y-94405014D01*
X142945985Y-94441300D01*
X142982271Y-94477585D01*
X143018557Y-94550157D01*
X143018557Y-94622728D01*
X142982271Y-94731585D01*
X142546842Y-95167014D01*
X143018557Y-95167014D01*
X143308842Y-94477585D02*
X143345128Y-94441300D01*
X143417700Y-94405014D01*
X143599128Y-94405014D01*
X143671700Y-94441300D01*
X143707985Y-94477585D01*
X143744271Y-94550157D01*
X143744271Y-94622728D01*
X143707985Y-94731585D01*
X143272557Y-95167014D01*
X143744271Y-95167014D01*
M02*
