M48
; DRILL file {KiCad (5.1.2-1)-1} date Donnerstag, 17. Dezember 2020 um 17:00:48
; FORMAT={-:-/ absolute / metric / decimal}
; #@! TF.CreationDate,2020-12-17T17:00:48+01:00
; #@! TF.GenerationSoftware,Kicad,Pcbnew,(5.1.2-1)-1
FMAT,2
METRIC
T1C0.300
T2C1.000
T3C1.000
%
G90
G05
T1
X139.645Y-97.17
X139.645Y-98.97
X139.645Y-100.77
X139.645Y-102.57
X141.995Y-97.17
X143.505Y-102.651
X144.3Y-94.77
X146.192Y-110.895
X146.74Y-103.412
X146.74Y-105.502
X146.74Y-107.592
X148.282Y-109.32
X150.085Y-105.435
X150.372Y-109.32
X150.385Y-104.835
X150.385Y-106.035
X150.685Y-105.435
X150.985Y-104.835
X150.985Y-106.035
X151.145Y-95.822
X151.285Y-105.435
X151.585Y-104.835
X151.585Y-106.035
X151.885Y-105.435
X152.462Y-109.32
X152.72Y-95.822
X154.552Y-109.32
X155.49Y-115.295
X155.63Y-114.137
X156.09Y-115.295
X156.385Y-111.895
X156.642Y-100.17
X156.642Y-103.22
X156.642Y-106.27
X156.642Y-109.32
X156.69Y-115.295
X156.985Y-111.895
X157.355Y-97.907
X157.355Y-100.957
X157.355Y-104.007
X157.355Y-107.057
X157.355Y-110.107
T2
X143.545Y-97.785
X148.625Y-97.785
X148.625Y-100.325
X151.165Y-97.785
X151.165Y-100.325
X153.705Y-97.785
X153.705Y-100.325
T3
X141.005Y-97.785
X141.005Y-100.325
X143.545Y-100.325
X146.085Y-97.785
X146.085Y-100.325
T0
M30
