%TF.GenerationSoftware,KiCad,Pcbnew,(5.1.2-1)-1*%
%TF.CreationDate,2020-12-17T17:00:40+01:00*%
%TF.ProjectId,n64_rgb_amp,6e36345f-7267-4625-9f61-6d702e6b6963,1.1*%
%TF.SameCoordinates,Original*%
%TF.FileFunction,Copper,L1,Top*%
%TF.FilePolarity,Positive*%
%FSLAX46Y46*%
G04 Gerber Fmt 4.6, Leading zero omitted, Abs format (unit mm)*
G04 Created by KiCad (PCBNEW (5.1.2-1)-1) date 2020-12-17 17:00:40*
%MOMM*%
%LPD*%
G04 APERTURE LIST*
%ADD10R,1.050000X2.100000*%
%ADD11R,0.750000X1.000000*%
%ADD12R,1.000000X0.400000*%
%ADD13R,0.950000X0.875000*%
%ADD14R,0.875000X0.950000*%
%ADD15R,0.975000X1.400000*%
%ADD16O,1.700000X1.700000*%
%ADD17C,1.700000*%
%ADD18C,0.400000*%
%ADD19C,0.550000*%
%ADD20C,0.320000*%
%ADD21C,0.406400*%
%ADD22C,0.400000*%
%ADD23C,0.254000*%
%ADD24C,0.101600*%
G04 APERTURE END LIST*
D10*
X150625000Y-114495000D03*
X149025000Y-114495000D03*
X153825000Y-114495000D03*
X152225000Y-114495000D03*
D11*
X155640000Y-114137500D03*
X156540000Y-114137500D03*
D12*
X154355000Y-103425000D03*
X154355000Y-104075000D03*
X154355000Y-104725000D03*
X154355000Y-105375000D03*
X154355000Y-106025000D03*
X154355000Y-106675000D03*
X154355000Y-107325000D03*
X148455000Y-107325000D03*
X148455000Y-106675000D03*
X148455000Y-106025000D03*
X148455000Y-105375000D03*
X148455000Y-104725000D03*
X148455000Y-104075000D03*
X148455000Y-103425000D03*
D13*
X156642300Y-98694800D03*
X156642300Y-97119800D03*
X156642300Y-101744800D03*
X156642300Y-100169800D03*
X156642300Y-104794800D03*
X156642300Y-103219800D03*
X156642300Y-110894800D03*
X156642300Y-109319800D03*
X154552300Y-109319800D03*
X154552300Y-110894800D03*
X146192300Y-110894800D03*
X146192300Y-109319800D03*
D14*
X145165200Y-107592300D03*
X146740200Y-107592300D03*
X145165200Y-105502300D03*
X146740200Y-105502300D03*
X145165200Y-103412300D03*
X146740200Y-103412300D03*
D15*
X141630000Y-102651000D03*
X143505000Y-102651000D03*
D16*
X143545000Y-97785000D03*
X148625000Y-100325000D03*
X148625000Y-97785000D03*
X151165000Y-100325000D03*
X151165000Y-97785000D03*
D17*
X153705000Y-100325000D03*
X153705000Y-97785000D03*
D13*
X141997300Y-99829800D03*
X141997300Y-98254800D03*
X156642300Y-107844800D03*
X156642300Y-106269800D03*
X152462300Y-109319800D03*
X152462300Y-110894800D03*
X150372300Y-109319800D03*
X150372300Y-110894800D03*
X148282300Y-109319800D03*
X148282300Y-110894800D03*
D14*
X151145200Y-95822300D03*
X152720200Y-95822300D03*
X148095200Y-95822300D03*
X149670200Y-95822300D03*
X145045200Y-95822300D03*
X146620200Y-95822300D03*
X141995200Y-95822300D03*
X143570200Y-95822300D03*
D18*
X150985000Y-106035000D03*
X150385000Y-106035000D03*
D19*
X151145200Y-95822300D03*
D18*
X156385000Y-111895000D03*
X156985000Y-111895000D03*
X151585000Y-106035000D03*
X151885000Y-105435000D03*
X150685000Y-105435000D03*
X150985000Y-104835000D03*
X151585000Y-104835000D03*
X139645000Y-100770000D03*
X139645000Y-98970000D03*
X139645000Y-102570000D03*
X139645000Y-97170000D03*
X144300000Y-94770000D03*
D20*
X157355000Y-107057300D03*
D18*
X156690000Y-115295000D03*
X150085000Y-105435000D03*
X150385000Y-104835000D03*
X151285000Y-105435000D03*
X141995200Y-97170000D03*
D20*
X157355000Y-110107300D03*
D18*
X156090000Y-115295000D03*
X155490000Y-115295000D03*
X157355000Y-104007300D03*
X157355000Y-100957300D03*
X157355000Y-97907300D03*
D19*
X156642300Y-106269800D03*
X143505000Y-102651000D03*
X146740200Y-103412300D03*
X148282300Y-109319800D03*
X150372300Y-109319800D03*
X146740200Y-105502300D03*
X156642300Y-100169800D03*
X152462300Y-109319800D03*
X146740200Y-107592300D03*
X156642300Y-103219800D03*
X152720200Y-95822300D03*
X146192300Y-110894800D03*
X155630000Y-114137500D03*
X156642300Y-109319800D03*
X154552300Y-109319800D03*
D21*
X145165200Y-108292700D02*
X146192300Y-109319800D01*
D22*
X143505000Y-102761000D02*
X143505000Y-102761000D01*
X146192300Y-109319800D02*
X146192300Y-109312300D01*
X143505000Y-102761000D02*
X143505000Y-102548500D01*
D21*
X143505000Y-102651000D02*
X143505000Y-102438500D01*
X143505000Y-102438500D02*
X141997300Y-100930800D01*
X144403900Y-102651000D02*
X145165200Y-103412300D01*
X143505000Y-102651000D02*
X144403900Y-102651000D01*
D22*
X155689800Y-106269800D02*
X155445000Y-106025000D01*
X156642300Y-106269800D02*
X155689800Y-106269800D01*
X155445000Y-106025000D02*
X154355000Y-106025000D01*
D21*
X145165200Y-103412300D02*
X145165200Y-108292700D01*
X141997300Y-99829800D02*
X141997300Y-100930800D01*
D23*
X148455000Y-104075000D02*
X147402900Y-104075000D01*
X147402900Y-104075000D02*
X146740200Y-103412300D01*
X155917300Y-97119800D02*
X155250000Y-97787100D01*
X155250000Y-98780000D02*
X153705000Y-100325000D01*
X156642300Y-97119800D02*
X155917300Y-97119800D01*
X155250000Y-97787100D02*
X155250000Y-98780000D01*
X143570200Y-95859800D02*
X144815000Y-97104600D01*
X144815000Y-97104600D02*
X144815000Y-98260000D01*
X143570200Y-95822300D02*
X143570200Y-95859800D01*
X144815000Y-98260000D02*
X145615000Y-99060000D01*
X145615000Y-99060000D02*
X152440000Y-99060000D01*
X152440000Y-99060000D02*
X153705000Y-100325000D01*
X148455000Y-104725000D02*
X147517500Y-104725000D01*
X147517500Y-104725000D02*
X146740200Y-105502300D01*
X152345001Y-96935001D02*
X151930000Y-96520000D01*
X153705000Y-97785000D02*
X152855001Y-96935001D01*
X152855001Y-96935001D02*
X152345001Y-96935001D01*
X146620200Y-94909800D02*
X146949800Y-94580200D01*
X146620200Y-95822300D02*
X146620200Y-94909800D01*
X151930000Y-94940000D02*
X151930000Y-96520000D01*
X151540000Y-94550000D02*
X151930000Y-94940000D01*
X146980000Y-94550000D02*
X151540000Y-94550000D01*
X147570000Y-105640000D02*
X147835000Y-105375000D01*
X146740200Y-107554800D02*
X146740200Y-107592300D01*
X147570000Y-106725000D02*
X146740200Y-107554800D01*
X147570000Y-105640000D02*
X147570000Y-106725000D01*
X148455000Y-105375000D02*
X147835000Y-105375000D01*
X149670200Y-96570200D02*
X149670200Y-95822300D01*
X150310000Y-96930000D02*
X150030000Y-96930000D01*
X151165000Y-97785000D02*
X150310000Y-96930000D01*
X150030000Y-96930000D02*
X149670200Y-96570200D01*
X154355000Y-103425000D02*
X152635000Y-103425000D01*
X151165000Y-101955000D02*
X152635000Y-103425000D01*
X151165000Y-100325000D02*
X151165000Y-101955000D01*
D21*
X142467100Y-97785000D02*
X141997300Y-98254800D01*
X143545000Y-97785000D02*
X142467100Y-97785000D01*
D23*
X155630000Y-107180000D02*
X155125000Y-106675000D01*
X155125000Y-106675000D02*
X154355000Y-106675000D01*
X155630000Y-114137500D02*
X155630000Y-107180000D01*
X154514800Y-109319800D02*
X153090000Y-107895000D01*
X153090000Y-107895000D02*
X153090000Y-104810000D01*
X153090000Y-104810000D02*
X151705000Y-103425000D01*
X151705000Y-103425000D02*
X148455000Y-103425000D01*
X150625000Y-111915400D02*
X150372300Y-111662700D01*
X150625000Y-114495000D02*
X150625000Y-111915400D01*
X150372300Y-111662700D02*
X150372300Y-110894800D01*
X148319800Y-110894800D02*
X149025000Y-111600000D01*
X149025000Y-111600000D02*
X149025000Y-114495000D01*
X148282300Y-110894800D02*
X148319800Y-110894800D01*
D22*
X152225000Y-114495000D02*
X152225000Y-114885000D01*
D23*
X152225000Y-114495000D02*
X152225000Y-111915400D01*
X152462300Y-111678100D02*
X152462300Y-110894800D01*
X152225000Y-111915400D02*
X152462300Y-111678100D01*
X154514800Y-110894800D02*
X153825000Y-111584600D01*
X154552300Y-110894800D02*
X154514800Y-110894800D01*
X153825000Y-111584600D02*
X153825000Y-114495000D01*
X156604800Y-98694800D02*
X155780000Y-99519600D01*
X156642300Y-98694800D02*
X156604800Y-98694800D01*
X154985000Y-104075000D02*
X154355000Y-104075000D01*
X155270000Y-103790000D02*
X154985000Y-104075000D01*
X155270000Y-102350000D02*
X155270000Y-103790000D01*
X155780000Y-101840000D02*
X155270000Y-102350000D01*
X155780000Y-99519600D02*
X155780000Y-101840000D01*
X155109000Y-104725000D02*
X155780000Y-104054000D01*
X154355000Y-104725000D02*
X155109000Y-104725000D01*
X155780000Y-102569600D02*
X155780000Y-104054000D01*
X156604800Y-101744800D02*
X155780000Y-102569600D01*
X156642300Y-101744800D02*
X156604800Y-101744800D01*
X155805200Y-104794800D02*
X155225000Y-105375000D01*
X156642300Y-104794800D02*
X155805200Y-104794800D01*
X155225000Y-105375000D02*
X154355000Y-105375000D01*
D24*
G36*
X157331260Y-96535091D02*
G01*
X157423289Y-96646335D01*
X157491955Y-96773331D01*
X157534648Y-96911250D01*
X157551001Y-97066829D01*
X157551000Y-114437332D01*
X157526147Y-114690802D01*
X157456212Y-114922440D01*
X157342622Y-115136070D01*
X157189695Y-115323576D01*
X157003263Y-115477806D01*
X156790424Y-115592888D01*
X156559288Y-115664437D01*
X156306549Y-115691000D01*
X155160800Y-115691000D01*
X155160800Y-114869811D01*
X155167328Y-114873300D01*
X155215207Y-114887824D01*
X155265000Y-114892728D01*
X155995909Y-114892728D01*
X156047794Y-114920461D01*
X156105249Y-114937890D01*
X156165000Y-114943775D01*
X156324100Y-114942300D01*
X156400300Y-114866100D01*
X156400300Y-114277200D01*
X156679700Y-114277200D01*
X156679700Y-114866100D01*
X156755900Y-114942300D01*
X156915000Y-114943775D01*
X156974751Y-114937890D01*
X157032206Y-114920461D01*
X157085157Y-114892158D01*
X157131569Y-114854069D01*
X157169658Y-114807657D01*
X157197961Y-114754706D01*
X157215390Y-114697251D01*
X157221275Y-114637500D01*
X157219800Y-114353400D01*
X157143600Y-114277200D01*
X156679700Y-114277200D01*
X156400300Y-114277200D01*
X156380300Y-114277200D01*
X156380300Y-113997800D01*
X156400300Y-113997800D01*
X156400300Y-113408900D01*
X156679700Y-113408900D01*
X156679700Y-113997800D01*
X157143600Y-113997800D01*
X157219800Y-113921600D01*
X157221275Y-113637500D01*
X157215390Y-113577749D01*
X157197961Y-113520294D01*
X157169658Y-113467343D01*
X157131569Y-113420931D01*
X157085157Y-113382842D01*
X157032206Y-113354539D01*
X156974751Y-113337110D01*
X156915000Y-113331225D01*
X156755900Y-113332700D01*
X156679700Y-113408900D01*
X156400300Y-113408900D01*
X156324100Y-113332700D01*
X156165000Y-113331225D01*
X156105249Y-113337110D01*
X156047794Y-113354539D01*
X156011000Y-113374206D01*
X156011000Y-111594365D01*
X156050094Y-111615261D01*
X156107549Y-111632690D01*
X156167300Y-111638575D01*
X156426400Y-111637100D01*
X156502600Y-111560900D01*
X156502600Y-111340441D01*
X156504824Y-111333110D01*
X156505800Y-111323199D01*
X156505800Y-111034500D01*
X156782000Y-111034500D01*
X156782000Y-111560900D01*
X156858200Y-111637100D01*
X157117300Y-111638575D01*
X157177051Y-111632690D01*
X157234506Y-111615261D01*
X157287457Y-111586958D01*
X157333869Y-111548869D01*
X157371958Y-111502457D01*
X157400261Y-111449506D01*
X157417690Y-111392051D01*
X157423575Y-111332300D01*
X157422100Y-111110700D01*
X157345900Y-111034500D01*
X156782000Y-111034500D01*
X156505800Y-111034500D01*
X156505800Y-110228700D01*
X156782000Y-110228700D01*
X156782000Y-110755100D01*
X157345900Y-110755100D01*
X157422100Y-110678900D01*
X157423575Y-110457300D01*
X157417690Y-110397549D01*
X157400261Y-110340094D01*
X157371958Y-110287143D01*
X157333869Y-110240731D01*
X157287457Y-110202642D01*
X157234506Y-110174339D01*
X157177051Y-110156910D01*
X157117300Y-110151025D01*
X156858200Y-110152500D01*
X156782000Y-110228700D01*
X156505800Y-110228700D01*
X156505800Y-110012528D01*
X157117300Y-110012528D01*
X157167093Y-110007624D01*
X157214972Y-109993100D01*
X157259097Y-109969514D01*
X157297773Y-109937773D01*
X157329514Y-109899097D01*
X157353100Y-109854972D01*
X157367624Y-109807093D01*
X157372528Y-109757300D01*
X157372528Y-108882300D01*
X157367624Y-108832507D01*
X157353100Y-108784628D01*
X157329514Y-108740503D01*
X157297773Y-108701827D01*
X157259097Y-108670086D01*
X157214972Y-108646500D01*
X157167093Y-108631976D01*
X157117300Y-108627072D01*
X156505800Y-108627072D01*
X156505800Y-107984500D01*
X156782000Y-107984500D01*
X156782000Y-108510900D01*
X156858200Y-108587100D01*
X157117300Y-108588575D01*
X157177051Y-108582690D01*
X157234506Y-108565261D01*
X157287457Y-108536958D01*
X157333869Y-108498869D01*
X157371958Y-108452457D01*
X157400261Y-108399506D01*
X157417690Y-108342051D01*
X157423575Y-108282300D01*
X157422100Y-108060700D01*
X157345900Y-107984500D01*
X156782000Y-107984500D01*
X156505800Y-107984500D01*
X156505800Y-107178700D01*
X156782000Y-107178700D01*
X156782000Y-107705100D01*
X157345900Y-107705100D01*
X157422100Y-107628900D01*
X157423575Y-107407300D01*
X157417690Y-107347549D01*
X157400261Y-107290094D01*
X157371958Y-107237143D01*
X157333869Y-107190731D01*
X157287457Y-107152642D01*
X157234506Y-107124339D01*
X157177051Y-107106910D01*
X157117300Y-107101025D01*
X156858200Y-107102500D01*
X156782000Y-107178700D01*
X156505800Y-107178700D01*
X156505800Y-106962528D01*
X157117300Y-106962528D01*
X157167093Y-106957624D01*
X157214972Y-106943100D01*
X157259097Y-106919514D01*
X157297773Y-106887773D01*
X157329514Y-106849097D01*
X157353100Y-106804972D01*
X157367624Y-106757093D01*
X157372528Y-106707300D01*
X157372528Y-105832300D01*
X157367624Y-105782507D01*
X157353100Y-105734628D01*
X157329514Y-105690503D01*
X157297773Y-105651827D01*
X157259097Y-105620086D01*
X157214972Y-105596500D01*
X157167093Y-105581976D01*
X157165800Y-105581849D01*
X157165800Y-105482751D01*
X157167093Y-105482624D01*
X157214972Y-105468100D01*
X157259097Y-105444514D01*
X157297773Y-105412773D01*
X157329514Y-105374097D01*
X157353100Y-105329972D01*
X157367624Y-105282093D01*
X157372528Y-105232300D01*
X157372528Y-104357300D01*
X157367624Y-104307507D01*
X157353100Y-104259628D01*
X157329514Y-104215503D01*
X157297773Y-104176827D01*
X157259097Y-104145086D01*
X157214972Y-104121500D01*
X157167093Y-104106976D01*
X157165800Y-104106849D01*
X157165800Y-103907751D01*
X157167093Y-103907624D01*
X157214972Y-103893100D01*
X157259097Y-103869514D01*
X157297773Y-103837773D01*
X157329514Y-103799097D01*
X157353100Y-103754972D01*
X157367624Y-103707093D01*
X157372528Y-103657300D01*
X157372528Y-102782300D01*
X157367624Y-102732507D01*
X157353100Y-102684628D01*
X157329514Y-102640503D01*
X157297773Y-102601827D01*
X157259097Y-102570086D01*
X157214972Y-102546500D01*
X157167093Y-102531976D01*
X157165800Y-102531849D01*
X157165800Y-102432751D01*
X157167093Y-102432624D01*
X157214972Y-102418100D01*
X157259097Y-102394514D01*
X157297773Y-102362773D01*
X157329514Y-102324097D01*
X157353100Y-102279972D01*
X157367624Y-102232093D01*
X157372528Y-102182300D01*
X157372528Y-101307300D01*
X157367624Y-101257507D01*
X157353100Y-101209628D01*
X157329514Y-101165503D01*
X157297773Y-101126827D01*
X157259097Y-101095086D01*
X157214972Y-101071500D01*
X157167093Y-101056976D01*
X157165800Y-101056849D01*
X157165800Y-100857751D01*
X157167093Y-100857624D01*
X157214972Y-100843100D01*
X157259097Y-100819514D01*
X157297773Y-100787773D01*
X157329514Y-100749097D01*
X157353100Y-100704972D01*
X157367624Y-100657093D01*
X157372528Y-100607300D01*
X157372528Y-99732300D01*
X157367624Y-99682507D01*
X157353100Y-99634628D01*
X157329514Y-99590503D01*
X157297773Y-99551827D01*
X157259097Y-99520086D01*
X157214972Y-99496500D01*
X157167093Y-99481976D01*
X157165800Y-99481849D01*
X157165800Y-99382751D01*
X157167093Y-99382624D01*
X157214972Y-99368100D01*
X157259097Y-99344514D01*
X157297773Y-99312773D01*
X157329514Y-99274097D01*
X157353100Y-99229972D01*
X157367624Y-99182093D01*
X157372528Y-99132300D01*
X157372528Y-98257300D01*
X157367624Y-98207507D01*
X157353100Y-98159628D01*
X157329514Y-98115503D01*
X157297773Y-98076827D01*
X157259097Y-98045086D01*
X157214972Y-98021500D01*
X157167093Y-98006976D01*
X157165800Y-98006849D01*
X157165800Y-97807751D01*
X157167093Y-97807624D01*
X157214972Y-97793100D01*
X157259097Y-97769514D01*
X157297773Y-97737773D01*
X157329514Y-97699097D01*
X157353100Y-97654972D01*
X157367624Y-97607093D01*
X157372528Y-97557300D01*
X157372528Y-96682300D01*
X157367624Y-96632507D01*
X157353100Y-96584628D01*
X157329514Y-96540503D01*
X157312547Y-96519829D01*
X157331260Y-96535091D01*
X157331260Y-96535091D01*
G37*
X157331260Y-96535091D02*
X157423289Y-96646335D01*
X157491955Y-96773331D01*
X157534648Y-96911250D01*
X157551001Y-97066829D01*
X157551000Y-114437332D01*
X157526147Y-114690802D01*
X157456212Y-114922440D01*
X157342622Y-115136070D01*
X157189695Y-115323576D01*
X157003263Y-115477806D01*
X156790424Y-115592888D01*
X156559288Y-115664437D01*
X156306549Y-115691000D01*
X155160800Y-115691000D01*
X155160800Y-114869811D01*
X155167328Y-114873300D01*
X155215207Y-114887824D01*
X155265000Y-114892728D01*
X155995909Y-114892728D01*
X156047794Y-114920461D01*
X156105249Y-114937890D01*
X156165000Y-114943775D01*
X156324100Y-114942300D01*
X156400300Y-114866100D01*
X156400300Y-114277200D01*
X156679700Y-114277200D01*
X156679700Y-114866100D01*
X156755900Y-114942300D01*
X156915000Y-114943775D01*
X156974751Y-114937890D01*
X157032206Y-114920461D01*
X157085157Y-114892158D01*
X157131569Y-114854069D01*
X157169658Y-114807657D01*
X157197961Y-114754706D01*
X157215390Y-114697251D01*
X157221275Y-114637500D01*
X157219800Y-114353400D01*
X157143600Y-114277200D01*
X156679700Y-114277200D01*
X156400300Y-114277200D01*
X156380300Y-114277200D01*
X156380300Y-113997800D01*
X156400300Y-113997800D01*
X156400300Y-113408900D01*
X156679700Y-113408900D01*
X156679700Y-113997800D01*
X157143600Y-113997800D01*
X157219800Y-113921600D01*
X157221275Y-113637500D01*
X157215390Y-113577749D01*
X157197961Y-113520294D01*
X157169658Y-113467343D01*
X157131569Y-113420931D01*
X157085157Y-113382842D01*
X157032206Y-113354539D01*
X156974751Y-113337110D01*
X156915000Y-113331225D01*
X156755900Y-113332700D01*
X156679700Y-113408900D01*
X156400300Y-113408900D01*
X156324100Y-113332700D01*
X156165000Y-113331225D01*
X156105249Y-113337110D01*
X156047794Y-113354539D01*
X156011000Y-113374206D01*
X156011000Y-111594365D01*
X156050094Y-111615261D01*
X156107549Y-111632690D01*
X156167300Y-111638575D01*
X156426400Y-111637100D01*
X156502600Y-111560900D01*
X156502600Y-111340441D01*
X156504824Y-111333110D01*
X156505800Y-111323199D01*
X156505800Y-111034500D01*
X156782000Y-111034500D01*
X156782000Y-111560900D01*
X156858200Y-111637100D01*
X157117300Y-111638575D01*
X157177051Y-111632690D01*
X157234506Y-111615261D01*
X157287457Y-111586958D01*
X157333869Y-111548869D01*
X157371958Y-111502457D01*
X157400261Y-111449506D01*
X157417690Y-111392051D01*
X157423575Y-111332300D01*
X157422100Y-111110700D01*
X157345900Y-111034500D01*
X156782000Y-111034500D01*
X156505800Y-111034500D01*
X156505800Y-110228700D01*
X156782000Y-110228700D01*
X156782000Y-110755100D01*
X157345900Y-110755100D01*
X157422100Y-110678900D01*
X157423575Y-110457300D01*
X157417690Y-110397549D01*
X157400261Y-110340094D01*
X157371958Y-110287143D01*
X157333869Y-110240731D01*
X157287457Y-110202642D01*
X157234506Y-110174339D01*
X157177051Y-110156910D01*
X157117300Y-110151025D01*
X156858200Y-110152500D01*
X156782000Y-110228700D01*
X156505800Y-110228700D01*
X156505800Y-110012528D01*
X157117300Y-110012528D01*
X157167093Y-110007624D01*
X157214972Y-109993100D01*
X157259097Y-109969514D01*
X157297773Y-109937773D01*
X157329514Y-109899097D01*
X157353100Y-109854972D01*
X157367624Y-109807093D01*
X157372528Y-109757300D01*
X157372528Y-108882300D01*
X157367624Y-108832507D01*
X157353100Y-108784628D01*
X157329514Y-108740503D01*
X157297773Y-108701827D01*
X157259097Y-108670086D01*
X157214972Y-108646500D01*
X157167093Y-108631976D01*
X157117300Y-108627072D01*
X156505800Y-108627072D01*
X156505800Y-107984500D01*
X156782000Y-107984500D01*
X156782000Y-108510900D01*
X156858200Y-108587100D01*
X157117300Y-108588575D01*
X157177051Y-108582690D01*
X157234506Y-108565261D01*
X157287457Y-108536958D01*
X157333869Y-108498869D01*
X157371958Y-108452457D01*
X157400261Y-108399506D01*
X157417690Y-108342051D01*
X157423575Y-108282300D01*
X157422100Y-108060700D01*
X157345900Y-107984500D01*
X156782000Y-107984500D01*
X156505800Y-107984500D01*
X156505800Y-107178700D01*
X156782000Y-107178700D01*
X156782000Y-107705100D01*
X157345900Y-107705100D01*
X157422100Y-107628900D01*
X157423575Y-107407300D01*
X157417690Y-107347549D01*
X157400261Y-107290094D01*
X157371958Y-107237143D01*
X157333869Y-107190731D01*
X157287457Y-107152642D01*
X157234506Y-107124339D01*
X157177051Y-107106910D01*
X157117300Y-107101025D01*
X156858200Y-107102500D01*
X156782000Y-107178700D01*
X156505800Y-107178700D01*
X156505800Y-106962528D01*
X157117300Y-106962528D01*
X157167093Y-106957624D01*
X157214972Y-106943100D01*
X157259097Y-106919514D01*
X157297773Y-106887773D01*
X157329514Y-106849097D01*
X157353100Y-106804972D01*
X157367624Y-106757093D01*
X157372528Y-106707300D01*
X157372528Y-105832300D01*
X157367624Y-105782507D01*
X157353100Y-105734628D01*
X157329514Y-105690503D01*
X157297773Y-105651827D01*
X157259097Y-105620086D01*
X157214972Y-105596500D01*
X157167093Y-105581976D01*
X157165800Y-105581849D01*
X157165800Y-105482751D01*
X157167093Y-105482624D01*
X157214972Y-105468100D01*
X157259097Y-105444514D01*
X157297773Y-105412773D01*
X157329514Y-105374097D01*
X157353100Y-105329972D01*
X157367624Y-105282093D01*
X157372528Y-105232300D01*
X157372528Y-104357300D01*
X157367624Y-104307507D01*
X157353100Y-104259628D01*
X157329514Y-104215503D01*
X157297773Y-104176827D01*
X157259097Y-104145086D01*
X157214972Y-104121500D01*
X157167093Y-104106976D01*
X157165800Y-104106849D01*
X157165800Y-103907751D01*
X157167093Y-103907624D01*
X157214972Y-103893100D01*
X157259097Y-103869514D01*
X157297773Y-103837773D01*
X157329514Y-103799097D01*
X157353100Y-103754972D01*
X157367624Y-103707093D01*
X157372528Y-103657300D01*
X157372528Y-102782300D01*
X157367624Y-102732507D01*
X157353100Y-102684628D01*
X157329514Y-102640503D01*
X157297773Y-102601827D01*
X157259097Y-102570086D01*
X157214972Y-102546500D01*
X157167093Y-102531976D01*
X157165800Y-102531849D01*
X157165800Y-102432751D01*
X157167093Y-102432624D01*
X157214972Y-102418100D01*
X157259097Y-102394514D01*
X157297773Y-102362773D01*
X157329514Y-102324097D01*
X157353100Y-102279972D01*
X157367624Y-102232093D01*
X157372528Y-102182300D01*
X157372528Y-101307300D01*
X157367624Y-101257507D01*
X157353100Y-101209628D01*
X157329514Y-101165503D01*
X157297773Y-101126827D01*
X157259097Y-101095086D01*
X157214972Y-101071500D01*
X157167093Y-101056976D01*
X157165800Y-101056849D01*
X157165800Y-100857751D01*
X157167093Y-100857624D01*
X157214972Y-100843100D01*
X157259097Y-100819514D01*
X157297773Y-100787773D01*
X157329514Y-100749097D01*
X157353100Y-100704972D01*
X157367624Y-100657093D01*
X157372528Y-100607300D01*
X157372528Y-99732300D01*
X157367624Y-99682507D01*
X157353100Y-99634628D01*
X157329514Y-99590503D01*
X157297773Y-99551827D01*
X157259097Y-99520086D01*
X157214972Y-99496500D01*
X157167093Y-99481976D01*
X157165800Y-99481849D01*
X157165800Y-99382751D01*
X157167093Y-99382624D01*
X157214972Y-99368100D01*
X157259097Y-99344514D01*
X157297773Y-99312773D01*
X157329514Y-99274097D01*
X157353100Y-99229972D01*
X157367624Y-99182093D01*
X157372528Y-99132300D01*
X157372528Y-98257300D01*
X157367624Y-98207507D01*
X157353100Y-98159628D01*
X157329514Y-98115503D01*
X157297773Y-98076827D01*
X157259097Y-98045086D01*
X157214972Y-98021500D01*
X157167093Y-98006976D01*
X157165800Y-98006849D01*
X157165800Y-97807751D01*
X157167093Y-97807624D01*
X157214972Y-97793100D01*
X157259097Y-97769514D01*
X157297773Y-97737773D01*
X157329514Y-97699097D01*
X157353100Y-97654972D01*
X157367624Y-97607093D01*
X157372528Y-97557300D01*
X157372528Y-96682300D01*
X157367624Y-96632507D01*
X157353100Y-96584628D01*
X157329514Y-96540503D01*
X157312547Y-96519829D01*
X157331260Y-96535091D01*
G36*
X152709001Y-104967816D02*
G01*
X152709000Y-107474200D01*
X149210228Y-107474200D01*
X149210228Y-107125000D01*
X149205324Y-107075207D01*
X149199908Y-107057351D01*
X149207566Y-107048248D01*
X149236512Y-106995646D01*
X149254640Y-106938407D01*
X149259800Y-106890900D01*
X149183600Y-106814700D01*
X148594700Y-106814700D01*
X148594700Y-106834700D01*
X148315300Y-106834700D01*
X148315300Y-106814700D01*
X148295300Y-106814700D01*
X148295300Y-106535300D01*
X148315300Y-106535300D01*
X148315300Y-106164700D01*
X148594700Y-106164700D01*
X148594700Y-106535300D01*
X149183600Y-106535300D01*
X149259800Y-106459100D01*
X149254640Y-106411593D01*
X149236512Y-106354354D01*
X149234116Y-106350000D01*
X149236512Y-106345646D01*
X149254640Y-106288407D01*
X149259800Y-106240900D01*
X149183600Y-106164700D01*
X148594700Y-106164700D01*
X148315300Y-106164700D01*
X148295300Y-106164700D01*
X148295300Y-105885300D01*
X148315300Y-105885300D01*
X148315300Y-105865300D01*
X148594700Y-105865300D01*
X148594700Y-105885300D01*
X149183600Y-105885300D01*
X149259800Y-105809100D01*
X149254640Y-105761593D01*
X149236512Y-105704354D01*
X149207566Y-105651752D01*
X149199908Y-105642649D01*
X149205324Y-105624793D01*
X149210228Y-105575000D01*
X149210228Y-105175000D01*
X149205324Y-105125207D01*
X149190800Y-105077328D01*
X149176192Y-105050000D01*
X149190800Y-105022672D01*
X149205324Y-104974793D01*
X149210228Y-104925000D01*
X149210228Y-104525000D01*
X149205324Y-104475207D01*
X149190800Y-104427328D01*
X149176192Y-104400000D01*
X149190800Y-104372672D01*
X149205324Y-104324793D01*
X149210228Y-104275000D01*
X149210228Y-103875000D01*
X149205324Y-103825207D01*
X149199498Y-103806000D01*
X151547186Y-103806000D01*
X152709001Y-104967816D01*
X152709001Y-104967816D01*
G37*
X152709001Y-104967816D02*
X152709000Y-107474200D01*
X149210228Y-107474200D01*
X149210228Y-107125000D01*
X149205324Y-107075207D01*
X149199908Y-107057351D01*
X149207566Y-107048248D01*
X149236512Y-106995646D01*
X149254640Y-106938407D01*
X149259800Y-106890900D01*
X149183600Y-106814700D01*
X148594700Y-106814700D01*
X148594700Y-106834700D01*
X148315300Y-106834700D01*
X148315300Y-106814700D01*
X148295300Y-106814700D01*
X148295300Y-106535300D01*
X148315300Y-106535300D01*
X148315300Y-106164700D01*
X148594700Y-106164700D01*
X148594700Y-106535300D01*
X149183600Y-106535300D01*
X149259800Y-106459100D01*
X149254640Y-106411593D01*
X149236512Y-106354354D01*
X149234116Y-106350000D01*
X149236512Y-106345646D01*
X149254640Y-106288407D01*
X149259800Y-106240900D01*
X149183600Y-106164700D01*
X148594700Y-106164700D01*
X148315300Y-106164700D01*
X148295300Y-106164700D01*
X148295300Y-105885300D01*
X148315300Y-105885300D01*
X148315300Y-105865300D01*
X148594700Y-105865300D01*
X148594700Y-105885300D01*
X149183600Y-105885300D01*
X149259800Y-105809100D01*
X149254640Y-105761593D01*
X149236512Y-105704354D01*
X149207566Y-105651752D01*
X149199908Y-105642649D01*
X149205324Y-105624793D01*
X149210228Y-105575000D01*
X149210228Y-105175000D01*
X149205324Y-105125207D01*
X149190800Y-105077328D01*
X149176192Y-105050000D01*
X149190800Y-105022672D01*
X149205324Y-104974793D01*
X149210228Y-104925000D01*
X149210228Y-104525000D01*
X149205324Y-104475207D01*
X149190800Y-104427328D01*
X149176192Y-104400000D01*
X149190800Y-104372672D01*
X149205324Y-104324793D01*
X149210228Y-104275000D01*
X149210228Y-103875000D01*
X149205324Y-103825207D01*
X149199498Y-103806000D01*
X151547186Y-103806000D01*
X152709001Y-104967816D01*
G36*
X146364027Y-94627159D02*
G01*
X146349490Y-94639089D01*
X146333797Y-94658211D01*
X146301878Y-94697104D01*
X146266499Y-94763293D01*
X146244714Y-94835112D01*
X146237357Y-94909800D01*
X146239201Y-94928520D01*
X146239201Y-95092072D01*
X146182700Y-95092072D01*
X146132907Y-95096976D01*
X146085028Y-95111500D01*
X146040903Y-95135086D01*
X146002227Y-95166827D01*
X145970486Y-95205503D01*
X145946900Y-95249628D01*
X145932376Y-95297507D01*
X145927472Y-95347300D01*
X145927472Y-96297300D01*
X145932376Y-96347093D01*
X145946900Y-96394972D01*
X145970486Y-96439097D01*
X146002227Y-96477773D01*
X146040903Y-96509514D01*
X146085028Y-96533100D01*
X146132907Y-96547624D01*
X146182700Y-96552528D01*
X147057700Y-96552528D01*
X147107493Y-96547624D01*
X147155372Y-96533100D01*
X147199497Y-96509514D01*
X147238173Y-96477773D01*
X147269914Y-96439097D01*
X147293500Y-96394972D01*
X147308024Y-96347093D01*
X147312928Y-96297300D01*
X147351425Y-96297300D01*
X147357310Y-96357051D01*
X147374739Y-96414506D01*
X147403042Y-96467457D01*
X147441131Y-96513869D01*
X147487543Y-96551958D01*
X147540494Y-96580261D01*
X147597949Y-96597690D01*
X147657700Y-96603575D01*
X147879300Y-96602100D01*
X147955500Y-96525900D01*
X147955500Y-95962000D01*
X148234900Y-95962000D01*
X148234900Y-96525900D01*
X148311100Y-96602100D01*
X148532700Y-96603575D01*
X148592451Y-96597690D01*
X148649906Y-96580261D01*
X148702857Y-96551958D01*
X148749269Y-96513869D01*
X148787358Y-96467457D01*
X148815661Y-96414506D01*
X148833090Y-96357051D01*
X148838975Y-96297300D01*
X148837500Y-96038200D01*
X148761300Y-95962000D01*
X148234900Y-95962000D01*
X147955500Y-95962000D01*
X147429100Y-95962000D01*
X147352900Y-96038200D01*
X147351425Y-96297300D01*
X147312928Y-96297300D01*
X147312928Y-95347300D01*
X147351425Y-95347300D01*
X147352900Y-95606400D01*
X147429100Y-95682600D01*
X147955500Y-95682600D01*
X147955500Y-95118700D01*
X148234900Y-95118700D01*
X148234900Y-95682600D01*
X148761300Y-95682600D01*
X148837500Y-95606400D01*
X148838975Y-95347300D01*
X148833090Y-95287549D01*
X148815661Y-95230094D01*
X148787358Y-95177143D01*
X148749269Y-95130731D01*
X148702857Y-95092642D01*
X148649906Y-95064339D01*
X148592451Y-95046910D01*
X148532700Y-95041025D01*
X148311100Y-95042500D01*
X148234900Y-95118700D01*
X147955500Y-95118700D01*
X147879300Y-95042500D01*
X147657700Y-95041025D01*
X147597949Y-95046910D01*
X147540494Y-95064339D01*
X147487543Y-95092642D01*
X147441131Y-95130731D01*
X147403042Y-95177143D01*
X147374739Y-95230094D01*
X147357310Y-95287549D01*
X147351425Y-95347300D01*
X147312928Y-95347300D01*
X147308024Y-95297507D01*
X147293500Y-95249628D01*
X147269914Y-95205503D01*
X147238173Y-95166827D01*
X147199497Y-95135086D01*
X147155372Y-95111500D01*
X147107493Y-95096976D01*
X147057700Y-95092072D01*
X147001200Y-95092072D01*
X147001200Y-95067614D01*
X147137815Y-94931000D01*
X151382186Y-94931000D01*
X151492809Y-95041623D01*
X151361100Y-95042500D01*
X151284900Y-95118700D01*
X151284900Y-95682600D01*
X151304900Y-95682600D01*
X151304900Y-95962000D01*
X151284900Y-95962000D01*
X151284900Y-95982000D01*
X151005500Y-95982000D01*
X151005500Y-95962000D01*
X150479100Y-95962000D01*
X150431900Y-96009200D01*
X150362928Y-96009200D01*
X150362928Y-95347300D01*
X150401425Y-95347300D01*
X150402900Y-95606400D01*
X150479100Y-95682600D01*
X151005500Y-95682600D01*
X151005500Y-95118700D01*
X150929300Y-95042500D01*
X150707700Y-95041025D01*
X150647949Y-95046910D01*
X150590494Y-95064339D01*
X150537543Y-95092642D01*
X150491131Y-95130731D01*
X150453042Y-95177143D01*
X150424739Y-95230094D01*
X150407310Y-95287549D01*
X150401425Y-95347300D01*
X150362928Y-95347300D01*
X150358024Y-95297507D01*
X150343500Y-95249628D01*
X150319914Y-95205503D01*
X150288173Y-95166827D01*
X150249497Y-95135086D01*
X150205372Y-95111500D01*
X150157493Y-95096976D01*
X150107700Y-95092072D01*
X149232700Y-95092072D01*
X149182907Y-95096976D01*
X149135028Y-95111500D01*
X149090903Y-95135086D01*
X149052227Y-95166827D01*
X149020486Y-95205503D01*
X148996900Y-95249628D01*
X148982376Y-95297507D01*
X148977472Y-95347300D01*
X148977472Y-96297300D01*
X148982376Y-96347093D01*
X148996900Y-96394972D01*
X149020486Y-96439097D01*
X149029200Y-96449715D01*
X149029200Y-96708998D01*
X148942305Y-96674641D01*
X148764700Y-96714874D01*
X148764700Y-97572543D01*
X148588986Y-97749172D01*
X148582761Y-97756777D01*
X148578067Y-97765560D01*
X148575176Y-97775089D01*
X148574200Y-97785000D01*
X148574200Y-97944700D01*
X148485300Y-97944700D01*
X148485300Y-97924700D01*
X147555485Y-97924700D01*
X147514648Y-98102304D01*
X147525486Y-98138053D01*
X147615490Y-98345774D01*
X147744289Y-98531945D01*
X147896180Y-98679000D01*
X145772815Y-98679000D01*
X145196000Y-98102186D01*
X145196000Y-97710738D01*
X145331000Y-97710738D01*
X145331000Y-97859262D01*
X145359976Y-98004934D01*
X145416814Y-98142153D01*
X145499330Y-98265647D01*
X145604353Y-98370670D01*
X145727847Y-98453186D01*
X145865066Y-98510024D01*
X146010738Y-98539000D01*
X146159262Y-98539000D01*
X146304934Y-98510024D01*
X146442153Y-98453186D01*
X146565647Y-98370670D01*
X146670670Y-98265647D01*
X146753186Y-98142153D01*
X146810024Y-98004934D01*
X146839000Y-97859262D01*
X146839000Y-97710738D01*
X146810024Y-97565066D01*
X146769693Y-97467696D01*
X147514648Y-97467696D01*
X147555485Y-97645300D01*
X148485300Y-97645300D01*
X148485300Y-96714874D01*
X148307695Y-96674641D01*
X148097172Y-96757879D01*
X147906933Y-96880589D01*
X147744289Y-97038055D01*
X147615490Y-97224226D01*
X147525486Y-97431947D01*
X147514648Y-97467696D01*
X146769693Y-97467696D01*
X146753186Y-97427847D01*
X146670670Y-97304353D01*
X146565647Y-97199330D01*
X146442153Y-97116814D01*
X146304934Y-97059976D01*
X146159262Y-97031000D01*
X146010738Y-97031000D01*
X145865066Y-97059976D01*
X145727847Y-97116814D01*
X145604353Y-97199330D01*
X145499330Y-97304353D01*
X145416814Y-97427847D01*
X145359976Y-97565066D01*
X145331000Y-97710738D01*
X145196000Y-97710738D01*
X145196000Y-97123309D01*
X145197843Y-97104599D01*
X145196000Y-97085887D01*
X145190487Y-97029911D01*
X145168701Y-96958092D01*
X145161211Y-96944080D01*
X145133322Y-96891903D01*
X145097639Y-96848424D01*
X145085711Y-96833889D01*
X145071175Y-96821960D01*
X144840307Y-96591093D01*
X144905500Y-96525900D01*
X144905500Y-95962000D01*
X145184900Y-95962000D01*
X145184900Y-96525900D01*
X145261100Y-96602100D01*
X145482700Y-96603575D01*
X145542451Y-96597690D01*
X145599906Y-96580261D01*
X145652857Y-96551958D01*
X145699269Y-96513869D01*
X145737358Y-96467457D01*
X145765661Y-96414506D01*
X145783090Y-96357051D01*
X145788975Y-96297300D01*
X145787500Y-96038200D01*
X145711300Y-95962000D01*
X145184900Y-95962000D01*
X144905500Y-95962000D01*
X144379100Y-95962000D01*
X144302900Y-96038200D01*
X144302812Y-96053598D01*
X144262928Y-96013714D01*
X144262928Y-95347300D01*
X144301425Y-95347300D01*
X144302900Y-95606400D01*
X144379100Y-95682600D01*
X144905500Y-95682600D01*
X144905500Y-95118700D01*
X145184900Y-95118700D01*
X145184900Y-95682600D01*
X145711300Y-95682600D01*
X145787500Y-95606400D01*
X145788975Y-95347300D01*
X145783090Y-95287549D01*
X145765661Y-95230094D01*
X145737358Y-95177143D01*
X145699269Y-95130731D01*
X145652857Y-95092642D01*
X145599906Y-95064339D01*
X145542451Y-95046910D01*
X145482700Y-95041025D01*
X145261100Y-95042500D01*
X145184900Y-95118700D01*
X144905500Y-95118700D01*
X144829300Y-95042500D01*
X144607700Y-95041025D01*
X144547949Y-95046910D01*
X144490494Y-95064339D01*
X144437543Y-95092642D01*
X144391131Y-95130731D01*
X144353042Y-95177143D01*
X144324739Y-95230094D01*
X144307310Y-95287549D01*
X144301425Y-95347300D01*
X144262928Y-95347300D01*
X144258024Y-95297507D01*
X144243500Y-95249628D01*
X144219914Y-95205503D01*
X144188173Y-95166827D01*
X144149497Y-95135086D01*
X144105372Y-95111500D01*
X144057493Y-95096976D01*
X144007700Y-95092072D01*
X143132700Y-95092072D01*
X143082907Y-95096976D01*
X143035028Y-95111500D01*
X142990903Y-95135086D01*
X142952227Y-95166827D01*
X142920486Y-95205503D01*
X142896900Y-95249628D01*
X142882376Y-95297507D01*
X142877472Y-95347300D01*
X142877472Y-96297300D01*
X142882376Y-96347093D01*
X142896900Y-96394972D01*
X142920486Y-96439097D01*
X142952227Y-96477773D01*
X142990903Y-96509514D01*
X143035028Y-96533100D01*
X143082907Y-96547624D01*
X143132700Y-96552528D01*
X143724114Y-96552528D01*
X143915213Y-96743627D01*
X143761422Y-96696975D01*
X143599227Y-96681000D01*
X143490773Y-96681000D01*
X143328578Y-96696975D01*
X143120474Y-96760103D01*
X142928683Y-96862617D01*
X142760577Y-97000577D01*
X142622617Y-97168683D01*
X142537568Y-97327800D01*
X142489552Y-97327800D01*
X142467100Y-97325589D01*
X142444648Y-97327800D01*
X142444640Y-97327800D01*
X142377473Y-97334415D01*
X142291290Y-97360559D01*
X142211864Y-97403013D01*
X142159692Y-97445829D01*
X142159686Y-97445835D01*
X142142247Y-97460147D01*
X142127934Y-97477587D01*
X142043449Y-97562072D01*
X141728784Y-97562072D01*
X141673186Y-97427847D01*
X141590670Y-97304353D01*
X141485647Y-97199330D01*
X141362153Y-97116814D01*
X141224934Y-97059976D01*
X141079262Y-97031000D01*
X140930738Y-97031000D01*
X140785066Y-97059976D01*
X140647847Y-97116814D01*
X140524353Y-97199330D01*
X140419330Y-97304353D01*
X140336814Y-97427847D01*
X140279976Y-97565066D01*
X140251000Y-97710738D01*
X140251000Y-97859262D01*
X140279976Y-98004934D01*
X140336814Y-98142153D01*
X140419330Y-98265647D01*
X140524353Y-98370670D01*
X140647847Y-98453186D01*
X140785066Y-98510024D01*
X140930738Y-98539000D01*
X141079262Y-98539000D01*
X141224934Y-98510024D01*
X141267072Y-98492570D01*
X141267072Y-98692300D01*
X141271976Y-98742093D01*
X141286500Y-98789972D01*
X141310086Y-98834097D01*
X141341827Y-98872773D01*
X141380503Y-98904514D01*
X141424628Y-98928100D01*
X141469200Y-98941621D01*
X141469200Y-99142979D01*
X141424628Y-99156500D01*
X141380503Y-99180086D01*
X141341827Y-99211827D01*
X141310086Y-99250503D01*
X141286500Y-99294628D01*
X141271976Y-99342507D01*
X141267072Y-99392300D01*
X141267072Y-99617430D01*
X141224934Y-99599976D01*
X141079262Y-99571000D01*
X140930738Y-99571000D01*
X140785066Y-99599976D01*
X140647847Y-99656814D01*
X140524353Y-99739330D01*
X140419330Y-99844353D01*
X140336814Y-99967847D01*
X140279976Y-100105066D01*
X140251000Y-100250738D01*
X140251000Y-100399262D01*
X140279976Y-100544934D01*
X140336814Y-100682153D01*
X140419330Y-100805647D01*
X140524353Y-100910670D01*
X140647847Y-100993186D01*
X140785066Y-101050024D01*
X140930738Y-101079000D01*
X141079262Y-101079000D01*
X141224934Y-101050024D01*
X141362153Y-100993186D01*
X141485647Y-100910670D01*
X141540101Y-100856216D01*
X141540101Y-100908341D01*
X141537889Y-100930800D01*
X141540101Y-100953260D01*
X141546716Y-101020427D01*
X141564485Y-101079000D01*
X141572860Y-101106609D01*
X141613442Y-101182533D01*
X141615314Y-101186036D01*
X141672448Y-101255653D01*
X141689893Y-101269970D01*
X142064933Y-101645010D01*
X141845900Y-101646200D01*
X141769700Y-101722400D01*
X141769700Y-102511300D01*
X141789700Y-102511300D01*
X141789700Y-102790700D01*
X141769700Y-102790700D01*
X141769700Y-102810700D01*
X141490300Y-102810700D01*
X141490300Y-102790700D01*
X140913900Y-102790700D01*
X140837700Y-102866900D01*
X140836225Y-103351000D01*
X140842110Y-103410751D01*
X140854320Y-103451000D01*
X140202668Y-103451000D01*
X140046314Y-103435669D01*
X139908098Y-103393939D01*
X139780625Y-103326160D01*
X139668737Y-103234907D01*
X139576711Y-103123666D01*
X139508045Y-102996669D01*
X139465352Y-102858750D01*
X139449000Y-102703179D01*
X139449000Y-101951000D01*
X140836225Y-101951000D01*
X140837700Y-102435100D01*
X140913900Y-102511300D01*
X141490300Y-102511300D01*
X141490300Y-101722400D01*
X141414100Y-101646200D01*
X141142500Y-101644725D01*
X141082749Y-101650610D01*
X141025294Y-101668039D01*
X140972343Y-101696342D01*
X140925931Y-101734431D01*
X140887842Y-101780843D01*
X140859539Y-101833794D01*
X140842110Y-101891249D01*
X140836225Y-101951000D01*
X139449000Y-101951000D01*
X139449000Y-97072668D01*
X139464331Y-96916314D01*
X139506060Y-96778102D01*
X139573840Y-96650624D01*
X139665091Y-96538740D01*
X139776335Y-96446711D01*
X139903331Y-96378045D01*
X140041250Y-96335352D01*
X140197040Y-96318977D01*
X140197871Y-96318974D01*
X140209132Y-96317831D01*
X140220456Y-96317910D01*
X140224055Y-96317557D01*
X140416780Y-96297300D01*
X141251425Y-96297300D01*
X141257310Y-96357051D01*
X141274739Y-96414506D01*
X141303042Y-96467457D01*
X141341131Y-96513869D01*
X141387543Y-96551958D01*
X141440494Y-96580261D01*
X141497949Y-96597690D01*
X141557700Y-96603575D01*
X141779300Y-96602100D01*
X141855500Y-96525900D01*
X141855500Y-95962000D01*
X142134900Y-95962000D01*
X142134900Y-96525900D01*
X142211100Y-96602100D01*
X142432700Y-96603575D01*
X142492451Y-96597690D01*
X142549906Y-96580261D01*
X142602857Y-96551958D01*
X142649269Y-96513869D01*
X142687358Y-96467457D01*
X142715661Y-96414506D01*
X142733090Y-96357051D01*
X142738975Y-96297300D01*
X142737500Y-96038200D01*
X142661300Y-95962000D01*
X142134900Y-95962000D01*
X141855500Y-95962000D01*
X141329100Y-95962000D01*
X141252900Y-96038200D01*
X141251425Y-96297300D01*
X140416780Y-96297300D01*
X140418151Y-96297156D01*
X140441088Y-96292447D01*
X140464204Y-96288038D01*
X140467666Y-96286992D01*
X140654104Y-96229280D01*
X140675741Y-96220185D01*
X140697510Y-96211390D01*
X140700698Y-96209694D01*
X140700703Y-96209692D01*
X140700707Y-96209689D01*
X140872379Y-96116867D01*
X140891834Y-96103745D01*
X140911484Y-96090886D01*
X140914286Y-96088601D01*
X141064664Y-95964197D01*
X141081212Y-95947533D01*
X141097977Y-95931116D01*
X141100282Y-95928330D01*
X141223632Y-95777088D01*
X141236611Y-95757553D01*
X141249885Y-95738166D01*
X141251605Y-95734985D01*
X141296691Y-95650191D01*
X141329100Y-95682600D01*
X141855500Y-95682600D01*
X141855500Y-95118700D01*
X142134900Y-95118700D01*
X142134900Y-95682600D01*
X142661300Y-95682600D01*
X142737500Y-95606400D01*
X142738975Y-95347300D01*
X142733090Y-95287549D01*
X142715661Y-95230094D01*
X142687358Y-95177143D01*
X142649269Y-95130731D01*
X142602857Y-95092642D01*
X142549906Y-95064339D01*
X142492451Y-95046910D01*
X142432700Y-95041025D01*
X142211100Y-95042500D01*
X142134900Y-95118700D01*
X141855500Y-95118700D01*
X141779300Y-95042500D01*
X141557700Y-95041025D01*
X141497949Y-95046910D01*
X141450103Y-95061424D01*
X141464331Y-94916314D01*
X141506060Y-94778102D01*
X141573840Y-94650624D01*
X141665091Y-94538740D01*
X141776335Y-94446711D01*
X141903331Y-94378045D01*
X142041250Y-94335352D01*
X142196820Y-94319000D01*
X146672185Y-94319000D01*
X146364027Y-94627159D01*
X146364027Y-94627159D01*
G37*
X146364027Y-94627159D02*
X146349490Y-94639089D01*
X146333797Y-94658211D01*
X146301878Y-94697104D01*
X146266499Y-94763293D01*
X146244714Y-94835112D01*
X146237357Y-94909800D01*
X146239201Y-94928520D01*
X146239201Y-95092072D01*
X146182700Y-95092072D01*
X146132907Y-95096976D01*
X146085028Y-95111500D01*
X146040903Y-95135086D01*
X146002227Y-95166827D01*
X145970486Y-95205503D01*
X145946900Y-95249628D01*
X145932376Y-95297507D01*
X145927472Y-95347300D01*
X145927472Y-96297300D01*
X145932376Y-96347093D01*
X145946900Y-96394972D01*
X145970486Y-96439097D01*
X146002227Y-96477773D01*
X146040903Y-96509514D01*
X146085028Y-96533100D01*
X146132907Y-96547624D01*
X146182700Y-96552528D01*
X147057700Y-96552528D01*
X147107493Y-96547624D01*
X147155372Y-96533100D01*
X147199497Y-96509514D01*
X147238173Y-96477773D01*
X147269914Y-96439097D01*
X147293500Y-96394972D01*
X147308024Y-96347093D01*
X147312928Y-96297300D01*
X147351425Y-96297300D01*
X147357310Y-96357051D01*
X147374739Y-96414506D01*
X147403042Y-96467457D01*
X147441131Y-96513869D01*
X147487543Y-96551958D01*
X147540494Y-96580261D01*
X147597949Y-96597690D01*
X147657700Y-96603575D01*
X147879300Y-96602100D01*
X147955500Y-96525900D01*
X147955500Y-95962000D01*
X148234900Y-95962000D01*
X148234900Y-96525900D01*
X148311100Y-96602100D01*
X148532700Y-96603575D01*
X148592451Y-96597690D01*
X148649906Y-96580261D01*
X148702857Y-96551958D01*
X148749269Y-96513869D01*
X148787358Y-96467457D01*
X148815661Y-96414506D01*
X148833090Y-96357051D01*
X148838975Y-96297300D01*
X148837500Y-96038200D01*
X148761300Y-95962000D01*
X148234900Y-95962000D01*
X147955500Y-95962000D01*
X147429100Y-95962000D01*
X147352900Y-96038200D01*
X147351425Y-96297300D01*
X147312928Y-96297300D01*
X147312928Y-95347300D01*
X147351425Y-95347300D01*
X147352900Y-95606400D01*
X147429100Y-95682600D01*
X147955500Y-95682600D01*
X147955500Y-95118700D01*
X148234900Y-95118700D01*
X148234900Y-95682600D01*
X148761300Y-95682600D01*
X148837500Y-95606400D01*
X148838975Y-95347300D01*
X148833090Y-95287549D01*
X148815661Y-95230094D01*
X148787358Y-95177143D01*
X148749269Y-95130731D01*
X148702857Y-95092642D01*
X148649906Y-95064339D01*
X148592451Y-95046910D01*
X148532700Y-95041025D01*
X148311100Y-95042500D01*
X148234900Y-95118700D01*
X147955500Y-95118700D01*
X147879300Y-95042500D01*
X147657700Y-95041025D01*
X147597949Y-95046910D01*
X147540494Y-95064339D01*
X147487543Y-95092642D01*
X147441131Y-95130731D01*
X147403042Y-95177143D01*
X147374739Y-95230094D01*
X147357310Y-95287549D01*
X147351425Y-95347300D01*
X147312928Y-95347300D01*
X147308024Y-95297507D01*
X147293500Y-95249628D01*
X147269914Y-95205503D01*
X147238173Y-95166827D01*
X147199497Y-95135086D01*
X147155372Y-95111500D01*
X147107493Y-95096976D01*
X147057700Y-95092072D01*
X147001200Y-95092072D01*
X147001200Y-95067614D01*
X147137815Y-94931000D01*
X151382186Y-94931000D01*
X151492809Y-95041623D01*
X151361100Y-95042500D01*
X151284900Y-95118700D01*
X151284900Y-95682600D01*
X151304900Y-95682600D01*
X151304900Y-95962000D01*
X151284900Y-95962000D01*
X151284900Y-95982000D01*
X151005500Y-95982000D01*
X151005500Y-95962000D01*
X150479100Y-95962000D01*
X150431900Y-96009200D01*
X150362928Y-96009200D01*
X150362928Y-95347300D01*
X150401425Y-95347300D01*
X150402900Y-95606400D01*
X150479100Y-95682600D01*
X151005500Y-95682600D01*
X151005500Y-95118700D01*
X150929300Y-95042500D01*
X150707700Y-95041025D01*
X150647949Y-95046910D01*
X150590494Y-95064339D01*
X150537543Y-95092642D01*
X150491131Y-95130731D01*
X150453042Y-95177143D01*
X150424739Y-95230094D01*
X150407310Y-95287549D01*
X150401425Y-95347300D01*
X150362928Y-95347300D01*
X150358024Y-95297507D01*
X150343500Y-95249628D01*
X150319914Y-95205503D01*
X150288173Y-95166827D01*
X150249497Y-95135086D01*
X150205372Y-95111500D01*
X150157493Y-95096976D01*
X150107700Y-95092072D01*
X149232700Y-95092072D01*
X149182907Y-95096976D01*
X149135028Y-95111500D01*
X149090903Y-95135086D01*
X149052227Y-95166827D01*
X149020486Y-95205503D01*
X148996900Y-95249628D01*
X148982376Y-95297507D01*
X148977472Y-95347300D01*
X148977472Y-96297300D01*
X148982376Y-96347093D01*
X148996900Y-96394972D01*
X149020486Y-96439097D01*
X149029200Y-96449715D01*
X149029200Y-96708998D01*
X148942305Y-96674641D01*
X148764700Y-96714874D01*
X148764700Y-97572543D01*
X148588986Y-97749172D01*
X148582761Y-97756777D01*
X148578067Y-97765560D01*
X148575176Y-97775089D01*
X148574200Y-97785000D01*
X148574200Y-97944700D01*
X148485300Y-97944700D01*
X148485300Y-97924700D01*
X147555485Y-97924700D01*
X147514648Y-98102304D01*
X147525486Y-98138053D01*
X147615490Y-98345774D01*
X147744289Y-98531945D01*
X147896180Y-98679000D01*
X145772815Y-98679000D01*
X145196000Y-98102186D01*
X145196000Y-97710738D01*
X145331000Y-97710738D01*
X145331000Y-97859262D01*
X145359976Y-98004934D01*
X145416814Y-98142153D01*
X145499330Y-98265647D01*
X145604353Y-98370670D01*
X145727847Y-98453186D01*
X145865066Y-98510024D01*
X146010738Y-98539000D01*
X146159262Y-98539000D01*
X146304934Y-98510024D01*
X146442153Y-98453186D01*
X146565647Y-98370670D01*
X146670670Y-98265647D01*
X146753186Y-98142153D01*
X146810024Y-98004934D01*
X146839000Y-97859262D01*
X146839000Y-97710738D01*
X146810024Y-97565066D01*
X146769693Y-97467696D01*
X147514648Y-97467696D01*
X147555485Y-97645300D01*
X148485300Y-97645300D01*
X148485300Y-96714874D01*
X148307695Y-96674641D01*
X148097172Y-96757879D01*
X147906933Y-96880589D01*
X147744289Y-97038055D01*
X147615490Y-97224226D01*
X147525486Y-97431947D01*
X147514648Y-97467696D01*
X146769693Y-97467696D01*
X146753186Y-97427847D01*
X146670670Y-97304353D01*
X146565647Y-97199330D01*
X146442153Y-97116814D01*
X146304934Y-97059976D01*
X146159262Y-97031000D01*
X146010738Y-97031000D01*
X145865066Y-97059976D01*
X145727847Y-97116814D01*
X145604353Y-97199330D01*
X145499330Y-97304353D01*
X145416814Y-97427847D01*
X145359976Y-97565066D01*
X145331000Y-97710738D01*
X145196000Y-97710738D01*
X145196000Y-97123309D01*
X145197843Y-97104599D01*
X145196000Y-97085887D01*
X145190487Y-97029911D01*
X145168701Y-96958092D01*
X145161211Y-96944080D01*
X145133322Y-96891903D01*
X145097639Y-96848424D01*
X145085711Y-96833889D01*
X145071175Y-96821960D01*
X144840307Y-96591093D01*
X144905500Y-96525900D01*
X144905500Y-95962000D01*
X145184900Y-95962000D01*
X145184900Y-96525900D01*
X145261100Y-96602100D01*
X145482700Y-96603575D01*
X145542451Y-96597690D01*
X145599906Y-96580261D01*
X145652857Y-96551958D01*
X145699269Y-96513869D01*
X145737358Y-96467457D01*
X145765661Y-96414506D01*
X145783090Y-96357051D01*
X145788975Y-96297300D01*
X145787500Y-96038200D01*
X145711300Y-95962000D01*
X145184900Y-95962000D01*
X144905500Y-95962000D01*
X144379100Y-95962000D01*
X144302900Y-96038200D01*
X144302812Y-96053598D01*
X144262928Y-96013714D01*
X144262928Y-95347300D01*
X144301425Y-95347300D01*
X144302900Y-95606400D01*
X144379100Y-95682600D01*
X144905500Y-95682600D01*
X144905500Y-95118700D01*
X145184900Y-95118700D01*
X145184900Y-95682600D01*
X145711300Y-95682600D01*
X145787500Y-95606400D01*
X145788975Y-95347300D01*
X145783090Y-95287549D01*
X145765661Y-95230094D01*
X145737358Y-95177143D01*
X145699269Y-95130731D01*
X145652857Y-95092642D01*
X145599906Y-95064339D01*
X145542451Y-95046910D01*
X145482700Y-95041025D01*
X145261100Y-95042500D01*
X145184900Y-95118700D01*
X144905500Y-95118700D01*
X144829300Y-95042500D01*
X144607700Y-95041025D01*
X144547949Y-95046910D01*
X144490494Y-95064339D01*
X144437543Y-95092642D01*
X144391131Y-95130731D01*
X144353042Y-95177143D01*
X144324739Y-95230094D01*
X144307310Y-95287549D01*
X144301425Y-95347300D01*
X144262928Y-95347300D01*
X144258024Y-95297507D01*
X144243500Y-95249628D01*
X144219914Y-95205503D01*
X144188173Y-95166827D01*
X144149497Y-95135086D01*
X144105372Y-95111500D01*
X144057493Y-95096976D01*
X144007700Y-95092072D01*
X143132700Y-95092072D01*
X143082907Y-95096976D01*
X143035028Y-95111500D01*
X142990903Y-95135086D01*
X142952227Y-95166827D01*
X142920486Y-95205503D01*
X142896900Y-95249628D01*
X142882376Y-95297507D01*
X142877472Y-95347300D01*
X142877472Y-96297300D01*
X142882376Y-96347093D01*
X142896900Y-96394972D01*
X142920486Y-96439097D01*
X142952227Y-96477773D01*
X142990903Y-96509514D01*
X143035028Y-96533100D01*
X143082907Y-96547624D01*
X143132700Y-96552528D01*
X143724114Y-96552528D01*
X143915213Y-96743627D01*
X143761422Y-96696975D01*
X143599227Y-96681000D01*
X143490773Y-96681000D01*
X143328578Y-96696975D01*
X143120474Y-96760103D01*
X142928683Y-96862617D01*
X142760577Y-97000577D01*
X142622617Y-97168683D01*
X142537568Y-97327800D01*
X142489552Y-97327800D01*
X142467100Y-97325589D01*
X142444648Y-97327800D01*
X142444640Y-97327800D01*
X142377473Y-97334415D01*
X142291290Y-97360559D01*
X142211864Y-97403013D01*
X142159692Y-97445829D01*
X142159686Y-97445835D01*
X142142247Y-97460147D01*
X142127934Y-97477587D01*
X142043449Y-97562072D01*
X141728784Y-97562072D01*
X141673186Y-97427847D01*
X141590670Y-97304353D01*
X141485647Y-97199330D01*
X141362153Y-97116814D01*
X141224934Y-97059976D01*
X141079262Y-97031000D01*
X140930738Y-97031000D01*
X140785066Y-97059976D01*
X140647847Y-97116814D01*
X140524353Y-97199330D01*
X140419330Y-97304353D01*
X140336814Y-97427847D01*
X140279976Y-97565066D01*
X140251000Y-97710738D01*
X140251000Y-97859262D01*
X140279976Y-98004934D01*
X140336814Y-98142153D01*
X140419330Y-98265647D01*
X140524353Y-98370670D01*
X140647847Y-98453186D01*
X140785066Y-98510024D01*
X140930738Y-98539000D01*
X141079262Y-98539000D01*
X141224934Y-98510024D01*
X141267072Y-98492570D01*
X141267072Y-98692300D01*
X141271976Y-98742093D01*
X141286500Y-98789972D01*
X141310086Y-98834097D01*
X141341827Y-98872773D01*
X141380503Y-98904514D01*
X141424628Y-98928100D01*
X141469200Y-98941621D01*
X141469200Y-99142979D01*
X141424628Y-99156500D01*
X141380503Y-99180086D01*
X141341827Y-99211827D01*
X141310086Y-99250503D01*
X141286500Y-99294628D01*
X141271976Y-99342507D01*
X141267072Y-99392300D01*
X141267072Y-99617430D01*
X141224934Y-99599976D01*
X141079262Y-99571000D01*
X140930738Y-99571000D01*
X140785066Y-99599976D01*
X140647847Y-99656814D01*
X140524353Y-99739330D01*
X140419330Y-99844353D01*
X140336814Y-99967847D01*
X140279976Y-100105066D01*
X140251000Y-100250738D01*
X140251000Y-100399262D01*
X140279976Y-100544934D01*
X140336814Y-100682153D01*
X140419330Y-100805647D01*
X140524353Y-100910670D01*
X140647847Y-100993186D01*
X140785066Y-101050024D01*
X140930738Y-101079000D01*
X141079262Y-101079000D01*
X141224934Y-101050024D01*
X141362153Y-100993186D01*
X141485647Y-100910670D01*
X141540101Y-100856216D01*
X141540101Y-100908341D01*
X141537889Y-100930800D01*
X141540101Y-100953260D01*
X141546716Y-101020427D01*
X141564485Y-101079000D01*
X141572860Y-101106609D01*
X141613442Y-101182533D01*
X141615314Y-101186036D01*
X141672448Y-101255653D01*
X141689893Y-101269970D01*
X142064933Y-101645010D01*
X141845900Y-101646200D01*
X141769700Y-101722400D01*
X141769700Y-102511300D01*
X141789700Y-102511300D01*
X141789700Y-102790700D01*
X141769700Y-102790700D01*
X141769700Y-102810700D01*
X141490300Y-102810700D01*
X141490300Y-102790700D01*
X140913900Y-102790700D01*
X140837700Y-102866900D01*
X140836225Y-103351000D01*
X140842110Y-103410751D01*
X140854320Y-103451000D01*
X140202668Y-103451000D01*
X140046314Y-103435669D01*
X139908098Y-103393939D01*
X139780625Y-103326160D01*
X139668737Y-103234907D01*
X139576711Y-103123666D01*
X139508045Y-102996669D01*
X139465352Y-102858750D01*
X139449000Y-102703179D01*
X139449000Y-101951000D01*
X140836225Y-101951000D01*
X140837700Y-102435100D01*
X140913900Y-102511300D01*
X141490300Y-102511300D01*
X141490300Y-101722400D01*
X141414100Y-101646200D01*
X141142500Y-101644725D01*
X141082749Y-101650610D01*
X141025294Y-101668039D01*
X140972343Y-101696342D01*
X140925931Y-101734431D01*
X140887842Y-101780843D01*
X140859539Y-101833794D01*
X140842110Y-101891249D01*
X140836225Y-101951000D01*
X139449000Y-101951000D01*
X139449000Y-97072668D01*
X139464331Y-96916314D01*
X139506060Y-96778102D01*
X139573840Y-96650624D01*
X139665091Y-96538740D01*
X139776335Y-96446711D01*
X139903331Y-96378045D01*
X140041250Y-96335352D01*
X140197040Y-96318977D01*
X140197871Y-96318974D01*
X140209132Y-96317831D01*
X140220456Y-96317910D01*
X140224055Y-96317557D01*
X140416780Y-96297300D01*
X141251425Y-96297300D01*
X141257310Y-96357051D01*
X141274739Y-96414506D01*
X141303042Y-96467457D01*
X141341131Y-96513869D01*
X141387543Y-96551958D01*
X141440494Y-96580261D01*
X141497949Y-96597690D01*
X141557700Y-96603575D01*
X141779300Y-96602100D01*
X141855500Y-96525900D01*
X141855500Y-95962000D01*
X142134900Y-95962000D01*
X142134900Y-96525900D01*
X142211100Y-96602100D01*
X142432700Y-96603575D01*
X142492451Y-96597690D01*
X142549906Y-96580261D01*
X142602857Y-96551958D01*
X142649269Y-96513869D01*
X142687358Y-96467457D01*
X142715661Y-96414506D01*
X142733090Y-96357051D01*
X142738975Y-96297300D01*
X142737500Y-96038200D01*
X142661300Y-95962000D01*
X142134900Y-95962000D01*
X141855500Y-95962000D01*
X141329100Y-95962000D01*
X141252900Y-96038200D01*
X141251425Y-96297300D01*
X140416780Y-96297300D01*
X140418151Y-96297156D01*
X140441088Y-96292447D01*
X140464204Y-96288038D01*
X140467666Y-96286992D01*
X140654104Y-96229280D01*
X140675741Y-96220185D01*
X140697510Y-96211390D01*
X140700698Y-96209694D01*
X140700703Y-96209692D01*
X140700707Y-96209689D01*
X140872379Y-96116867D01*
X140891834Y-96103745D01*
X140911484Y-96090886D01*
X140914286Y-96088601D01*
X141064664Y-95964197D01*
X141081212Y-95947533D01*
X141097977Y-95931116D01*
X141100282Y-95928330D01*
X141223632Y-95777088D01*
X141236611Y-95757553D01*
X141249885Y-95738166D01*
X141251605Y-95734985D01*
X141296691Y-95650191D01*
X141329100Y-95682600D01*
X141855500Y-95682600D01*
X141855500Y-95118700D01*
X142134900Y-95118700D01*
X142134900Y-95682600D01*
X142661300Y-95682600D01*
X142737500Y-95606400D01*
X142738975Y-95347300D01*
X142733090Y-95287549D01*
X142715661Y-95230094D01*
X142687358Y-95177143D01*
X142649269Y-95130731D01*
X142602857Y-95092642D01*
X142549906Y-95064339D01*
X142492451Y-95046910D01*
X142432700Y-95041025D01*
X142211100Y-95042500D01*
X142134900Y-95118700D01*
X141855500Y-95118700D01*
X141779300Y-95042500D01*
X141557700Y-95041025D01*
X141497949Y-95046910D01*
X141450103Y-95061424D01*
X141464331Y-94916314D01*
X141506060Y-94778102D01*
X141573840Y-94650624D01*
X141665091Y-94538740D01*
X141776335Y-94446711D01*
X141903331Y-94378045D01*
X142041250Y-94335352D01*
X142196820Y-94319000D01*
X146672185Y-94319000D01*
X146364027Y-94627159D01*
M02*
