%TF.GenerationSoftware,KiCad,Pcbnew,(5.1.2-1)-1*%
%TF.CreationDate,2020-12-17T17:00:40+01:00*%
%TF.ProjectId,n64_rgb_amp,6e36345f-7267-4625-9f61-6d702e6b6963,1.1*%
%TF.SameCoordinates,Original*%
%TF.FileFunction,Profile,NP*%
%FSLAX46Y46*%
G04 Gerber Fmt 4.6, Leading zero omitted, Abs format (unit mm)*
G04 Created by KiCad (PCBNEW (5.1.2-1)-1) date 2020-12-17 17:00:40*
%MOMM*%
%LPD*%
G04 APERTURE LIST*
%ADD10C,0.010000*%
G04 APERTURE END LIST*
D10*
X148890000Y-115950000D02*
G75*
G02X147900000Y-114960000I0J990000D01*
G01*
X139190000Y-97060000D02*
G75*
G02X140190000Y-96060000I1000000J0D01*
G01*
X156810000Y-96060000D02*
G75*
G02X157810000Y-97060000I0J-1000000D01*
G01*
X143340000Y-103710000D02*
G75*
G02X144340000Y-104710000I0J-1000000D01*
G01*
X157810000Y-114450000D02*
X157810000Y-97060000D01*
X141190000Y-95060000D02*
G75*
G02X142190000Y-94060000I1000000J0D01*
G01*
X146900000Y-111720000D02*
G75*
G02X147900000Y-112720000I0J-1000000D01*
G01*
X145330000Y-111720000D02*
X146900000Y-111720000D01*
X144340000Y-110730000D02*
X144340000Y-104710000D01*
X141190000Y-95060000D02*
G75*
G02X140190000Y-96060000I-1000000J0D01*
G01*
X142190000Y-94060000D02*
X152460000Y-94060000D01*
X139190000Y-102710000D02*
X139190000Y-97060000D01*
X148890000Y-115950000D02*
X156310000Y-115950000D01*
X154460000Y-96060000D02*
G75*
G02X153460000Y-95060000I0J1000000D01*
G01*
X152460000Y-94060000D02*
G75*
G02X153460000Y-95060000I0J-1000000D01*
G01*
X154460000Y-96060000D02*
X156810000Y-96060000D01*
X156310000Y-115950000D02*
G75*
G03X157810000Y-114450000I0J1500000D01*
G01*
X140190000Y-103710000D02*
X143340000Y-103710000D01*
X140190000Y-103710000D02*
G75*
G02X139190000Y-102710000I0J1000000D01*
G01*
X145330000Y-111720000D02*
G75*
G02X144340000Y-110730000I0J990000D01*
G01*
X147900000Y-114960000D02*
X147900000Y-112720000D01*
M02*
