%TF.GenerationSoftware,KiCad,Pcbnew,(5.1.2-1)-1*%
%TF.CreationDate,2020-12-17T17:00:40+01:00*%
%TF.ProjectId,n64_rgb_amp,6e36345f-7267-4625-9f61-6d702e6b6963,1.1*%
%TF.SameCoordinates,Original*%
%TF.FileFunction,Soldermask,Bot*%
%TF.FilePolarity,Negative*%
%FSLAX46Y46*%
G04 Gerber Fmt 4.6, Leading zero omitted, Abs format (unit mm)*
G04 Created by KiCad (PCBNEW (5.1.2-1)-1) date 2020-12-17 17:00:40*
%MOMM*%
%LPD*%
G04 APERTURE LIST*
%ADD10C,0.100000*%
%ADD11C,0.152400*%
%ADD12C,0.150000*%
G04 APERTURE END LIST*
D10*
X153102619Y-114843095D02*
X153102619Y-114938333D01*
X153078809Y-114938333D02*
X153078809Y-114843095D01*
X153055000Y-114819285D02*
X153055000Y-114962142D01*
X153031190Y-114938333D02*
X153031190Y-114843095D01*
X153007380Y-114843095D02*
X153007380Y-114938333D01*
X153102619Y-114914523D02*
X153055000Y-114962142D01*
X153007380Y-114914523D01*
X153102619Y-114866904D02*
X153055000Y-114819285D01*
X153007380Y-114866904D01*
X153102619Y-114843095D02*
X153055000Y-114819285D01*
X153007380Y-114843095D01*
X152983571Y-114890714D01*
X153007380Y-114938333D01*
X153055000Y-114962142D01*
X153102619Y-114938333D01*
X153126428Y-114890714D01*
X153102619Y-114843095D01*
X151452619Y-114843095D02*
X151452619Y-114938333D01*
X151428809Y-114938333D02*
X151428809Y-114843095D01*
X151405000Y-114819285D02*
X151405000Y-114962142D01*
X151381190Y-114938333D02*
X151381190Y-114843095D01*
X151357380Y-114843095D02*
X151357380Y-114938333D01*
X151452619Y-114914523D02*
X151405000Y-114962142D01*
X151357380Y-114914523D01*
X151452619Y-114866904D02*
X151405000Y-114819285D01*
X151357380Y-114866904D01*
X151452619Y-114843095D02*
X151405000Y-114819285D01*
X151357380Y-114843095D01*
X151333571Y-114890714D01*
X151357380Y-114938333D01*
X151405000Y-114962142D01*
X151452619Y-114938333D01*
X151476428Y-114890714D01*
X151452619Y-114843095D01*
D11*
X154704047Y-114572261D02*
X154280714Y-115207261D01*
X154280714Y-114572261D02*
X154704047Y-115207261D01*
X154129523Y-114572261D02*
X153917857Y-115207261D01*
X153706190Y-114572261D01*
X153494523Y-115207261D02*
X153494523Y-114572261D01*
X152768809Y-114572261D02*
X152345476Y-115207261D01*
X152345476Y-114572261D02*
X152768809Y-115207261D01*
X152103571Y-115207261D02*
X152103571Y-114572261D01*
X151801190Y-115207261D02*
X151801190Y-114572261D01*
X151015000Y-115207261D02*
X151015000Y-114572261D01*
X150803333Y-115025833D01*
X150591666Y-114572261D01*
X150591666Y-115207261D01*
X150289285Y-115207261D02*
X150289285Y-114572261D01*
X150077619Y-115025833D01*
X149865952Y-114572261D01*
X149865952Y-115207261D01*
X149624047Y-114572261D02*
X149200714Y-115207261D01*
X149200714Y-114572261D02*
X149624047Y-115207261D01*
X149019285Y-114572261D02*
X148595952Y-115207261D01*
X148595952Y-114572261D02*
X149019285Y-115207261D01*
X150382142Y-113568928D02*
X150230952Y-113992261D01*
X150079761Y-113568928D01*
X149505238Y-113992261D02*
X149868095Y-113992261D01*
X149686666Y-113992261D02*
X149686666Y-113357261D01*
X149747142Y-113447976D01*
X149807619Y-113508452D01*
X149868095Y-113538690D01*
X149233095Y-113931785D02*
X149202857Y-113962023D01*
X149233095Y-113992261D01*
X149263333Y-113962023D01*
X149233095Y-113931785D01*
X149233095Y-113992261D01*
X148598095Y-113992261D02*
X148960952Y-113992261D01*
X148779523Y-113992261D02*
X148779523Y-113357261D01*
X148840000Y-113447976D01*
X148900476Y-113508452D01*
X148960952Y-113538690D01*
D12*
G36*
X153837229Y-99432854D02*
G01*
X153967757Y-99458817D01*
X154131690Y-99526721D01*
X154279222Y-99625299D01*
X154279224Y-99625301D01*
X154279227Y-99625303D01*
X154404697Y-99750773D01*
X154404699Y-99750776D01*
X154404701Y-99750778D01*
X154503279Y-99898310D01*
X154571183Y-100062243D01*
X154588323Y-100148416D01*
X154605800Y-100236279D01*
X154605800Y-100413721D01*
X154601970Y-100432976D01*
X154571183Y-100587757D01*
X154503279Y-100751690D01*
X154404701Y-100899222D01*
X154404699Y-100899224D01*
X154404697Y-100899227D01*
X154279227Y-101024697D01*
X154279224Y-101024699D01*
X154279222Y-101024701D01*
X154131690Y-101123279D01*
X153967757Y-101191183D01*
X153859248Y-101212766D01*
X153793721Y-101225800D01*
X153616279Y-101225800D01*
X153550752Y-101212766D01*
X153442243Y-101191183D01*
X153278310Y-101123279D01*
X153130778Y-101024701D01*
X153130776Y-101024699D01*
X153130773Y-101024697D01*
X153005303Y-100899227D01*
X153005301Y-100899224D01*
X153005299Y-100899222D01*
X152906721Y-100751690D01*
X152838817Y-100587757D01*
X152808030Y-100432976D01*
X152804200Y-100413721D01*
X152804200Y-100236279D01*
X152821677Y-100148416D01*
X152838817Y-100062243D01*
X152906721Y-99898310D01*
X153005299Y-99750778D01*
X153005301Y-99750776D01*
X153005303Y-99750773D01*
X153130773Y-99625303D01*
X153130776Y-99625301D01*
X153130778Y-99625299D01*
X153278310Y-99526721D01*
X153442243Y-99458817D01*
X153572771Y-99432854D01*
X153616279Y-99424200D01*
X153793721Y-99424200D01*
X153837229Y-99432854D01*
X153837229Y-99432854D01*
G37*
G36*
X151341588Y-99437234D02*
G01*
X151511389Y-99488743D01*
X151511391Y-99488744D01*
X151667881Y-99572390D01*
X151805044Y-99684956D01*
X151917610Y-99822119D01*
X151917611Y-99822121D01*
X152001257Y-99978611D01*
X152052766Y-100148412D01*
X152070158Y-100325000D01*
X152052766Y-100501588D01*
X152013058Y-100632486D01*
X152001256Y-100671391D01*
X151917610Y-100827881D01*
X151805044Y-100965044D01*
X151667881Y-101077610D01*
X151667879Y-101077611D01*
X151511389Y-101161257D01*
X151341588Y-101212766D01*
X151209249Y-101225800D01*
X151120751Y-101225800D01*
X150988412Y-101212766D01*
X150818611Y-101161257D01*
X150662121Y-101077611D01*
X150662119Y-101077610D01*
X150524956Y-100965044D01*
X150412390Y-100827881D01*
X150328744Y-100671391D01*
X150316942Y-100632486D01*
X150277234Y-100501588D01*
X150259842Y-100325000D01*
X150277234Y-100148412D01*
X150328743Y-99978611D01*
X150412389Y-99822121D01*
X150412390Y-99822119D01*
X150524956Y-99684956D01*
X150662119Y-99572390D01*
X150818609Y-99488744D01*
X150818611Y-99488743D01*
X150988412Y-99437234D01*
X151120751Y-99424200D01*
X151209249Y-99424200D01*
X151341588Y-99437234D01*
X151341588Y-99437234D01*
G37*
G36*
X148801588Y-99437234D02*
G01*
X148971389Y-99488743D01*
X148971391Y-99488744D01*
X149127881Y-99572390D01*
X149265044Y-99684956D01*
X149377610Y-99822119D01*
X149377611Y-99822121D01*
X149461257Y-99978611D01*
X149512766Y-100148412D01*
X149530158Y-100325000D01*
X149512766Y-100501588D01*
X149473058Y-100632486D01*
X149461256Y-100671391D01*
X149377610Y-100827881D01*
X149265044Y-100965044D01*
X149127881Y-101077610D01*
X149127879Y-101077611D01*
X148971389Y-101161257D01*
X148801588Y-101212766D01*
X148669249Y-101225800D01*
X148580751Y-101225800D01*
X148448412Y-101212766D01*
X148278611Y-101161257D01*
X148122121Y-101077611D01*
X148122119Y-101077610D01*
X147984956Y-100965044D01*
X147872390Y-100827881D01*
X147788744Y-100671391D01*
X147776942Y-100632486D01*
X147737234Y-100501588D01*
X147719842Y-100325000D01*
X147737234Y-100148412D01*
X147788743Y-99978611D01*
X147872389Y-99822121D01*
X147872390Y-99822119D01*
X147984956Y-99684956D01*
X148122119Y-99572390D01*
X148278609Y-99488744D01*
X148278611Y-99488743D01*
X148448412Y-99437234D01*
X148580751Y-99424200D01*
X148669249Y-99424200D01*
X148801588Y-99437234D01*
X148801588Y-99437234D01*
G37*
G36*
X146132287Y-99776193D02*
G01*
X146192976Y-99782170D01*
X146296802Y-99813665D01*
X146392489Y-99864811D01*
X146476359Y-99933641D01*
X146545189Y-100017511D01*
X146596335Y-100113198D01*
X146627830Y-100217024D01*
X146638465Y-100325000D01*
X146627830Y-100432976D01*
X146596335Y-100536802D01*
X146545189Y-100632489D01*
X146476359Y-100716359D01*
X146392489Y-100785189D01*
X146296802Y-100836335D01*
X146192976Y-100867830D01*
X146132287Y-100873807D01*
X146112058Y-100875800D01*
X146057942Y-100875800D01*
X146037713Y-100873807D01*
X145977024Y-100867830D01*
X145873198Y-100836335D01*
X145777511Y-100785189D01*
X145693641Y-100716359D01*
X145624811Y-100632489D01*
X145573665Y-100536802D01*
X145542170Y-100432976D01*
X145531535Y-100325000D01*
X145542170Y-100217024D01*
X145573665Y-100113198D01*
X145624811Y-100017511D01*
X145693641Y-99933641D01*
X145777511Y-99864811D01*
X145873198Y-99813665D01*
X145977024Y-99782170D01*
X146037713Y-99776193D01*
X146057942Y-99774200D01*
X146112058Y-99774200D01*
X146132287Y-99776193D01*
X146132287Y-99776193D01*
G37*
G36*
X143592287Y-99776193D02*
G01*
X143652976Y-99782170D01*
X143756802Y-99813665D01*
X143852489Y-99864811D01*
X143936359Y-99933641D01*
X144005189Y-100017511D01*
X144056335Y-100113198D01*
X144087830Y-100217024D01*
X144098465Y-100325000D01*
X144087830Y-100432976D01*
X144056335Y-100536802D01*
X144005189Y-100632489D01*
X143936359Y-100716359D01*
X143852489Y-100785189D01*
X143756802Y-100836335D01*
X143652976Y-100867830D01*
X143592287Y-100873807D01*
X143572058Y-100875800D01*
X143517942Y-100875800D01*
X143497713Y-100873807D01*
X143437024Y-100867830D01*
X143333198Y-100836335D01*
X143237511Y-100785189D01*
X143153641Y-100716359D01*
X143084811Y-100632489D01*
X143033665Y-100536802D01*
X143002170Y-100432976D01*
X142991535Y-100325000D01*
X143002170Y-100217024D01*
X143033665Y-100113198D01*
X143084811Y-100017511D01*
X143153641Y-99933641D01*
X143237511Y-99864811D01*
X143333198Y-99813665D01*
X143437024Y-99782170D01*
X143497713Y-99776193D01*
X143517942Y-99774200D01*
X143572058Y-99774200D01*
X143592287Y-99776193D01*
X143592287Y-99776193D01*
G37*
G36*
X141094720Y-99781256D02*
G01*
X141165664Y-99795367D01*
X141230253Y-99822121D01*
X141265902Y-99836887D01*
X141356114Y-99897166D01*
X141432834Y-99973886D01*
X141493113Y-100064098D01*
X141493114Y-100064101D01*
X141534633Y-100164336D01*
X141555800Y-100270752D01*
X141555800Y-100379248D01*
X141534633Y-100485664D01*
X141513451Y-100536802D01*
X141493113Y-100585902D01*
X141432834Y-100676114D01*
X141356114Y-100752834D01*
X141265902Y-100813113D01*
X141243193Y-100822519D01*
X141165664Y-100854633D01*
X141099317Y-100867830D01*
X141059249Y-100875800D01*
X140950751Y-100875800D01*
X140910683Y-100867830D01*
X140844336Y-100854633D01*
X140766807Y-100822519D01*
X140744098Y-100813113D01*
X140653886Y-100752834D01*
X140577166Y-100676114D01*
X140516887Y-100585902D01*
X140496549Y-100536802D01*
X140475367Y-100485664D01*
X140454200Y-100379248D01*
X140454200Y-100270752D01*
X140475367Y-100164336D01*
X140516886Y-100064101D01*
X140516887Y-100064098D01*
X140577166Y-99973886D01*
X140653886Y-99897166D01*
X140744098Y-99836887D01*
X140779747Y-99822121D01*
X140844336Y-99795367D01*
X140915280Y-99781256D01*
X140950751Y-99774200D01*
X141059249Y-99774200D01*
X141094720Y-99781256D01*
X141094720Y-99781256D01*
G37*
G36*
X153837229Y-96892854D02*
G01*
X153967757Y-96918817D01*
X154131690Y-96986721D01*
X154279222Y-97085299D01*
X154279224Y-97085301D01*
X154279227Y-97085303D01*
X154404697Y-97210773D01*
X154404699Y-97210776D01*
X154404701Y-97210778D01*
X154503279Y-97358310D01*
X154571183Y-97522243D01*
X154605800Y-97696280D01*
X154605800Y-97873720D01*
X154571183Y-98047757D01*
X154503279Y-98211690D01*
X154404701Y-98359222D01*
X154404699Y-98359224D01*
X154404697Y-98359227D01*
X154279227Y-98484697D01*
X154279224Y-98484699D01*
X154279222Y-98484701D01*
X154131690Y-98583279D01*
X153967757Y-98651183D01*
X153859248Y-98672766D01*
X153793721Y-98685800D01*
X153616279Y-98685800D01*
X153550752Y-98672766D01*
X153442243Y-98651183D01*
X153278310Y-98583279D01*
X153130778Y-98484701D01*
X153130776Y-98484699D01*
X153130773Y-98484697D01*
X153005303Y-98359227D01*
X153005301Y-98359224D01*
X153005299Y-98359222D01*
X152906721Y-98211690D01*
X152838817Y-98047757D01*
X152804200Y-97873720D01*
X152804200Y-97696280D01*
X152838817Y-97522243D01*
X152906721Y-97358310D01*
X153005299Y-97210778D01*
X153005301Y-97210776D01*
X153005303Y-97210773D01*
X153130773Y-97085303D01*
X153130776Y-97085301D01*
X153130778Y-97085299D01*
X153278310Y-96986721D01*
X153442243Y-96918817D01*
X153572771Y-96892854D01*
X153616279Y-96884200D01*
X153793721Y-96884200D01*
X153837229Y-96892854D01*
X153837229Y-96892854D01*
G37*
G36*
X151341588Y-96897234D02*
G01*
X151511389Y-96948743D01*
X151511391Y-96948744D01*
X151667881Y-97032390D01*
X151805044Y-97144956D01*
X151917610Y-97282119D01*
X151917611Y-97282121D01*
X152001257Y-97438611D01*
X152052766Y-97608412D01*
X152070158Y-97785000D01*
X152052766Y-97961588D01*
X152001257Y-98131389D01*
X152001256Y-98131391D01*
X151917610Y-98287881D01*
X151805044Y-98425044D01*
X151667881Y-98537610D01*
X151667879Y-98537611D01*
X151511389Y-98621257D01*
X151341588Y-98672766D01*
X151209249Y-98685800D01*
X151120751Y-98685800D01*
X150988412Y-98672766D01*
X150818611Y-98621257D01*
X150662121Y-98537611D01*
X150662119Y-98537610D01*
X150524956Y-98425044D01*
X150412390Y-98287881D01*
X150328744Y-98131391D01*
X150328743Y-98131389D01*
X150277234Y-97961588D01*
X150259842Y-97785000D01*
X150277234Y-97608412D01*
X150328743Y-97438611D01*
X150412389Y-97282121D01*
X150412390Y-97282119D01*
X150524956Y-97144956D01*
X150662119Y-97032390D01*
X150818609Y-96948744D01*
X150818611Y-96948743D01*
X150988412Y-96897234D01*
X151120751Y-96884200D01*
X151209249Y-96884200D01*
X151341588Y-96897234D01*
X151341588Y-96897234D01*
G37*
G36*
X148801588Y-96897234D02*
G01*
X148971389Y-96948743D01*
X148971391Y-96948744D01*
X149127881Y-97032390D01*
X149265044Y-97144956D01*
X149377610Y-97282119D01*
X149377611Y-97282121D01*
X149461257Y-97438611D01*
X149512766Y-97608412D01*
X149530158Y-97785000D01*
X149512766Y-97961588D01*
X149461257Y-98131389D01*
X149461256Y-98131391D01*
X149377610Y-98287881D01*
X149265044Y-98425044D01*
X149127881Y-98537610D01*
X149127879Y-98537611D01*
X148971389Y-98621257D01*
X148801588Y-98672766D01*
X148669249Y-98685800D01*
X148580751Y-98685800D01*
X148448412Y-98672766D01*
X148278611Y-98621257D01*
X148122121Y-98537611D01*
X148122119Y-98537610D01*
X147984956Y-98425044D01*
X147872390Y-98287881D01*
X147788744Y-98131391D01*
X147788743Y-98131389D01*
X147737234Y-97961588D01*
X147719842Y-97785000D01*
X147737234Y-97608412D01*
X147788743Y-97438611D01*
X147872389Y-97282121D01*
X147872390Y-97282119D01*
X147984956Y-97144956D01*
X148122119Y-97032390D01*
X148278609Y-96948744D01*
X148278611Y-96948743D01*
X148448412Y-96897234D01*
X148580751Y-96884200D01*
X148669249Y-96884200D01*
X148801588Y-96897234D01*
X148801588Y-96897234D01*
G37*
G36*
X143721588Y-96897234D02*
G01*
X143891389Y-96948743D01*
X143891391Y-96948744D01*
X144047881Y-97032390D01*
X144185044Y-97144956D01*
X144297610Y-97282119D01*
X144297611Y-97282121D01*
X144381257Y-97438611D01*
X144432766Y-97608412D01*
X144450158Y-97785000D01*
X144432766Y-97961588D01*
X144381257Y-98131389D01*
X144381256Y-98131391D01*
X144297610Y-98287881D01*
X144185044Y-98425044D01*
X144047881Y-98537610D01*
X144047879Y-98537611D01*
X143891389Y-98621257D01*
X143721588Y-98672766D01*
X143589249Y-98685800D01*
X143500751Y-98685800D01*
X143368412Y-98672766D01*
X143198611Y-98621257D01*
X143042121Y-98537611D01*
X143042119Y-98537610D01*
X142904956Y-98425044D01*
X142792390Y-98287881D01*
X142708744Y-98131391D01*
X142708743Y-98131389D01*
X142657234Y-97961588D01*
X142639842Y-97785000D01*
X142657234Y-97608412D01*
X142708743Y-97438611D01*
X142792389Y-97282121D01*
X142792390Y-97282119D01*
X142904956Y-97144956D01*
X143042119Y-97032390D01*
X143198609Y-96948744D01*
X143198611Y-96948743D01*
X143368412Y-96897234D01*
X143500751Y-96884200D01*
X143589249Y-96884200D01*
X143721588Y-96897234D01*
X143721588Y-96897234D01*
G37*
G36*
X146174720Y-97241256D02*
G01*
X146245664Y-97255367D01*
X146310253Y-97282121D01*
X146345902Y-97296887D01*
X146436114Y-97357166D01*
X146512834Y-97433886D01*
X146573113Y-97524098D01*
X146573114Y-97524101D01*
X146614633Y-97624336D01*
X146635800Y-97730752D01*
X146635800Y-97839248D01*
X146614633Y-97945664D01*
X146582519Y-98023193D01*
X146573113Y-98045902D01*
X146512834Y-98136114D01*
X146436114Y-98212834D01*
X146345902Y-98273113D01*
X146323193Y-98282519D01*
X146245664Y-98314633D01*
X146174720Y-98328744D01*
X146139249Y-98335800D01*
X146030751Y-98335800D01*
X145995280Y-98328744D01*
X145924336Y-98314633D01*
X145846807Y-98282519D01*
X145824098Y-98273113D01*
X145733886Y-98212834D01*
X145657166Y-98136114D01*
X145596887Y-98045902D01*
X145587481Y-98023193D01*
X145555367Y-97945664D01*
X145534200Y-97839248D01*
X145534200Y-97730752D01*
X145555367Y-97624336D01*
X145596886Y-97524101D01*
X145596887Y-97524098D01*
X145657166Y-97433886D01*
X145733886Y-97357166D01*
X145824098Y-97296887D01*
X145859747Y-97282121D01*
X145924336Y-97255367D01*
X145995280Y-97241256D01*
X146030751Y-97234200D01*
X146139249Y-97234200D01*
X146174720Y-97241256D01*
X146174720Y-97241256D01*
G37*
G36*
X141094720Y-97241256D02*
G01*
X141165664Y-97255367D01*
X141230253Y-97282121D01*
X141265902Y-97296887D01*
X141356114Y-97357166D01*
X141432834Y-97433886D01*
X141493113Y-97524098D01*
X141493114Y-97524101D01*
X141534633Y-97624336D01*
X141555800Y-97730752D01*
X141555800Y-97839248D01*
X141534633Y-97945664D01*
X141502519Y-98023193D01*
X141493113Y-98045902D01*
X141432834Y-98136114D01*
X141356114Y-98212834D01*
X141265902Y-98273113D01*
X141243193Y-98282519D01*
X141165664Y-98314633D01*
X141094720Y-98328744D01*
X141059249Y-98335800D01*
X140950751Y-98335800D01*
X140915280Y-98328744D01*
X140844336Y-98314633D01*
X140766807Y-98282519D01*
X140744098Y-98273113D01*
X140653886Y-98212834D01*
X140577166Y-98136114D01*
X140516887Y-98045902D01*
X140507481Y-98023193D01*
X140475367Y-97945664D01*
X140454200Y-97839248D01*
X140454200Y-97730752D01*
X140475367Y-97624336D01*
X140516886Y-97524101D01*
X140516887Y-97524098D01*
X140577166Y-97433886D01*
X140653886Y-97357166D01*
X140744098Y-97296887D01*
X140779747Y-97282121D01*
X140844336Y-97255367D01*
X140915280Y-97241256D01*
X140950751Y-97234200D01*
X141059249Y-97234200D01*
X141094720Y-97241256D01*
X141094720Y-97241256D01*
G37*
M02*
